<mxfile host="app.diagrams.net" modified="2022-12-10T07:50:43.172Z" agent="5.0 (Windows NT 10.0; Win64; x64) AppleWebKit/537.36 (KHTML, like Gecko) Chrome/107.0.0.0 Safari/537.36 Edg/107.0.1418.62" version="20.6.0" etag="IM7o4s0Gsa1EU7JS4ymd" type="github">
  <diagram id="439kNqJ1m5KGFgfhiNKA" name="第 1 页">
    <mxGraphModel dx="1831" dy="1752" grid="1" gridSize="10" guides="1" tooltips="1" connect="1" arrows="1" fold="1" page="1" pageScale="1" pageWidth="827" pageHeight="1169" math="0" shadow="0">
      <root>
        <mxCell id="0" />
        <mxCell id="1" parent="0" />
        <mxCell id="ZXn4HNvfn6RSKJ2BFfuO-26" value="" style="shape=image;verticalLabelPosition=bottom;labelBackgroundColor=default;verticalAlign=top;aspect=fixed;imageAspect=0;image=data:image/png,iVBORw0KGgoAAAANSUhEUgAAAJoAAACuCAYAAADOFBSsAAAgAElEQVR4nO2da7BkV3Xff2vvfbr73jtvjaQBSQiDJBCyJCAWNsjEqXLKVSQpP1KpVIiTVIGJFWDQY0ZIsiMwiomFXjNCgFBsTB6O7cQf7EpcFZOquPyowhiDEViAEBYGgSRbaDSa1310n7PXyod9Tvfpvt333rkzmpm+9/ynevp299lnP85/r7X22nuvLde/5d+b6m4anH4YgAw+CV1EjoN0y6/amG3DaKdrkfJyqd9hqvHsMwcACIW9jGgXn+XibFBIIkqMOW3vge+D+1vEHwJA4/movpKou4kigOBMEJPaTYyNQLigtgVl+9kux4aDiIAYhuL8IoUeZmbmBB+660acfw4AjRdy++3/E3FbUd1KCFuxIgJSo9b0kwwgIBEsnu1ybDiYgakiTjEOkbUf5xfu/Jf48F1+6YO3AHDXXQe4++6f4oMf/A1UXwd5GGhakeH7ndnin3YEMBA92+XYkHAYpkqW5ag9Q7tzCMcCngIALwu41vN49xyBVxNVwUGlOa1mq5mMz2NaEDaKDXCuQszjzKOmOANnHSRuAQQXZ0EcXiGaQ/FghpXEGibXdD+jcLYLsPngylf9s9Sk1zjRJWwAoqXRToOXAoZJRCWC86g4lC7mloCIui5GmygeFUNF0yCicnPY8LOZZqqVEm0S0aa5amcfJoAZahmiF6DxAtQfQktDX2kT9UKiXYhKG8OgJtkGT0WGfplGyHVv/pRFu3TCz439dmowBMXJEuhhvP8eH777n+PccwgR1T38wi/+L1RfidlWoN338g7bZ9NLsUPPvgtobLQzAAGbAfag6rnzzv+O888jZqiej+pVqJ1fv3oMpr+zN0R7SZGMfDVIfovzKXozIDmJgBnI3FCKaXdjTEJDtJccgkll1AdEtmKU00xOMesBG9+P2RDtJYYNqT0FK8rvpdSI068W14KGaGcENuYFA9fSBtWXNTREe4mRKDSOXJtDklVwq1/S4PRg80mxOhqJdsYwrk9vHrI1RDsjmDR/uXnQqM4GZwQN0RqcETREa3BG0BCtwRlBQ7QGZwTBGWlmZHMNgjYZzr5zOPjCcKbJdz2GbCINA6cbNvJ+dhB2tFsQs5Fd1QM0RJt2jJtjPXN4tnwPM0WXUCxOLEJDtCmHnF2iVQgXtBxtmVyAhmfTjnOEaDusyxadn3hBI9GmHecI0Xb64+xwk8nUEG3acY4QbY5n2GbfL8u0nFSyAgkbnOs4N0gGECx/Cikj2IyDaEO06UZFspX2JQgD3/2wO0Rqf9ddYG6Ityvtsk8IrnUIZ/MTL2xU5zTDRkadk+DAWqTnr4AiaD94lpTpDShcuc1GBbFEPKsWcq7g9Q9bL4C5Xj7xgkZ1TjtWkmjVs/WgvvyqB6JlMEApKWSIKSpG4dIy9KBJqvV3eJljrER7Jr2FxdY8J/yRicVsJNq0Y5KdVltSbj5JNIngjoMopjNgGYJDMJxFTIxCSEQklurTg6WrxgvNpJLDsdntRNXJDttGok05TpZobdLk9wxmgSTVUmgHMJLJXn0GzCMkNTqeKYcBCIe3vIYj5OgEFdtItOlE9dxcSQzEhp6liOBcqS4JoG1S6MBeklbigKQfo0aKGDFN1lgQjxOPSBWCa5I0A/jfKb+XXX69FXRKo25MgRuJNpUwTeQyS5Koeq+QSFIR0iO08S7DzIhxAeePE4vn8RwCadHTl6O6FYuKmEsvXC2u23jscN8GIBxduoxCLmzmOjckSnUpw2pTbTAwMEtDR1VIXzt8Nk/kCebmnufXP3YbTndww94/gnAlJiAmOPN9sg7yGoPFkmjOX4i4iyfysiHa9GGgNqWcq05Eq743s/RCUI2oWWnYO/KFRVrtFh++5wOct/2rOH2UoriEGLfQnn01h48fIQuhz10zxcnw6Qh1bCnfA9YFXZpYaGvW4E4hKjeroKpgA6lmagQfiGp4H/AOtCiIhdLOZti2+3ywp9huf0Rr/s/I2l3UdtBuOeaPHyVDyVzERDEUyvsnabiCH23PBReSywUjXw88wcnWO/srNBusDyJJwokYLh19gA/QK46jWmCaoSqYHgcWEDlGW56mbc+wc+YporYwd4wLzztBQRelAN/mxFJgbtsFxDwvOezG0qz3nfQe2iHDkY25xDAxzIFJRbyGcNOCahBXqc68yCnynHxhCdXDvPwSpYhdYr4DbAEn38DJYcwcnexbnH/BlZD3mPEdpPcC2zuPsRhfICenxwV0Zt9AXmxNalPSjMJKA4OgecQYPtAirbYtw5D7kmAy6odpcK6imgdQjZgphhFaGa12h62zW2n5Dv/mX78VH5b4+EP/lcwf57b9/4wQXsDUsPi39PJvkXEFvV6LpcUOP/+uf0pn2yVoBofnd3PvgccAiFhSnzAyOBhGePbZp4ljD7RIRMNVkqwh2rTAREAcuDQY8MFjLjlegzmERT7wiw8Bh7n7njto+8MQn0NoJb+bXMTi/HksapHMO9eis6WNiiePBfMLyuFDJxA7hkVFNVIUxdiyXFi+y85X3GBR9owrLmmkMvi7wXQgrbJI/nwzUJRIcrgSI2gOLCFylBAO0QrHablFfDnPaeqIRQvV5LQVpzifg4+oN7rxfJa6V+PkInxp902aT98dPw1AUH+UQvzQjwKIJWJVnuX0ee1kGxwusz406defXhAwSw5VDTjAWw5EEEOdYaKItBDbTSx20nMgzoACEFxo4V2Gcx4xoyh65N0uOHDSJsScLVtOkPd6IEycWaqsMsG/2XC7yk8jV1pVY0tD5JOp9ui02smiSb/+9Fo+L01e/4ScZLkJuHLqSFzNtZBULVYkz23fXWH0p5lw6bMniTFHmY+Cjj+47hWXPA5A2H7x1RRjVWdaHlIdILPevnmqsQ2b9OtJXx6N4UoxI4ZUfi9KiVfOW2qpuSKVd6HKLc1JVguFhifNS48ENSk2aVJdS6JBB2F2QnmtzO/UbbRTtfCa9CefQkvPfXWQWXUXoVwha5TehZIwYzLppxj53QCt+VdX6xArB+JbedHkmjB9D2ijpK9UZjl5PvKrMrCUKgtpeV4DYo4ri5jVXGEra/gm4uOGxOga/jFr+ses1plMlJJG45aRkeZNq6smoSHahoSNeT9Za68aABiDZdrDTJPSrJI13DeYGZPX11aTCqMFn26ISL8XblzUldnJkUyGrq/fY9J9VrevQlWk8RnW/1pNC5/rqM3USn+gPzRsSkteRqdRprnOsH7fioz8rbXb2bKrV0NY6aKUxbSTLJXfRnq3SV5+G0grTD2mOrYhp7fu64ONSDSRug022jZrk5QhLSGZuOyRaSdZ8hNV5XdAwCzHfBeTiLNZtAi0/Ax5nqf1WVY5Nw2RavnLtLbBelGT9BOvsQnkW45VlzVauQdmGl+psXz5MnAF5hZRfwRrfZ8b7/gXLPWeYNv5XXxrgVznS+emK1ciSK0NprstTv7Fml5rxQZfPysIGeAwKVB3jBieoWg9ic19g6XsC9zwwR9jzxXPI7PfYev2BUzmERkse7G6YddgBKMDhXGvhA1ONCh92BiR9+27gRtu/hm09W3eufdt0HmaPPtr3vzjF/H2d/44XX0OcT3yolemXd5gDUaxEsk2CdGS46aLuBwR+MTH78V3nuPWO9+OtI7R0xfJZhaY296D7AitThelh3eOEDwzMzMEH8aMRBucLDZ4CxppDWgO0kOty9zcDL1eJLgZMr8db7vIu3O0wk6ueM21mHp27NiNRqW7tISZ9SeeG6wfG5xoAIJZQeQYN++/mWJxNx/90O+QFa+gHS/j4Xv+mE8f/DwfvfO3ee57Qifs4qKLf4B2Z5bOzAwi1Zq8BqeCDT4FNcyQ3/nt3+Xvnvse8ApCvJQH73sQl7+SpWIb2dwOgpxHpxPpdXv0ul3yojeyo7vBerGBiVZ3OgbQLTz9naMUFqCY5Td/7Q+JC3vQPDA3s4v5I0vsft3Lmb14C49/9auICEWMtDK/UiYN1ogNTLQKgpMUfkkto+VatLeez9HnocMeLAi9RWHPRZfhXcbxY0e55NJX4IPn209+k+7SUmOjnQZsYKKVa6kkLaoTEYJ4YszIF6HTmgERTIStW2d41atey5EXX+TJb36NdivD+4wT8/N0Wu2zXI+NgQ1MtBR7QkthZFotWw4YQq9rvPn6t3L06FG2bd/OoUOHePKb32DL3BwLSwuows4dO5mfnxwav8HasaGJpmZDy4GSp18pYkHUyP/7w89w4fkXkrVaLMzPk2WepV6XNFI15ufnS7I2qvNUsQncG8MQccx2ZoiqvOpVl7Fr9/m8cOh55hdPkJYKpeuqiDsNyU4PNiHRUoSduc4MGiNPP/VtFpcW0kJSTbvIpDlT8rRjUxGt8oWpGc47vvPtJ+nmPbbObcWJK9Ws1FZvNDhd2HCt6UT6geEAqvV29eB0ABqV2dktOBFiP0jJ6Jr4RrKdLmw4oq0V1SChkVxnBhtu1LlW412t5mejkV4vNTZdd25GkWcHG06inX1Ifyp/dD29k8FiwHpk7M2AhminAXWncJ1MQop/IeUAZePvJZ2MTac6Tz+WL1/W2kDDu4CZYFaFfRoTnmAToCHaKWJ4k7VDJMMMIj0KW0ItRyQdczO8b+h0SbdTj/R0JtAQbd2Q5OTFcCL08oIdOy4A2hgek0VUjhNZwqQgy6TcwxCxFQ9pPRm8FMR9adAQbZ0ws76j1znHti3bWVw8RsFRNDyHtp/ihn3/BGt9n+gOU/AiJvMgBec6KV4KNERbJ7xzBO8JwSNOOLEwD36JV17lyVtf4KYPXc/Mnq9z4WXz5K3vkvunUX8Io1u7y6naaTLh73MPzahzHTAzomkp1QpEPDPtLVx6+S7e+rZtvG1bhxPF4wRp8VM/+yN84v7f4qb33Yku7OCTB34PsVlGY/asH+c2wSo0Em0d8M7jyhGlk0CnNYOZ8cQ3vkToHEL937Fl2yySOaz1Iu+7/e0s2bM8/J/uxiRFvZ4Oepw+NEQ7aZTBg8Uj4slCGxCuuPJ1tLM2nWwXTs+jt7AT8l1YDJgZs7NzdHs5g3gem8tSa4i2KqT2zyFIuTgyvV/zhutQVf76G39F0W1x8Jf/Lx/95c/x0C99Blm8nFZxKZ+8/39QLGzn9lvvRqw6d2tzUa2x0VbB8pBVSaKlE32FWEQ6nVmOnXiBVquDjy8H3Uo3zvHIA7/Hjfv2ogt7+Ng9v4W3HXh2rZjfRl06LtsuvdEKefnZLsc5iyrOfv0bSC6NxW4XVbj+R/8B3ht/8fk/BTEii3T1RWZnMvIcUI+jhZDhrAW2efaK7taHgUairRHDEkbNaGUZ17z29czNbUvH1+RKUUAIAUcHejO053ZiMZKauRwAbDxhtSY0Em0iKvfD8lCaZtVhbOl0Gu8Cb7zuLXgX+PPPfRYR6HQCedFFNZZxcidF69/YqCRaMxhYMwaT4fVFks4Jaspjj36RXt7j9W+4jmuu/SGuuvqHEAs0Z4UnNKpzIqrTQOrSqE4a7Uu7tFe0x6Nf/DMuu/xKnnji6wTvcK4WzXqTo+lupwFJwqVZgieeeIw3v+X6dIBcGXB5s7kyxqEh2kQkz1k6rkvL91i+inIFRhlCWZJPrZW1aLfafPWxR3nd1VenVbTNEeFAozonYvkU0STJNNjcIuJY6i0hInz9sb8qk222yabxaIh2mpBCKCit0CLG6lyWMux8g4Zopx+y7K+1HvqwkdEQ7bRjeNVrQ7KEZjDwkqMhGTREa3CG0KjOU8bw9JIOBf5bacQ5eh7mxkYj0U4Jg5VqRlrRUUUrCj6NOKtNw26IdNOze+l0oSHaBEx2s5aE6Ttik//MieCcBwIijsIWUBYxibWwWadyPtx0oyHaREx2ziYoiKLlJpUU3C9DpIOJYP4EZMfwIc0ppOhYVqYzEB1z/42LhmgnjcnB+pw3ojuCZc8R29/i3bf9NLsvbqP+BF07RJSjmMTBbIE0RGuwIgRHAPM4ERa6iywsLtKLh3nZq5fIZ/6Cm+66Ht3yl3zvhT/DOs/R9U9ShGcwyZFyIWTC5iBbM+pcFwS1asucMNeZQbzj1Vfu5Efftg3mZrDOd1HvefdtP8kn7v0N9n/gZmxpO5+4+zM1J66yWfr65qjlaYYZmAlqDucCC90lVHO+/KU/YevOeXznML3YxVwXa3+HG+/8GQo5zEMP3YdJgUlaBbKZBgQN0daBFJDZMdOeIUal02rzuquvYueu8yi6bSzfxeKRbcTu9nKfwFKKj6blnlCS8h13unF1vsFGi6XWEO2kUZFDWVia59o3XkcWAo995QssnhA+9it/yMMf/hKfPvAl4ouX47uX8vF7fxNXbOfGvXfgrJX2dlavMYOLehTxjYLGRjtJ1B9/VCUWhpnDiUeYgzgHcQcaj/Kr9/4+++54L657ER+9+7/h4i68XQLlZmTbRKqz2QV1kqgUX1rkWIAFrv/RHyPaPF959HPgCpActS6LveN4b3jnMA14ZhHbglhWTlUtJ9m4DcQ2EkF8mtDs61wn0oGxykynw+WvvZqtc7swBbMAGjixsIj36RS9TtiNmKAFOBzgynNDJ29YGbdLfRoJNoqGaCeJtKdT6PW6PPH1xzBzdNozvPFNb+IHr3kTX3n0C+UOqLQ7KmrEY31ybdY9Uc1gYB1w5bylSNrXGWPOZ//0jwm+xXXXvZXLLruaK6/6e2zZeh5mHjNHWtZdD5a8udBItHWhUm+KmMPUaPmML37+c/zgNW/gO3/zJMfmjxK8gAPvTk/IvWlGI9HWif6IUQYrMaJGnvj6Y7ziB16VpJ13/eVCmx0N0U4R9UjbnVaGiPHdp57kyquuLvd7blarbBiN6jxJjC5ZrLYYi1QefVg4scAz3/12/+pGnjVEWweWUw106LS8Viuw1F0or9g8TtmV0BDtFGFYLSot1N1gjTwboCHaKWN5BLUGy9EMBhqcETQS7TTBiVu2tKdRnQM0RDsNqELCiwx8ZmZWjkgbQEO0U0a1gLESZiKOzbRydq1obLRTwCDsqKDl8m6RDDVQ6WGuV26r25zzm3U0RFsnpFz205mZ7TtqwROjT8dbh3kknEBc8rWlhZEr/9vIhGyIti6kxYlFjBw9dqR/bicSUXeEJZ4ibz3Ju/b9I3J3iOhOUMhxVJbKkKTLj8ceHES2McnWEG1dSKcOZ8HTzkIZfVuY2waXvz4g2x9l7y/9MDN7voHf9jTafo6ePAP+RcTlK9x345KtIdo60N/6W4ZCMDNm2jP8wOUX89Z/+Er2feCn6bm/4XjxTd5x0z8ml79h/53/ivfs+1kiS6vefSOSrSHaupBI0G516OWxfOV8/WtfYMfuHrn9LaGV0Ys5YcuL3HDbT9Jz3+KBA/sx6a5y73T/jUa2hmjrQnJdHDt+nLnOVrZv2cm1b3gTGj3HjoDXC7Hey6A4jzzPmZlzQC8tsl3V7TFwjWwcmjVEWxcSDZRWq8VV11xH3jP+8oufx9tOHrn/sxz8wGd56MN/woxdQzyxiwf/46+i3Z384h331c7rHH9nK/+v/m2UUWnjsF0nqsB7ZkbWarFwYp5QZIi8DJjF9xb5xD2/y95b/i2z/go+9dDvY90tiO2p3WH5PcdLvEqRTu9Mg2y79CaLzb7OsVhtrtJJIC+EH/7hv4/zjs//+R+hvks3HqPVsRRjQx1iHlHBWYazDmJ+zfOgw5LMpo5qI/s6p1ckv3RYOfynGbzmqh9kx47dzJ9YJJAR1Zib3Ur3RA+vnqiGWBvB48xq53VuvimqRnWORf18gOWkcOJAHN98/Gt4l5EXkWvfcB1vfOOP8M3HH2dHZw9qXTwR7ae1tJfljNbj3EEzGFgHtPSfqSp50QOMrzz6BQCuvvaHeO3rruWyK67GS5Z2DOsoydZq2I9eM70DgkaijUV1rt2khyr9KNspVprinOfLj36ey664kmeffoqi6BG1AGKVYuQOq9mAo760wadpXOfWSLSJ6IdzgXICnX78DCkJBtWO9SpUwveeepJXv+Y1HHvh78hj3g9XW5nxddfFaqhWtI3+m0Y0Em1FVFJkJXWV6GhAq9XCh8BffeVLvP4tP8bXvvrlRIsqNnL/1GJjbSqwZt/1o3ZMq+qUiMpKE70NVn+4gohnvrtIsVDgg+PLX/xT2nNz5ebiSuXVBxer2Vv1YMr1Acl02mkhsoj5xbNdjnMUdTUlK5lTGEJo0Y8c5LaAuYXBJSKYDhNmlC7LTjVwVZr6r6unm1jIs4jQmu2Ru+NntRDnNuqSZMyvI2c/2cjR1pNSCyxjyFoOK15furMoBXvpLZAdRv1aVhRsVqxMtCH0owbVyLfKXcd+X9Oaa5VeQ+lqXw7GqnJW/XhBWi8i4cRZyv4cxzLxMengsPJXWU60k360I5ev+XCVMdnU0wrSF31ng2xBWkdw2XQOmV9y9Ik2KtXGTyGlyEGjeztl7U+22kk1mstq6UfSjUKspjrP0qMOyhHU9fpfDIzP8RA3Ehd/levXkr76bi33Gk2/njKstTxgmOmyGLI2IdBxPVZaSi0gJ2cfjYbsWxPRxqSrFykJskE5zqxE2wJAQE4Ag1GnrSKrR8c8q12/lvTVd2u51zif1smWYa3lSTxZrgb7Mc+WFWUcAddONOeSHVWPwr0WB+1ouqHI3hXJbFAn+rMap0e8ycj9Uly46t4V0awAywFBTAiVHh/pSlaqERMdjKxGpHGtDhOx7DGUnd4UvJVTNTba92zQs6XuXV9+zzECbzh/G07TL3uZgTfBma81VE1CSSKiI+1l6j/Lcn5lLO/GSr4xBbcUuTuFKpV00mL1wMo69+su9fIMZ1zxalnfq57VCNGq68Skb8dJfxg7XFATA7FlZejfe+i5DRcgiAactsr1Uh4pHJnLiL0irVIgFcwE1CnqYnpJgUpE3OCBp6kYykZa3r5VYZYRUx3OHE491jMy1yobvXIZpEqqU6IWKf8yyqKWjV3dSzX9PSlsbL+D9wuUyO3UIeqxniO4dmqLqk5l51KnFPRQF3ESUVHKftFvWiGVoSK82jD5h1wRQvlgU/0pAtoTMtfG40EVsXQuqImm+rv0bqJY+V4AzpEmD+qTCP1yST9vE+vPT4iUk2palkE9LgacesSEVmhRxAIw1Bkqkehy1EVAy++gbyGU+Y+bJQ5Z3i4rKjj1vPfn92I9I7hALGL/QauAivLIpz+JunRwlroC9UX5IMpcxIY7slQPs3q6pWIqG1jUlxVzSHTsveFGLDeCeLSI+BAwDC0f9Cc/9XDK30WiFINGn5Q/STqYppxF3EBal40rVi5OLBx7b7gJyyFIRiwiIbj0cESJLvJIPX9yLCQpLy7lb6ZDcqAimZUdoDLMk3DweMsQDWX9fcq/ZwQJaFHgxRAUFSM65ZFf/2QinJQdLihR0oOX2rhjVOEbldSqSWJzuEJouzaag1fPe961F0/A4/qENTEisV//6ApUikT6oERiqlt/5ny5rpF7HvoVU0mN43E48xCFGJUsa6Vd2FIujRFNDWwFiBFdwSf/yyPEsuHVRaKkHk8pBawS41EQS6QiJhXhY8Z73rGXFi2Cy4g9JUgGKsRCybKMvqIsJYtKxFyEsuIP/+dHiC5irkBdQZTU40xiv9XFJOWvAacBiYlYPgbe/Y69ZLQIIRB7kSChzD+ShWxYEki6b3ql+t91739gzyXnJwlPTkE3PYQh6yrl79TjNAzV/93veF+qv6/yT0uLtIi0QpakWjV5JQq+bANRCh/5+KcfpnCpTUxiv+Nrqeb68syS1HYakFJi+Zjxvp+7CckdQQLOHBKFzGcsLS7RarUw05H2r56rUviCj3/6YxS+SN+5WHbCdB0C533rotQCBx64zyDpaicOzBFCRq+XE7J0lEyfn2KYFeVIDMwbuS/QYIiH6Ao+9siDSdKJ9skGUqqmwL/7uXfjNFXKx8Cc24L2FItGpzPL4kKX4DOiKu12mzzPB1KKSnIpziXiF8HQoJgzdFn+1idaRfIb3vlevHpcSbQq/6iRmc4MiwuLBB9QjbTabfK8qNmnBsT+fVUiXd9FvZZmRcEjn/pEKfGrurtSepf5/9x7E+H69d+KdQ2NkU5nhsXFMv8Y6bTbxLyo2VtpeXh1XHZ0StcVFCX5ooulxolDEh6Tvsa64Z3vwZemSqYtsqKN17S2wmI6TmjUwVJfgVI2KEZ63l3f7RNtNH8TY9v3dqUkB+9/wMq0JdLq0aiKD75vz1RDejPFSaUCkkqrBgcq1WBhMGDojwhNkh1mqTdRGp9Oqx0+Vd8ro/MwGIBUBmgyABQMvFTXpDyqv7WuRktpUjdynbm+TSTlA6iUy/LRa9mTa6ogqUbD4UuTQst6L89/kLbcx2RlhzNXfi7NhoHMGhocDpscqVXKWvfVoZU/V88hulhKs/IGNQPdlfm7flukMgigpogrjwgqdXA9/m79dO5+mcr6m6R1xEmlJ9vNSBLt1z7yawCEYctY+kai92mHz2jTJ6lHSZQ0Uhx6NEMPa+ThGcnoHTIVBxUZ2O9Wu8T6r2TIu37DiYGrlb3McXmj1IbHfVr3rfJa/jZirAOYDbk4nCTbTnCIgohL2zXH5F99rqvwIedpLd1AiIwbwQzKD4N7OKBvjVMR3YaqNppTVQYZ3BAjhXjol1VqXUsG19ULWpHNm6fcsIrFAeHr9wAIfc/1UP3KYW/5/WgvAxlbmVJRjd4qcVkVEZd64JBTdOT66tuRwUS9ySraSa3XDggzuJuN1EvKXmqlRpuIWoX7WVTD+b7EHeSfCN3vIkPlhCp2WkonQw1nDCzuVOnlLsHlI7jK0zeiirBS4q3kVuy7RKy6U01aU5bT+gNixGxAwHo7VzeUQT2r/2WgjvroL3ysJApYIoKUo7VK/EoasSEM+aKckyHHX5KINVL0/RnSX4W6llUKZQpE0sCkP3tQb7RaZQffDEu0Qb0Y+Hlk+D7DeQrLnuyoXKg6IPUHsnoCTNIAAAONSURBVLxg/d9qEnX4Ihv+0sZkvSyhjCm/1d5XYBmjbTbp+pI05UBwWH1Xl6Taj6Ye1hYDhHpGBn1DGEBLyVOXPQPrIJ2SWwU5MTOcK6Md1vKpTtPN8yIZmqV31myEkJXhPtQaZR+rpJ/U/fjL+/mo806EmgSpkgx63lgsc3RRPtthog9NSw2p3LooltrfdRVcSYX6/Wvp6twbUaUymnZ811sBI6bNKr/XlcKg5az2+/ISjcOypdw+eCzXRBw/0C9Vhavpl3RuZYF3KW5r1sro9Xq0WhlmisZ0XV7kBD/IRlzqDM57YlFMDMUpZSioSs2aGjEOXBbDz8VGvqw3TP1rGf3l5DHu+fYxrn8PEozpGhPTVZtfxp/VebLkWin9Kr+Pk7IiQ9esZQZwiGgiQrfbRURw3nHLzbeQZRndvMvBBw5yy75bOPDAAfbt38eBBw5w6/v38eDBj7J/360cPHiQ22+/rdz5Q7p+/y1457n/vvv5hTvu4N577kGjsm//Pu67736885glp/Cyh1BOlIsTfuInfoI8z2m326vX6JzCZGqtFX/wf/5gwh3WQ7DTiZPrrH2iiUipJtMNYhERJ3zkIx9h3/59hCzDMG7Zf0stK2HfvvS5WuXw4MEHh37/yEfuQZxQFDnvv+02Dhw4kDIOfnjVxYR2ExGcc4g4YhFPqnINXiKsg+NDY6/R5Tb12filpSUOPnAQYPB+8CAi0iePmZKFjJtvuRnTNFp5/223poyco4g5t9xycz+vgTq2ZbZIHSIOEcEHnzrDJnptFAxmp8oHnYWsP+rMQpYqLIJ3jlvffyveefbt34e4ZOBHHUiZqJG8yPuT8d55Hv54CvIxNzvHXR+6C9U0pdFut/v2RzVgGAcRh2qk3W7jnCeEDO/DpnltFCzzJnW7XXp5j1YrzdzfftvtBB+Sm0Ej9917H4ZRFJHgfTkYSPDOs3//ftS0T9z37H0PIsLxE8eZmZnhvvvux4lLtqCbTLAKqpGiiKjGvuQz003z2iiQA/cfWKazKnutKCJZFvquCecdznmKPF9VrFcujcpVkoWMVqtFt9tFzQhhQNCVVsgWMdJqZeR5QQi+P5rdLFitI57rOPjRZGYtk8391ZKaJlg1ajnRChoHbou622EcjJS+SgvQ6/WSGj6Jxgve98tQqfQG04cm9kaDM4JTsjZPZVPIqaRtMH1oJFqDM4KGaA3OCP4/adFdcI322MMAAAAASUVORK5CYII=;labelBorderColor=none;" vertex="1" parent="1">
          <mxGeometry x="-789.3" y="-1049.5" width="35.4" height="40" as="geometry" />
        </mxCell>
        <mxCell id="ZXn4HNvfn6RSKJ2BFfuO-27" value="" style="shape=image;verticalLabelPosition=bottom;labelBackgroundColor=default;verticalAlign=top;imageAspect=0;image=data:image/png,iVBORw0KGgoAAAANSUhEUgAAAJoAAACuCAYAAADOFBSsAAAgAElEQVR4nO2da7BkV3Xff2vvfbr73jtvjaQBSQiDJBCyJCAWNsjEqXLKVSQpP1KpVIiTVIGJFWDQY0ZIsiMwiomFXjNCgFBsTB6O7cQf7EpcFZOquPyowhiDEViAEBYGgSRbaDSa1310n7PXyod9Tvfpvt333rkzmpm+9/ynevp299lnP85/r7X22nuvLde/5d+b6m4anH4YgAw+CV1EjoN0y6/amG3DaKdrkfJyqd9hqvHsMwcACIW9jGgXn+XibFBIIkqMOW3vge+D+1vEHwJA4/movpKou4kigOBMEJPaTYyNQLigtgVl+9kux4aDiIAYhuL8IoUeZmbmBB+660acfw4AjRdy++3/E3FbUd1KCFuxIgJSo9b0kwwgIBEsnu1ybDiYgakiTjEOkbUf5xfu/Jf48F1+6YO3AHDXXQe4++6f4oMf/A1UXwd5GGhakeH7ndnin3YEMBA92+XYkHAYpkqW5ag9Q7tzCMcCngIALwu41vN49xyBVxNVwUGlOa1mq5mMz2NaEDaKDXCuQszjzKOmOANnHSRuAQQXZ0EcXiGaQ/FghpXEGibXdD+jcLYLsPngylf9s9Sk1zjRJWwAoqXRToOXAoZJRCWC86g4lC7mloCIui5GmygeFUNF0yCicnPY8LOZZqqVEm0S0aa5amcfJoAZahmiF6DxAtQfQktDX2kT9UKiXYhKG8OgJtkGT0WGfplGyHVv/pRFu3TCz439dmowBMXJEuhhvP8eH777n+PccwgR1T38wi/+L1RfidlWoN338g7bZ9NLsUPPvgtobLQzAAGbAfag6rnzzv+O888jZqiej+pVqJ1fv3oMpr+zN0R7SZGMfDVIfovzKXozIDmJgBnI3FCKaXdjTEJDtJccgkll1AdEtmKU00xOMesBG9+P2RDtJYYNqT0FK8rvpdSI068W14KGaGcENuYFA9fSBtWXNTREe4mRKDSOXJtDklVwq1/S4PRg80mxOhqJdsYwrk9vHrI1RDsjmDR/uXnQqM4GZwQN0RqcETREa3BG0BCtwRlBQ7QGZwTBGWlmZHMNgjYZzr5zOPjCcKbJdz2GbCINA6cbNvJ+dhB2tFsQs5Fd1QM0RJt2jJtjPXN4tnwPM0WXUCxOLEJDtCmHnF2iVQgXtBxtmVyAhmfTjnOEaDusyxadn3hBI9GmHecI0Xb64+xwk8nUEG3acY4QbY5n2GbfL8u0nFSyAgkbnOs4N0gGECx/Cikj2IyDaEO06UZFspX2JQgD3/2wO0Rqf9ddYG6Ityvtsk8IrnUIZ/MTL2xU5zTDRkadk+DAWqTnr4AiaD94lpTpDShcuc1GBbFEPKsWcq7g9Q9bL4C5Xj7xgkZ1TjtWkmjVs/WgvvyqB6JlMEApKWSIKSpG4dIy9KBJqvV3eJljrER7Jr2FxdY8J/yRicVsJNq0Y5KdVltSbj5JNIngjoMopjNgGYJDMJxFTIxCSEQklurTg6WrxgvNpJLDsdntRNXJDttGok05TpZobdLk9wxmgSTVUmgHMJLJXn0GzCMkNTqeKYcBCIe3vIYj5OgEFdtItOlE9dxcSQzEhp6liOBcqS4JoG1S6MBeklbigKQfo0aKGDFN1lgQjxOPSBWCa5I0A/jfKb+XXX69FXRKo25MgRuJNpUwTeQyS5Koeq+QSFIR0iO08S7DzIhxAeePE4vn8RwCadHTl6O6FYuKmEsvXC2u23jscN8GIBxduoxCLmzmOjckSnUpw2pTbTAwMEtDR1VIXzt8Nk/kCebmnufXP3YbTndww94/gnAlJiAmOPN9sg7yGoPFkmjOX4i4iyfysiHa9GGgNqWcq05Eq743s/RCUI2oWWnYO/KFRVrtFh++5wOct/2rOH2UoriEGLfQnn01h48fIQuhz10zxcnw6Qh1bCnfA9YFXZpYaGvW4E4hKjeroKpgA6lmagQfiGp4H/AOtCiIhdLOZti2+3ywp9huf0Rr/s/I2l3UdtBuOeaPHyVDyVzERDEUyvsnabiCH23PBReSywUjXw88wcnWO/srNBusDyJJwokYLh19gA/QK46jWmCaoSqYHgcWEDlGW56mbc+wc+YporYwd4wLzztBQRelAN/mxFJgbtsFxDwvOezG0qz3nfQe2iHDkY25xDAxzIFJRbyGcNOCahBXqc68yCnynHxhCdXDvPwSpYhdYr4DbAEn38DJYcwcnexbnH/BlZD3mPEdpPcC2zuPsRhfICenxwV0Zt9AXmxNalPSjMJKA4OgecQYPtAirbYtw5D7kmAy6odpcK6imgdQjZgphhFaGa12h62zW2n5Dv/mX78VH5b4+EP/lcwf57b9/4wQXsDUsPi39PJvkXEFvV6LpcUOP/+uf0pn2yVoBofnd3PvgccAiFhSnzAyOBhGePbZp4ljD7RIRMNVkqwh2rTAREAcuDQY8MFjLjlegzmERT7wiw8Bh7n7njto+8MQn0NoJb+bXMTi/HksapHMO9eis6WNiiePBfMLyuFDJxA7hkVFNVIUxdiyXFi+y85X3GBR9owrLmmkMvi7wXQgrbJI/nwzUJRIcrgSI2gOLCFylBAO0QrHablFfDnPaeqIRQvV5LQVpzifg4+oN7rxfJa6V+PkInxp902aT98dPw1AUH+UQvzQjwKIJWJVnuX0ee1kGxwusz406defXhAwSw5VDTjAWw5EEEOdYaKItBDbTSx20nMgzoACEFxo4V2Gcx4xoyh65N0uOHDSJsScLVtOkPd6IEycWaqsMsG/2XC7yk8jV1pVY0tD5JOp9ui02smiSb/+9Fo+L01e/4ScZLkJuHLqSFzNtZBULVYkz23fXWH0p5lw6bMniTFHmY+Cjj+47hWXPA5A2H7x1RRjVWdaHlIdILPevnmqsQ2b9OtJXx6N4UoxI4ZUfi9KiVfOW2qpuSKVd6HKLc1JVguFhifNS48ENSk2aVJdS6JBB2F2QnmtzO/UbbRTtfCa9CefQkvPfXWQWXUXoVwha5TehZIwYzLppxj53QCt+VdX6xArB+JbedHkmjB9D2ijpK9UZjl5PvKrMrCUKgtpeV4DYo4ri5jVXGEra/gm4uOGxOga/jFr+ses1plMlJJG45aRkeZNq6smoSHahoSNeT9Za68aABiDZdrDTJPSrJI13DeYGZPX11aTCqMFn26ISL8XblzUldnJkUyGrq/fY9J9VrevQlWk8RnW/1pNC5/rqM3USn+gPzRsSkteRqdRprnOsH7fioz8rbXb2bKrV0NY6aKUxbSTLJXfRnq3SV5+G0grTD2mOrYhp7fu64ONSDSRug022jZrk5QhLSGZuOyRaSdZ8hNV5XdAwCzHfBeTiLNZtAi0/Ax5nqf1WVY5Nw2RavnLtLbBelGT9BOvsQnkW45VlzVauQdmGl+psXz5MnAF5hZRfwRrfZ8b7/gXLPWeYNv5XXxrgVznS+emK1ciSK0NprstTv7Fml5rxQZfPysIGeAwKVB3jBieoWg9ic19g6XsC9zwwR9jzxXPI7PfYev2BUzmERkse7G6YddgBKMDhXGvhA1ONCh92BiR9+27gRtu/hm09W3eufdt0HmaPPtr3vzjF/H2d/44XX0OcT3yolemXd5gDUaxEsk2CdGS46aLuBwR+MTH78V3nuPWO9+OtI7R0xfJZhaY296D7AitThelh3eOEDwzMzMEH8aMRBucLDZ4CxppDWgO0kOty9zcDL1eJLgZMr8db7vIu3O0wk6ueM21mHp27NiNRqW7tISZ9SeeG6wfG5xoAIJZQeQYN++/mWJxNx/90O+QFa+gHS/j4Xv+mE8f/DwfvfO3ee57Qifs4qKLf4B2Z5bOzAwi1Zq8BqeCDT4FNcyQ3/nt3+Xvnvse8ApCvJQH73sQl7+SpWIb2dwOgpxHpxPpdXv0ul3yojeyo7vBerGBiVZ3OgbQLTz9naMUFqCY5Td/7Q+JC3vQPDA3s4v5I0vsft3Lmb14C49/9auICEWMtDK/UiYN1ogNTLQKgpMUfkkto+VatLeez9HnocMeLAi9RWHPRZfhXcbxY0e55NJX4IPn209+k+7SUmOjnQZsYKKVa6kkLaoTEYJ4YszIF6HTmgERTIStW2d41atey5EXX+TJb36NdivD+4wT8/N0Wu2zXI+NgQ1MtBR7QkthZFotWw4YQq9rvPn6t3L06FG2bd/OoUOHePKb32DL3BwLSwuows4dO5mfnxwav8HasaGJpmZDy4GSp18pYkHUyP/7w89w4fkXkrVaLMzPk2WepV6XNFI15ufnS7I2qvNUsQncG8MQccx2ZoiqvOpVl7Fr9/m8cOh55hdPkJYKpeuqiDsNyU4PNiHRUoSduc4MGiNPP/VtFpcW0kJSTbvIpDlT8rRjUxGt8oWpGc47vvPtJ+nmPbbObcWJK9Ws1FZvNDhd2HCt6UT6geEAqvV29eB0ABqV2dktOBFiP0jJ6Jr4RrKdLmw4oq0V1SChkVxnBhtu1LlW412t5mejkV4vNTZdd25GkWcHG06inX1Ifyp/dD29k8FiwHpk7M2AhminAXWncJ1MQop/IeUAZePvJZ2MTac6Tz+WL1/W2kDDu4CZYFaFfRoTnmAToCHaKWJ4k7VDJMMMIj0KW0ItRyQdczO8b+h0SbdTj/R0JtAQbd2Q5OTFcCL08oIdOy4A2hgek0VUjhNZwqQgy6TcwxCxFQ9pPRm8FMR9adAQbZ0ws76j1znHti3bWVw8RsFRNDyHtp/ihn3/BGt9n+gOU/AiJvMgBec6KV4KNERbJ7xzBO8JwSNOOLEwD36JV17lyVtf4KYPXc/Mnq9z4WXz5K3vkvunUX8Io1u7y6naaTLh73MPzahzHTAzomkp1QpEPDPtLVx6+S7e+rZtvG1bhxPF4wRp8VM/+yN84v7f4qb33Yku7OCTB34PsVlGY/asH+c2wSo0Em0d8M7jyhGlk0CnNYOZ8cQ3vkToHEL937Fl2yySOaz1Iu+7/e0s2bM8/J/uxiRFvZ4Oepw+NEQ7aZTBg8Uj4slCGxCuuPJ1tLM2nWwXTs+jt7AT8l1YDJgZs7NzdHs5g3gem8tSa4i2KqT2zyFIuTgyvV/zhutQVf76G39F0W1x8Jf/Lx/95c/x0C99Blm8nFZxKZ+8/39QLGzn9lvvRqw6d2tzUa2x0VbB8pBVSaKlE32FWEQ6nVmOnXiBVquDjy8H3Uo3zvHIA7/Hjfv2ogt7+Ng9v4W3HXh2rZjfRl06LtsuvdEKefnZLsc5iyrOfv0bSC6NxW4XVbj+R/8B3ht/8fk/BTEii3T1RWZnMvIcUI+jhZDhrAW2efaK7taHgUairRHDEkbNaGUZ17z29czNbUvH1+RKUUAIAUcHejO053ZiMZKauRwAbDxhtSY0Em0iKvfD8lCaZtVhbOl0Gu8Cb7zuLXgX+PPPfRYR6HQCedFFNZZxcidF69/YqCRaMxhYMwaT4fVFks4Jaspjj36RXt7j9W+4jmuu/SGuuvqHEAs0Z4UnNKpzIqrTQOrSqE4a7Uu7tFe0x6Nf/DMuu/xKnnji6wTvcK4WzXqTo+lupwFJwqVZgieeeIw3v+X6dIBcGXB5s7kyxqEh2kQkz1k6rkvL91i+inIFRhlCWZJPrZW1aLfafPWxR3nd1VenVbTNEeFAozonYvkU0STJNNjcIuJY6i0hInz9sb8qk222yabxaIh2mpBCKCit0CLG6lyWMux8g4Zopx+y7K+1HvqwkdEQ7bRjeNVrQ7KEZjDwkqMhGTREa3CG0KjOU8bw9JIOBf5bacQ5eh7mxkYj0U4Jg5VqRlrRUUUrCj6NOKtNw26IdNOze+l0oSHaBEx2s5aE6Ttik//MieCcBwIijsIWUBYxibWwWadyPtx0oyHaREx2ziYoiKLlJpUU3C9DpIOJYP4EZMfwIc0ppOhYVqYzEB1z/42LhmgnjcnB+pw3ojuCZc8R29/i3bf9NLsvbqP+BF07RJSjmMTBbIE0RGuwIgRHAPM4ERa6iywsLtKLh3nZq5fIZ/6Cm+66Ht3yl3zvhT/DOs/R9U9ShGcwyZFyIWTC5iBbM+pcFwS1asucMNeZQbzj1Vfu5Efftg3mZrDOd1HvefdtP8kn7v0N9n/gZmxpO5+4+zM1J66yWfr65qjlaYYZmAlqDucCC90lVHO+/KU/YevOeXznML3YxVwXa3+HG+/8GQo5zEMP3YdJgUlaBbKZBgQN0daBFJDZMdOeIUal02rzuquvYueu8yi6bSzfxeKRbcTu9nKfwFKKj6blnlCS8h13unF1vsFGi6XWEO2kUZFDWVia59o3XkcWAo995QssnhA+9it/yMMf/hKfPvAl4ouX47uX8vF7fxNXbOfGvXfgrJX2dlavMYOLehTxjYLGRjtJ1B9/VCUWhpnDiUeYgzgHcQcaj/Kr9/4+++54L657ER+9+7/h4i68XQLlZmTbRKqz2QV1kqgUX1rkWIAFrv/RHyPaPF959HPgCpActS6LveN4b3jnMA14ZhHbglhWTlUtJ9m4DcQ2EkF8mtDs61wn0oGxykynw+WvvZqtc7swBbMAGjixsIj36RS9TtiNmKAFOBzgynNDJ29YGbdLfRoJNoqGaCeJtKdT6PW6PPH1xzBzdNozvPFNb+IHr3kTX3n0C+UOqLQ7KmrEY31ybdY9Uc1gYB1w5bylSNrXGWPOZ//0jwm+xXXXvZXLLruaK6/6e2zZeh5mHjNHWtZdD5a8udBItHWhUm+KmMPUaPmML37+c/zgNW/gO3/zJMfmjxK8gAPvTk/IvWlGI9HWif6IUQYrMaJGnvj6Y7ziB16VpJ13/eVCmx0N0U4R9UjbnVaGiPHdp57kyquuLvd7blarbBiN6jxJjC5ZrLYYi1QefVg4scAz3/12/+pGnjVEWweWUw106LS8Viuw1F0or9g8TtmV0BDtFGFYLSot1N1gjTwboCHaKWN5BLUGy9EMBhqcETQS7TTBiVu2tKdRnQM0RDsNqELCiwx8ZmZWjkgbQEO0U0a1gLESZiKOzbRydq1obLRTwCDsqKDl8m6RDDVQ6WGuV26r25zzm3U0RFsnpFz205mZ7TtqwROjT8dbh3kknEBc8rWlhZEr/9vIhGyIti6kxYlFjBw9dqR/bicSUXeEJZ4ibz3Ju/b9I3J3iOhOUMhxVJbKkKTLj8ceHES2McnWEG1dSKcOZ8HTzkIZfVuY2waXvz4g2x9l7y/9MDN7voHf9jTafo6ePAP+RcTlK9x345KtIdo60N/6W4ZCMDNm2jP8wOUX89Z/+Er2feCn6bm/4XjxTd5x0z8ml79h/53/ivfs+1kiS6vefSOSrSHaupBI0G516OWxfOV8/WtfYMfuHrn9LaGV0Ys5YcuL3HDbT9Jz3+KBA/sx6a5y73T/jUa2hmjrQnJdHDt+nLnOVrZv2cm1b3gTGj3HjoDXC7Hey6A4jzzPmZlzQC8tsl3V7TFwjWwcmjVEWxcSDZRWq8VV11xH3jP+8oufx9tOHrn/sxz8wGd56MN/woxdQzyxiwf/46+i3Z384h331c7rHH9nK/+v/m2UUWnjsF0nqsB7ZkbWarFwYp5QZIi8DJjF9xb5xD2/y95b/i2z/go+9dDvY90tiO2p3WH5PcdLvEqRTu9Mg2y79CaLzb7OsVhtrtJJIC+EH/7hv4/zjs//+R+hvks3HqPVsRRjQx1iHlHBWYazDmJ+zfOgw5LMpo5qI/s6p1ckv3RYOfynGbzmqh9kx47dzJ9YJJAR1Zib3Ur3RA+vnqiGWBvB48xq53VuvimqRnWORf18gOWkcOJAHN98/Gt4l5EXkWvfcB1vfOOP8M3HH2dHZw9qXTwR7ae1tJfljNbj3EEzGFgHtPSfqSp50QOMrzz6BQCuvvaHeO3rruWyK67GS5Z2DOsoydZq2I9eM70DgkaijUV1rt2khyr9KNspVprinOfLj36ey664kmeffoqi6BG1AGKVYuQOq9mAo760wadpXOfWSLSJ6IdzgXICnX78DCkJBtWO9SpUwveeepJXv+Y1HHvh78hj3g9XW5nxddfFaqhWtI3+m0Y0Em1FVFJkJXWV6GhAq9XCh8BffeVLvP4tP8bXvvrlRIsqNnL/1GJjbSqwZt/1o3ZMq+qUiMpKE70NVn+4gohnvrtIsVDgg+PLX/xT2nNz5ebiSuXVBxer2Vv1YMr1Acl02mkhsoj5xbNdjnMUdTUlK5lTGEJo0Y8c5LaAuYXBJSKYDhNmlC7LTjVwVZr6r6unm1jIs4jQmu2Ru+NntRDnNuqSZMyvI2c/2cjR1pNSCyxjyFoOK15furMoBXvpLZAdRv1aVhRsVqxMtCH0owbVyLfKXcd+X9Oaa5VeQ+lqXw7GqnJW/XhBWi8i4cRZyv4cxzLxMengsPJXWU60k360I5ev+XCVMdnU0wrSF31ng2xBWkdw2XQOmV9y9Ik2KtXGTyGlyEGjeztl7U+22kk1mstq6UfSjUKspjrP0qMOyhHU9fpfDIzP8RA3Ehd/levXkr76bi33Gk2/njKstTxgmOmyGLI2IdBxPVZaSi0gJ2cfjYbsWxPRxqSrFykJskE5zqxE2wJAQE4Ag1GnrSKrR8c8q12/lvTVd2u51zif1smWYa3lSTxZrgb7Mc+WFWUcAddONOeSHVWPwr0WB+1ouqHI3hXJbFAn+rMap0e8ycj9Uly46t4V0awAywFBTAiVHh/pSlaqERMdjKxGpHGtDhOx7DGUnd4UvJVTNTba92zQs6XuXV9+zzECbzh/G07TL3uZgTfBma81VE1CSSKiI+1l6j/Lcn5lLO/GSr4xBbcUuTuFKpV00mL1wMo69+su9fIMZ1zxalnfq57VCNGq68Skb8dJfxg7XFATA7FlZejfe+i5DRcgiAactsr1Uh4pHJnLiL0irVIgFcwE1CnqYnpJgUpE3OCBp6kYykZa3r5VYZYRUx3OHE491jMy1yobvXIZpEqqU6IWKf8yyqKWjV3dSzX9PSlsbL+D9wuUyO3UIeqxniO4dmqLqk5l51KnFPRQF3ESUVHKftFvWiGVoSK82jD5h1wRQvlgU/0pAtoTMtfG40EVsXQuqImm+rv0bqJY+V4AzpEmD+qTCP1yST9vE+vPT4iUk2palkE9LgacesSEVmhRxAIw1Bkqkehy1EVAy++gbyGU+Y+bJQ5Z3i4rKjj1vPfn92I9I7hALGL/QauAivLIpz+JunRwlroC9UX5IMpcxIY7slQPs3q6pWIqG1jUlxVzSHTsveFGLDeCeLSI+BAwDC0f9Cc/9XDK30WiFINGn5Q/STqYppxF3EBal40rVi5OLBx7b7gJyyFIRiwiIbj0cESJLvJIPX9yLCQpLy7lb6ZDcqAimZUdoDLMk3DweMsQDWX9fcq/ZwQJaFHgxRAUFSM65ZFf/2QinJQdLihR0oOX2rhjVOEbldSqSWJzuEJouzaag1fPe961F0/A4/qENTEisV//6ApUikT6oERiqlt/5ny5rpF7HvoVU0mN43E48xCFGJUsa6Vd2FIujRFNDWwFiBFdwSf/yyPEsuHVRaKkHk8pBawS41EQS6QiJhXhY8Z73rGXFi2Cy4g9JUgGKsRCybKMvqIsJYtKxFyEsuIP/+dHiC5irkBdQZTU40xiv9XFJOWvAacBiYlYPgbe/Y69ZLQIIRB7kSChzD+ShWxYEki6b3ql+t91739gzyXnJwlPTkE3PYQh6yrl79TjNAzV/93veF+qv6/yT0uLtIi0QpakWjV5JQq+bANRCh/5+KcfpnCpTUxiv+Nrqeb68syS1HYakFJi+Zjxvp+7CckdQQLOHBKFzGcsLS7RarUw05H2r56rUviCj3/6YxS+SN+5WHbCdB0C533rotQCBx64zyDpaicOzBFCRq+XE7J0lEyfn2KYFeVIDMwbuS/QYIiH6Ao+9siDSdKJ9skGUqqmwL/7uXfjNFXKx8Cc24L2FItGpzPL4kKX4DOiKu12mzzPB1KKSnIpziXiF8HQoJgzdFn+1idaRfIb3vlevHpcSbQq/6iRmc4MiwuLBB9QjbTabfK8qNmnBsT+fVUiXd9FvZZmRcEjn/pEKfGrurtSepf5/9x7E+H69d+KdQ2NkU5nhsXFMv8Y6bTbxLyo2VtpeXh1XHZ0StcVFCX5ooulxolDEh6Tvsa64Z3vwZemSqYtsqKN17S2wmI6TmjUwVJfgVI2KEZ63l3f7RNtNH8TY9v3dqUkB+9/wMq0JdLq0aiKD75vz1RDejPFSaUCkkqrBgcq1WBhMGDojwhNkh1mqTdRGp9Oqx0+Vd8ro/MwGIBUBmgyABQMvFTXpDyqv7WuRktpUjdynbm+TSTlA6iUy/LRa9mTa6ogqUbD4UuTQst6L89/kLbcx2RlhzNXfi7NhoHMGhocDpscqVXKWvfVoZU/V88hulhKs/IGNQPdlfm7flukMgigpogrjwgqdXA9/m79dO5+mcr6m6R1xEmlJ9vNSBLt1z7yawCEYctY+kai92mHz2jTJ6lHSZQ0Uhx6NEMPa+ThGcnoHTIVBxUZ2O9Wu8T6r2TIu37DiYGrlb3McXmj1IbHfVr3rfJa/jZirAOYDbk4nCTbTnCIgohL2zXH5F99rqvwIedpLd1AiIwbwQzKD4N7OKBvjVMR3YaqNppTVQYZ3BAjhXjol1VqXUsG19ULWpHNm6fcsIrFAeHr9wAIfc/1UP3KYW/5/WgvAxlbmVJRjd4qcVkVEZd64JBTdOT66tuRwUS9ySraSa3XDggzuJuN1EvKXmqlRpuIWoX7WVTD+b7EHeSfCN3vIkPlhCp2WkonQw1nDCzuVOnlLsHlI7jK0zeiirBS4q3kVuy7RKy6U01aU5bT+gNixGxAwHo7VzeUQT2r/2WgjvroL3ysJApYIoKUo7VK/EoasSEM+aKckyHHX5KINVL0/RnSX4W6llUKZQpE0sCkP3tQb7RaZQffDEu0Qb0Y+Hlk+D7DeQrLnuyoXKg6IPUHsnoCTNIAAAONSURBVLxg/d9qEnX4Ihv+0sZkvSyhjCm/1d5XYBmjbTbp+pI05UBwWH1Xl6Taj6Ye1hYDhHpGBn1DGEBLyVOXPQPrIJ2SWwU5MTOcK6Md1vKpTtPN8yIZmqV31myEkJXhPtQaZR+rpJ/U/fjL+/mo806EmgSpkgx63lgsc3RRPtthog9NSw2p3LooltrfdRVcSYX6/Wvp6twbUaUymnZ811sBI6bNKr/XlcKg5az2+/ISjcOypdw+eCzXRBw/0C9Vhavpl3RuZYF3KW5r1sro9Xq0WhlmisZ0XV7kBD/IRlzqDM57YlFMDMUpZSioSs2aGjEOXBbDz8VGvqw3TP1rGf3l5DHu+fYxrn8PEozpGhPTVZtfxp/VebLkWin9Kr+Pk7IiQ9esZQZwiGgiQrfbRURw3nHLzbeQZRndvMvBBw5yy75bOPDAAfbt38eBBw5w6/v38eDBj7J/360cPHiQ22+/rdz5Q7p+/y1457n/vvv5hTvu4N577kGjsm//Pu67736885glp/Cyh1BOlIsTfuInfoI8z2m326vX6JzCZGqtFX/wf/5gwh3WQ7DTiZPrrH2iiUipJtMNYhERJ3zkIx9h3/59hCzDMG7Zf0stK2HfvvS5WuXw4MEHh37/yEfuQZxQFDnvv+02Dhw4kDIOfnjVxYR2ExGcc4g4YhFPqnINXiKsg+NDY6/R5Tb12filpSUOPnAQYPB+8CAi0iePmZKFjJtvuRnTNFp5/223poyco4g5t9xycz+vgTq2ZbZIHSIOEcEHnzrDJnptFAxmp8oHnYWsP+rMQpYqLIJ3jlvffyveefbt34e4ZOBHHUiZqJG8yPuT8d55Hv54CvIxNzvHXR+6C9U0pdFut/v2RzVgGAcRh2qk3W7jnCeEDO/DpnltFCzzJnW7XXp5j1YrzdzfftvtBB+Sm0Ej9917H4ZRFJHgfTkYSPDOs3//ftS0T9z37H0PIsLxE8eZmZnhvvvux4lLtqCbTLAKqpGiiKjGvuQz003z2iiQA/cfWKazKnutKCJZFvquCecdznmKPF9VrFcujcpVkoWMVqtFt9tFzQhhQNCVVsgWMdJqZeR5QQi+P5rdLFitI57rOPjRZGYtk8391ZKaJlg1ajnRChoHbou622EcjJS+SgvQ6/WSGj6Jxgve98tQqfQG04cm9kaDM4JTsjZPZVPIqaRtMH1oJFqDM4KGaA3OCP4/adFdcI322MMAAAAASUVORK5CYII=;labelBorderColor=none;" vertex="1" parent="1">
          <mxGeometry x="-787.6999999999999" y="-1047.5" width="35.4" height="40" as="geometry" />
        </mxCell>
        <mxCell id="ZXn4HNvfn6RSKJ2BFfuO-28" value="" style="shape=image;verticalLabelPosition=bottom;labelBackgroundColor=default;verticalAlign=top;imageAspect=0;image=data:image/png,iVBORw0KGgoAAAANSUhEUgAAAJoAAACuCAYAAADOFBSsAAAgAElEQVR4nO2da7BkV3Xff2vvfbr73jtvjaQBSQiDJBCyJCAWNsjEqXLKVSQpP1KpVIiTVIGJFWDQY0ZIsiMwiomFXjNCgFBsTB6O7cQf7EpcFZOquPyowhiDEViAEBYGgSRbaDSa1310n7PXyod9Tvfpvt333rkzmpm+9/ynevp299lnP85/r7X22nuvLde/5d+b6m4anH4YgAw+CV1EjoN0y6/amG3DaKdrkfJyqd9hqvHsMwcACIW9jGgXn+XibFBIIkqMOW3vge+D+1vEHwJA4/movpKou4kigOBMEJPaTYyNQLigtgVl+9kux4aDiIAYhuL8IoUeZmbmBB+660acfw4AjRdy++3/E3FbUd1KCFuxIgJSo9b0kwwgIBEsnu1ybDiYgakiTjEOkbUf5xfu/Jf48F1+6YO3AHDXXQe4++6f4oMf/A1UXwd5GGhakeH7ndnin3YEMBA92+XYkHAYpkqW5ag9Q7tzCMcCngIALwu41vN49xyBVxNVwUGlOa1mq5mMz2NaEDaKDXCuQszjzKOmOANnHSRuAQQXZ0EcXiGaQ/FghpXEGibXdD+jcLYLsPngylf9s9Sk1zjRJWwAoqXRToOXAoZJRCWC86g4lC7mloCIui5GmygeFUNF0yCicnPY8LOZZqqVEm0S0aa5amcfJoAZahmiF6DxAtQfQktDX2kT9UKiXYhKG8OgJtkGT0WGfplGyHVv/pRFu3TCz439dmowBMXJEuhhvP8eH777n+PccwgR1T38wi/+L1RfidlWoN338g7bZ9NLsUPPvgtobLQzAAGbAfag6rnzzv+O888jZqiej+pVqJ1fv3oMpr+zN0R7SZGMfDVIfovzKXozIDmJgBnI3FCKaXdjTEJDtJccgkll1AdEtmKU00xOMesBG9+P2RDtJYYNqT0FK8rvpdSI068W14KGaGcENuYFA9fSBtWXNTREe4mRKDSOXJtDklVwq1/S4PRg80mxOhqJdsYwrk9vHrI1RDsjmDR/uXnQqM4GZwQN0RqcETREa3BG0BCtwRlBQ7QGZwTBGWlmZHMNgjYZzr5zOPjCcKbJdz2GbCINA6cbNvJ+dhB2tFsQs5Fd1QM0RJt2jJtjPXN4tnwPM0WXUCxOLEJDtCmHnF2iVQgXtBxtmVyAhmfTjnOEaDusyxadn3hBI9GmHecI0Xb64+xwk8nUEG3acY4QbY5n2GbfL8u0nFSyAgkbnOs4N0gGECx/Cikj2IyDaEO06UZFspX2JQgD3/2wO0Rqf9ddYG6Ityvtsk8IrnUIZ/MTL2xU5zTDRkadk+DAWqTnr4AiaD94lpTpDShcuc1GBbFEPKsWcq7g9Q9bL4C5Xj7xgkZ1TjtWkmjVs/WgvvyqB6JlMEApKWSIKSpG4dIy9KBJqvV3eJljrER7Jr2FxdY8J/yRicVsJNq0Y5KdVltSbj5JNIngjoMopjNgGYJDMJxFTIxCSEQklurTg6WrxgvNpJLDsdntRNXJDttGok05TpZobdLk9wxmgSTVUmgHMJLJXn0GzCMkNTqeKYcBCIe3vIYj5OgEFdtItOlE9dxcSQzEhp6liOBcqS4JoG1S6MBeklbigKQfo0aKGDFN1lgQjxOPSBWCa5I0A/jfKb+XXX69FXRKo25MgRuJNpUwTeQyS5Koeq+QSFIR0iO08S7DzIhxAeePE4vn8RwCadHTl6O6FYuKmEsvXC2u23jscN8GIBxduoxCLmzmOjckSnUpw2pTbTAwMEtDR1VIXzt8Nk/kCebmnufXP3YbTndww94/gnAlJiAmOPN9sg7yGoPFkmjOX4i4iyfysiHa9GGgNqWcq05Eq743s/RCUI2oWWnYO/KFRVrtFh++5wOct/2rOH2UoriEGLfQnn01h48fIQuhz10zxcnw6Qh1bCnfA9YFXZpYaGvW4E4hKjeroKpgA6lmagQfiGp4H/AOtCiIhdLOZti2+3ywp9huf0Rr/s/I2l3UdtBuOeaPHyVDyVzERDEUyvsnabiCH23PBReSywUjXw88wcnWO/srNBusDyJJwokYLh19gA/QK46jWmCaoSqYHgcWEDlGW56mbc+wc+YporYwd4wLzztBQRelAN/mxFJgbtsFxDwvOezG0qz3nfQe2iHDkY25xDAxzIFJRbyGcNOCahBXqc68yCnynHxhCdXDvPwSpYhdYr4DbAEn38DJYcwcnexbnH/BlZD3mPEdpPcC2zuPsRhfICenxwV0Zt9AXmxNalPSjMJKA4OgecQYPtAirbYtw5D7kmAy6odpcK6imgdQjZgphhFaGa12h62zW2n5Dv/mX78VH5b4+EP/lcwf57b9/4wQXsDUsPi39PJvkXEFvV6LpcUOP/+uf0pn2yVoBofnd3PvgccAiFhSnzAyOBhGePbZp4ljD7RIRMNVkqwh2rTAREAcuDQY8MFjLjlegzmERT7wiw8Bh7n7njto+8MQn0NoJb+bXMTi/HksapHMO9eis6WNiiePBfMLyuFDJxA7hkVFNVIUxdiyXFi+y85X3GBR9owrLmmkMvi7wXQgrbJI/nwzUJRIcrgSI2gOLCFylBAO0QrHablFfDnPaeqIRQvV5LQVpzifg4+oN7rxfJa6V+PkInxp902aT98dPw1AUH+UQvzQjwKIJWJVnuX0ee1kGxwusz406defXhAwSw5VDTjAWw5EEEOdYaKItBDbTSx20nMgzoACEFxo4V2Gcx4xoyh65N0uOHDSJsScLVtOkPd6IEycWaqsMsG/2XC7yk8jV1pVY0tD5JOp9ui02smiSb/+9Fo+L01e/4ScZLkJuHLqSFzNtZBULVYkz23fXWH0p5lw6bMniTFHmY+Cjj+47hWXPA5A2H7x1RRjVWdaHlIdILPevnmqsQ2b9OtJXx6N4UoxI4ZUfi9KiVfOW2qpuSKVd6HKLc1JVguFhifNS48ENSk2aVJdS6JBB2F2QnmtzO/UbbRTtfCa9CefQkvPfXWQWXUXoVwha5TehZIwYzLppxj53QCt+VdX6xArB+JbedHkmjB9D2ijpK9UZjl5PvKrMrCUKgtpeV4DYo4ri5jVXGEra/gm4uOGxOga/jFr+ses1plMlJJG45aRkeZNq6smoSHahoSNeT9Za68aABiDZdrDTJPSrJI13DeYGZPX11aTCqMFn26ISL8XblzUldnJkUyGrq/fY9J9VrevQlWk8RnW/1pNC5/rqM3USn+gPzRsSkteRqdRprnOsH7fioz8rbXb2bKrV0NY6aKUxbSTLJXfRnq3SV5+G0grTD2mOrYhp7fu64ONSDSRug022jZrk5QhLSGZuOyRaSdZ8hNV5XdAwCzHfBeTiLNZtAi0/Ax5nqf1WVY5Nw2RavnLtLbBelGT9BOvsQnkW45VlzVauQdmGl+psXz5MnAF5hZRfwRrfZ8b7/gXLPWeYNv5XXxrgVznS+emK1ciSK0NprstTv7Fml5rxQZfPysIGeAwKVB3jBieoWg9ic19g6XsC9zwwR9jzxXPI7PfYev2BUzmERkse7G6YddgBKMDhXGvhA1ONCh92BiR9+27gRtu/hm09W3eufdt0HmaPPtr3vzjF/H2d/44XX0OcT3yolemXd5gDUaxEsk2CdGS46aLuBwR+MTH78V3nuPWO9+OtI7R0xfJZhaY296D7AitThelh3eOEDwzMzMEH8aMRBucLDZ4CxppDWgO0kOty9zcDL1eJLgZMr8db7vIu3O0wk6ueM21mHp27NiNRqW7tISZ9SeeG6wfG5xoAIJZQeQYN++/mWJxNx/90O+QFa+gHS/j4Xv+mE8f/DwfvfO3ee57Qifs4qKLf4B2Z5bOzAwi1Zq8BqeCDT4FNcyQ3/nt3+Xvnvse8ApCvJQH73sQl7+SpWIb2dwOgpxHpxPpdXv0ul3yojeyo7vBerGBiVZ3OgbQLTz9naMUFqCY5Td/7Q+JC3vQPDA3s4v5I0vsft3Lmb14C49/9auICEWMtDK/UiYN1ogNTLQKgpMUfkkto+VatLeez9HnocMeLAi9RWHPRZfhXcbxY0e55NJX4IPn209+k+7SUmOjnQZsYKKVa6kkLaoTEYJ4YszIF6HTmgERTIStW2d41atey5EXX+TJb36NdivD+4wT8/N0Wu2zXI+NgQ1MtBR7QkthZFotWw4YQq9rvPn6t3L06FG2bd/OoUOHePKb32DL3BwLSwuows4dO5mfnxwav8HasaGJpmZDy4GSp18pYkHUyP/7w89w4fkXkrVaLMzPk2WepV6XNFI15ufnS7I2qvNUsQncG8MQccx2ZoiqvOpVl7Fr9/m8cOh55hdPkJYKpeuqiDsNyU4PNiHRUoSduc4MGiNPP/VtFpcW0kJSTbvIpDlT8rRjUxGt8oWpGc47vvPtJ+nmPbbObcWJK9Ws1FZvNDhd2HCt6UT6geEAqvV29eB0ABqV2dktOBFiP0jJ6Jr4RrKdLmw4oq0V1SChkVxnBhtu1LlW412t5mejkV4vNTZdd25GkWcHG06inX1Ifyp/dD29k8FiwHpk7M2AhminAXWncJ1MQop/IeUAZePvJZ2MTac6Tz+WL1/W2kDDu4CZYFaFfRoTnmAToCHaKWJ4k7VDJMMMIj0KW0ItRyQdczO8b+h0SbdTj/R0JtAQbd2Q5OTFcCL08oIdOy4A2hgek0VUjhNZwqQgy6TcwxCxFQ9pPRm8FMR9adAQbZ0ws76j1znHti3bWVw8RsFRNDyHtp/ihn3/BGt9n+gOU/AiJvMgBec6KV4KNERbJ7xzBO8JwSNOOLEwD36JV17lyVtf4KYPXc/Mnq9z4WXz5K3vkvunUX8Io1u7y6naaTLh73MPzahzHTAzomkp1QpEPDPtLVx6+S7e+rZtvG1bhxPF4wRp8VM/+yN84v7f4qb33Yku7OCTB34PsVlGY/asH+c2wSo0Em0d8M7jyhGlk0CnNYOZ8cQ3vkToHEL937Fl2yySOaz1Iu+7/e0s2bM8/J/uxiRFvZ4Oepw+NEQ7aZTBg8Uj4slCGxCuuPJ1tLM2nWwXTs+jt7AT8l1YDJgZs7NzdHs5g3gem8tSa4i2KqT2zyFIuTgyvV/zhutQVf76G39F0W1x8Jf/Lx/95c/x0C99Blm8nFZxKZ+8/39QLGzn9lvvRqw6d2tzUa2x0VbB8pBVSaKlE32FWEQ6nVmOnXiBVquDjy8H3Uo3zvHIA7/Hjfv2ogt7+Ng9v4W3HXh2rZjfRl06LtsuvdEKefnZLsc5iyrOfv0bSC6NxW4XVbj+R/8B3ht/8fk/BTEii3T1RWZnMvIcUI+jhZDhrAW2efaK7taHgUairRHDEkbNaGUZ17z29czNbUvH1+RKUUAIAUcHejO053ZiMZKauRwAbDxhtSY0Em0iKvfD8lCaZtVhbOl0Gu8Cb7zuLXgX+PPPfRYR6HQCedFFNZZxcidF69/YqCRaMxhYMwaT4fVFks4Jaspjj36RXt7j9W+4jmuu/SGuuvqHEAs0Z4UnNKpzIqrTQOrSqE4a7Uu7tFe0x6Nf/DMuu/xKnnji6wTvcK4WzXqTo+lupwFJwqVZgieeeIw3v+X6dIBcGXB5s7kyxqEh2kQkz1k6rkvL91i+inIFRhlCWZJPrZW1aLfafPWxR3nd1VenVbTNEeFAozonYvkU0STJNNjcIuJY6i0hInz9sb8qk222yabxaIh2mpBCKCit0CLG6lyWMux8g4Zopx+y7K+1HvqwkdEQ7bRjeNVrQ7KEZjDwkqMhGTREa3CG0KjOU8bw9JIOBf5bacQ5eh7mxkYj0U4Jg5VqRlrRUUUrCj6NOKtNw26IdNOze+l0oSHaBEx2s5aE6Ttik//MieCcBwIijsIWUBYxibWwWadyPtx0oyHaREx2ziYoiKLlJpUU3C9DpIOJYP4EZMfwIc0ppOhYVqYzEB1z/42LhmgnjcnB+pw3ojuCZc8R29/i3bf9NLsvbqP+BF07RJSjmMTBbIE0RGuwIgRHAPM4ERa6iywsLtKLh3nZq5fIZ/6Cm+66Ht3yl3zvhT/DOs/R9U9ShGcwyZFyIWTC5iBbM+pcFwS1asucMNeZQbzj1Vfu5Efftg3mZrDOd1HvefdtP8kn7v0N9n/gZmxpO5+4+zM1J66yWfr65qjlaYYZmAlqDucCC90lVHO+/KU/YevOeXznML3YxVwXa3+HG+/8GQo5zEMP3YdJgUlaBbKZBgQN0daBFJDZMdOeIUal02rzuquvYueu8yi6bSzfxeKRbcTu9nKfwFKKj6blnlCS8h13unF1vsFGi6XWEO2kUZFDWVia59o3XkcWAo995QssnhA+9it/yMMf/hKfPvAl4ouX47uX8vF7fxNXbOfGvXfgrJX2dlavMYOLehTxjYLGRjtJ1B9/VCUWhpnDiUeYgzgHcQcaj/Kr9/4+++54L657ER+9+7/h4i68XQLlZmTbRKqz2QV1kqgUX1rkWIAFrv/RHyPaPF959HPgCpActS6LveN4b3jnMA14ZhHbglhWTlUtJ9m4DcQ2EkF8mtDs61wn0oGxykynw+WvvZqtc7swBbMAGjixsIj36RS9TtiNmKAFOBzgynNDJ29YGbdLfRoJNoqGaCeJtKdT6PW6PPH1xzBzdNozvPFNb+IHr3kTX3n0C+UOqLQ7KmrEY31ybdY9Uc1gYB1w5bylSNrXGWPOZ//0jwm+xXXXvZXLLruaK6/6e2zZeh5mHjNHWtZdD5a8udBItHWhUm+KmMPUaPmML37+c/zgNW/gO3/zJMfmjxK8gAPvTk/IvWlGI9HWif6IUQYrMaJGnvj6Y7ziB16VpJ13/eVCmx0N0U4R9UjbnVaGiPHdp57kyquuLvd7blarbBiN6jxJjC5ZrLYYi1QefVg4scAz3/12/+pGnjVEWweWUw106LS8Viuw1F0or9g8TtmV0BDtFGFYLSot1N1gjTwboCHaKWN5BLUGy9EMBhqcETQS7TTBiVu2tKdRnQM0RDsNqELCiwx8ZmZWjkgbQEO0U0a1gLESZiKOzbRydq1obLRTwCDsqKDl8m6RDDVQ6WGuV26r25zzm3U0RFsnpFz205mZ7TtqwROjT8dbh3kknEBc8rWlhZEr/9vIhGyIti6kxYlFjBw9dqR/bicSUXeEJZ4ibz3Ju/b9I3J3iOhOUMhxVJbKkKTLj8ceHES2McnWEG1dSKcOZ8HTzkIZfVuY2waXvz4g2x9l7y/9MDN7voHf9jTafo6ePAP+RcTlK9x345KtIdo60N/6W4ZCMDNm2jP8wOUX89Z/+Er2feCn6bm/4XjxTd5x0z8ml79h/53/ivfs+1kiS6vefSOSrSHaupBI0G516OWxfOV8/WtfYMfuHrn9LaGV0Ys5YcuL3HDbT9Jz3+KBA/sx6a5y73T/jUa2hmjrQnJdHDt+nLnOVrZv2cm1b3gTGj3HjoDXC7Hey6A4jzzPmZlzQC8tsl3V7TFwjWwcmjVEWxcSDZRWq8VV11xH3jP+8oufx9tOHrn/sxz8wGd56MN/woxdQzyxiwf/46+i3Z384h331c7rHH9nK/+v/m2UUWnjsF0nqsB7ZkbWarFwYp5QZIi8DJjF9xb5xD2/y95b/i2z/go+9dDvY90tiO2p3WH5PcdLvEqRTu9Mg2y79CaLzb7OsVhtrtJJIC+EH/7hv4/zjs//+R+hvks3HqPVsRRjQx1iHlHBWYazDmJ+zfOgw5LMpo5qI/s6p1ckv3RYOfynGbzmqh9kx47dzJ9YJJAR1Zib3Ur3RA+vnqiGWBvB48xq53VuvimqRnWORf18gOWkcOJAHN98/Gt4l5EXkWvfcB1vfOOP8M3HH2dHZw9qXTwR7ae1tJfljNbj3EEzGFgHtPSfqSp50QOMrzz6BQCuvvaHeO3rruWyK67GS5Z2DOsoydZq2I9eM70DgkaijUV1rt2khyr9KNspVprinOfLj36ey664kmeffoqi6BG1AGKVYuQOq9mAo760wadpXOfWSLSJ6IdzgXICnX78DCkJBtWO9SpUwveeepJXv+Y1HHvh78hj3g9XW5nxddfFaqhWtI3+m0Y0Em1FVFJkJXWV6GhAq9XCh8BffeVLvP4tP8bXvvrlRIsqNnL/1GJjbSqwZt/1o3ZMq+qUiMpKE70NVn+4gohnvrtIsVDgg+PLX/xT2nNz5ebiSuXVBxer2Vv1YMr1Acl02mkhsoj5xbNdjnMUdTUlK5lTGEJo0Y8c5LaAuYXBJSKYDhNmlC7LTjVwVZr6r6unm1jIs4jQmu2Ru+NntRDnNuqSZMyvI2c/2cjR1pNSCyxjyFoOK15furMoBXvpLZAdRv1aVhRsVqxMtCH0owbVyLfKXcd+X9Oaa5VeQ+lqXw7GqnJW/XhBWi8i4cRZyv4cxzLxMengsPJXWU60k360I5ev+XCVMdnU0wrSF31ng2xBWkdw2XQOmV9y9Ik2KtXGTyGlyEGjeztl7U+22kk1mstq6UfSjUKspjrP0qMOyhHU9fpfDIzP8RA3Ehd/levXkr76bi33Gk2/njKstTxgmOmyGLI2IdBxPVZaSi0gJ2cfjYbsWxPRxqSrFykJskE5zqxE2wJAQE4Ag1GnrSKrR8c8q12/lvTVd2u51zif1smWYa3lSTxZrgb7Mc+WFWUcAddONOeSHVWPwr0WB+1ouqHI3hXJbFAn+rMap0e8ycj9Uly46t4V0awAywFBTAiVHh/pSlaqERMdjKxGpHGtDhOx7DGUnd4UvJVTNTba92zQs6XuXV9+zzECbzh/G07TL3uZgTfBma81VE1CSSKiI+1l6j/Lcn5lLO/GSr4xBbcUuTuFKpV00mL1wMo69+su9fIMZ1zxalnfq57VCNGq68Skb8dJfxg7XFATA7FlZejfe+i5DRcgiAactsr1Uh4pHJnLiL0irVIgFcwE1CnqYnpJgUpE3OCBp6kYykZa3r5VYZYRUx3OHE491jMy1yobvXIZpEqqU6IWKf8yyqKWjV3dSzX9PSlsbL+D9wuUyO3UIeqxniO4dmqLqk5l51KnFPRQF3ESUVHKftFvWiGVoSK82jD5h1wRQvlgU/0pAtoTMtfG40EVsXQuqImm+rv0bqJY+V4AzpEmD+qTCP1yST9vE+vPT4iUk2palkE9LgacesSEVmhRxAIw1Bkqkehy1EVAy++gbyGU+Y+bJQ5Z3i4rKjj1vPfn92I9I7hALGL/QauAivLIpz+JunRwlroC9UX5IMpcxIY7slQPs3q6pWIqG1jUlxVzSHTsveFGLDeCeLSI+BAwDC0f9Cc/9XDK30WiFINGn5Q/STqYppxF3EBal40rVi5OLBx7b7gJyyFIRiwiIbj0cESJLvJIPX9yLCQpLy7lb6ZDcqAimZUdoDLMk3DweMsQDWX9fcq/ZwQJaFHgxRAUFSM65ZFf/2QinJQdLihR0oOX2rhjVOEbldSqSWJzuEJouzaag1fPe961F0/A4/qENTEisV//6ApUikT6oERiqlt/5ny5rpF7HvoVU0mN43E48xCFGJUsa6Vd2FIujRFNDWwFiBFdwSf/yyPEsuHVRaKkHk8pBawS41EQS6QiJhXhY8Z73rGXFi2Cy4g9JUgGKsRCybKMvqIsJYtKxFyEsuIP/+dHiC5irkBdQZTU40xiv9XFJOWvAacBiYlYPgbe/Y69ZLQIIRB7kSChzD+ShWxYEki6b3ql+t91739gzyXnJwlPTkE3PYQh6yrl79TjNAzV/93veF+qv6/yT0uLtIi0QpakWjV5JQq+bANRCh/5+KcfpnCpTUxiv+Nrqeb68syS1HYakFJi+Zjxvp+7CckdQQLOHBKFzGcsLS7RarUw05H2r56rUviCj3/6YxS+SN+5WHbCdB0C533rotQCBx64zyDpaicOzBFCRq+XE7J0lEyfn2KYFeVIDMwbuS/QYIiH6Ao+9siDSdKJ9skGUqqmwL/7uXfjNFXKx8Cc24L2FItGpzPL4kKX4DOiKu12mzzPB1KKSnIpziXiF8HQoJgzdFn+1idaRfIb3vlevHpcSbQq/6iRmc4MiwuLBB9QjbTabfK8qNmnBsT+fVUiXd9FvZZmRcEjn/pEKfGrurtSepf5/9x7E+H69d+KdQ2NkU5nhsXFMv8Y6bTbxLyo2VtpeXh1XHZ0StcVFCX5ooulxolDEh6Tvsa64Z3vwZemSqYtsqKN17S2wmI6TmjUwVJfgVI2KEZ63l3f7RNtNH8TY9v3dqUkB+9/wMq0JdLq0aiKD75vz1RDejPFSaUCkkqrBgcq1WBhMGDojwhNkh1mqTdRGp9Oqx0+Vd8ro/MwGIBUBmgyABQMvFTXpDyqv7WuRktpUjdynbm+TSTlA6iUy/LRa9mTa6ogqUbD4UuTQst6L89/kLbcx2RlhzNXfi7NhoHMGhocDpscqVXKWvfVoZU/V88hulhKs/IGNQPdlfm7flukMgigpogrjwgqdXA9/m79dO5+mcr6m6R1xEmlJ9vNSBLt1z7yawCEYctY+kai92mHz2jTJ6lHSZQ0Uhx6NEMPa+ThGcnoHTIVBxUZ2O9Wu8T6r2TIu37DiYGrlb3McXmj1IbHfVr3rfJa/jZirAOYDbk4nCTbTnCIgohL2zXH5F99rqvwIedpLd1AiIwbwQzKD4N7OKBvjVMR3YaqNppTVQYZ3BAjhXjol1VqXUsG19ULWpHNm6fcsIrFAeHr9wAIfc/1UP3KYW/5/WgvAxlbmVJRjd4qcVkVEZd64JBTdOT66tuRwUS9ySraSa3XDggzuJuN1EvKXmqlRpuIWoX7WVTD+b7EHeSfCN3vIkPlhCp2WkonQw1nDCzuVOnlLsHlI7jK0zeiirBS4q3kVuy7RKy6U01aU5bT+gNixGxAwHo7VzeUQT2r/2WgjvroL3ysJApYIoKUo7VK/EoasSEM+aKckyHHX5KINVL0/RnSX4W6llUKZQpE0sCkP3tQb7RaZQffDEu0Qb0Y+Hlk+D7DeQrLnuyoXKg6IPUHsnoCTNIAAAONSURBVLxg/d9qEnX4Ihv+0sZkvSyhjCm/1d5XYBmjbTbp+pI05UBwWH1Xl6Taj6Ye1hYDhHpGBn1DGEBLyVOXPQPrIJ2SWwU5MTOcK6Md1vKpTtPN8yIZmqV31myEkJXhPtQaZR+rpJ/U/fjL+/mo806EmgSpkgx63lgsc3RRPtthog9NSw2p3LooltrfdRVcSYX6/Wvp6twbUaUymnZ811sBI6bNKr/XlcKg5az2+/ISjcOypdw+eCzXRBw/0C9Vhavpl3RuZYF3KW5r1sro9Xq0WhlmisZ0XV7kBD/IRlzqDM57YlFMDMUpZSioSs2aGjEOXBbDz8VGvqw3TP1rGf3l5DHu+fYxrn8PEozpGhPTVZtfxp/VebLkWin9Kr+Pk7IiQ9esZQZwiGgiQrfbRURw3nHLzbeQZRndvMvBBw5yy75bOPDAAfbt38eBBw5w6/v38eDBj7J/360cPHiQ22+/rdz5Q7p+/y1457n/vvv5hTvu4N577kGjsm//Pu67736885glp/Cyh1BOlIsTfuInfoI8z2m326vX6JzCZGqtFX/wf/5gwh3WQ7DTiZPrrH2iiUipJtMNYhERJ3zkIx9h3/59hCzDMG7Zf0stK2HfvvS5WuXw4MEHh37/yEfuQZxQFDnvv+02Dhw4kDIOfnjVxYR2ExGcc4g4YhFPqnINXiKsg+NDY6/R5Tb12filpSUOPnAQYPB+8CAi0iePmZKFjJtvuRnTNFp5/223poyco4g5t9xycz+vgTq2ZbZIHSIOEcEHnzrDJnptFAxmp8oHnYWsP+rMQpYqLIJ3jlvffyveefbt34e4ZOBHHUiZqJG8yPuT8d55Hv54CvIxNzvHXR+6C9U0pdFut/v2RzVgGAcRh2qk3W7jnCeEDO/DpnltFCzzJnW7XXp5j1YrzdzfftvtBB+Sm0Ej9917H4ZRFJHgfTkYSPDOs3//ftS0T9z37H0PIsLxE8eZmZnhvvvux4lLtqCbTLAKqpGiiKjGvuQz003z2iiQA/cfWKazKnutKCJZFvquCecdznmKPF9VrFcujcpVkoWMVqtFt9tFzQhhQNCVVsgWMdJqZeR5QQi+P5rdLFitI57rOPjRZGYtk8391ZKaJlg1ajnRChoHbou622EcjJS+SgvQ6/WSGj6Jxgve98tQqfQG04cm9kaDM4JTsjZPZVPIqaRtMH1oJFqDM4KGaA3OCP4/adFdcI322MMAAAAASUVORK5CYII=;labelBorderColor=none;" vertex="1" parent="1">
          <mxGeometry x="-784.6999999999999" y="-1045.5" width="35.4" height="40" as="geometry" />
        </mxCell>
        <mxCell id="ZXn4HNvfn6RSKJ2BFfuO-29" style="edgeStyle=orthogonalEdgeStyle;rounded=1;orthogonalLoop=1;jettySize=auto;html=1;exitX=1;exitY=0.5;exitDx=0;exitDy=0;fontSize=1;entryX=0;entryY=0.5;entryDx=0;entryDy=0;fontColor=#D9D9D9;strokeColor=#DEDEDE;" edge="1" parent="1" source="ZXn4HNvfn6RSKJ2BFfuO-30" target="ZXn4HNvfn6RSKJ2BFfuO-33">
          <mxGeometry relative="1" as="geometry">
            <mxPoint x="-727.3" y="-1023.5" as="targetPoint" />
          </mxGeometry>
        </mxCell>
        <mxCell id="ZXn4HNvfn6RSKJ2BFfuO-30" value="" style="shape=image;verticalLabelPosition=bottom;labelBackgroundColor=default;verticalAlign=top;imageAspect=0;image=data:image/png,iVBORw0KGgoAAAANSUhEUgAAAJoAAACuCAYAAADOFBSsAAAgAElEQVR4nO2da7BkV3Xff2vvfbr73jtvjaQBSQiDJBCyJCAWNsjEqXLKVSQpP1KpVIiTVIGJFWDQY0ZIsiMwiomFXjNCgFBsTB6O7cQf7EpcFZOquPyowhiDEViAEBYGgSRbaDSa1310n7PXyod9Tvfpvt333rkzmpm+9/ynevp299lnP85/r7X22nuvLde/5d+b6m4anH4YgAw+CV1EjoN0y6/amG3DaKdrkfJyqd9hqvHsMwcACIW9jGgXn+XibFBIIkqMOW3vge+D+1vEHwJA4/movpKou4kigOBMEJPaTYyNQLigtgVl+9kux4aDiIAYhuL8IoUeZmbmBB+660acfw4AjRdy++3/E3FbUd1KCFuxIgJSo9b0kwwgIBEsnu1ybDiYgakiTjEOkbUf5xfu/Jf48F1+6YO3AHDXXQe4++6f4oMf/A1UXwd5GGhakeH7ndnin3YEMBA92+XYkHAYpkqW5ag9Q7tzCMcCngIALwu41vN49xyBVxNVwUGlOa1mq5mMz2NaEDaKDXCuQszjzKOmOANnHSRuAQQXZ0EcXiGaQ/FghpXEGibXdD+jcLYLsPngylf9s9Sk1zjRJWwAoqXRToOXAoZJRCWC86g4lC7mloCIui5GmygeFUNF0yCicnPY8LOZZqqVEm0S0aa5amcfJoAZahmiF6DxAtQfQktDX2kT9UKiXYhKG8OgJtkGT0WGfplGyHVv/pRFu3TCz439dmowBMXJEuhhvP8eH777n+PccwgR1T38wi/+L1RfidlWoN338g7bZ9NLsUPPvgtobLQzAAGbAfag6rnzzv+O888jZqiej+pVqJ1fv3oMpr+zN0R7SZGMfDVIfovzKXozIDmJgBnI3FCKaXdjTEJDtJccgkll1AdEtmKU00xOMesBG9+P2RDtJYYNqT0FK8rvpdSI068W14KGaGcENuYFA9fSBtWXNTREe4mRKDSOXJtDklVwq1/S4PRg80mxOhqJdsYwrk9vHrI1RDsjmDR/uXnQqM4GZwQN0RqcETREa3BG0BCtwRlBQ7QGZwTBGWlmZHMNgjYZzr5zOPjCcKbJdz2GbCINA6cbNvJ+dhB2tFsQs5Fd1QM0RJt2jJtjPXN4tnwPM0WXUCxOLEJDtCmHnF2iVQgXtBxtmVyAhmfTjnOEaDusyxadn3hBI9GmHecI0Xb64+xwk8nUEG3acY4QbY5n2GbfL8u0nFSyAgkbnOs4N0gGECx/Cikj2IyDaEO06UZFspX2JQgD3/2wO0Rqf9ddYG6Ityvtsk8IrnUIZ/MTL2xU5zTDRkadk+DAWqTnr4AiaD94lpTpDShcuc1GBbFEPKsWcq7g9Q9bL4C5Xj7xgkZ1TjtWkmjVs/WgvvyqB6JlMEApKWSIKSpG4dIy9KBJqvV3eJljrER7Jr2FxdY8J/yRicVsJNq0Y5KdVltSbj5JNIngjoMopjNgGYJDMJxFTIxCSEQklurTg6WrxgvNpJLDsdntRNXJDttGok05TpZobdLk9wxmgSTVUmgHMJLJXn0GzCMkNTqeKYcBCIe3vIYj5OgEFdtItOlE9dxcSQzEhp6liOBcqS4JoG1S6MBeklbigKQfo0aKGDFN1lgQjxOPSBWCa5I0A/jfKb+XXX69FXRKo25MgRuJNpUwTeQyS5Koeq+QSFIR0iO08S7DzIhxAeePE4vn8RwCadHTl6O6FYuKmEsvXC2u23jscN8GIBxduoxCLmzmOjckSnUpw2pTbTAwMEtDR1VIXzt8Nk/kCebmnufXP3YbTndww94/gnAlJiAmOPN9sg7yGoPFkmjOX4i4iyfysiHa9GGgNqWcq05Eq743s/RCUI2oWWnYO/KFRVrtFh++5wOct/2rOH2UoriEGLfQnn01h48fIQuhz10zxcnw6Qh1bCnfA9YFXZpYaGvW4E4hKjeroKpgA6lmagQfiGp4H/AOtCiIhdLOZti2+3ywp9huf0Rr/s/I2l3UdtBuOeaPHyVDyVzERDEUyvsnabiCH23PBReSywUjXw88wcnWO/srNBusDyJJwokYLh19gA/QK46jWmCaoSqYHgcWEDlGW56mbc+wc+YporYwd4wLzztBQRelAN/mxFJgbtsFxDwvOezG0qz3nfQe2iHDkY25xDAxzIFJRbyGcNOCahBXqc68yCnynHxhCdXDvPwSpYhdYr4DbAEn38DJYcwcnexbnH/BlZD3mPEdpPcC2zuPsRhfICenxwV0Zt9AXmxNalPSjMJKA4OgecQYPtAirbYtw5D7kmAy6odpcK6imgdQjZgphhFaGa12h62zW2n5Dv/mX78VH5b4+EP/lcwf57b9/4wQXsDUsPi39PJvkXEFvV6LpcUOP/+uf0pn2yVoBofnd3PvgccAiFhSnzAyOBhGePbZp4ljD7RIRMNVkqwh2rTAREAcuDQY8MFjLjlegzmERT7wiw8Bh7n7njto+8MQn0NoJb+bXMTi/HksapHMO9eis6WNiiePBfMLyuFDJxA7hkVFNVIUxdiyXFi+y85X3GBR9owrLmmkMvi7wXQgrbJI/nwzUJRIcrgSI2gOLCFylBAO0QrHablFfDnPaeqIRQvV5LQVpzifg4+oN7rxfJa6V+PkInxp902aT98dPw1AUH+UQvzQjwKIJWJVnuX0ee1kGxwusz406defXhAwSw5VDTjAWw5EEEOdYaKItBDbTSx20nMgzoACEFxo4V2Gcx4xoyh65N0uOHDSJsScLVtOkPd6IEycWaqsMsG/2XC7yk8jV1pVY0tD5JOp9ui02smiSb/+9Fo+L01e/4ScZLkJuHLqSFzNtZBULVYkz23fXWH0p5lw6bMniTFHmY+Cjj+47hWXPA5A2H7x1RRjVWdaHlIdILPevnmqsQ2b9OtJXx6N4UoxI4ZUfi9KiVfOW2qpuSKVd6HKLc1JVguFhifNS48ENSk2aVJdS6JBB2F2QnmtzO/UbbRTtfCa9CefQkvPfXWQWXUXoVwha5TehZIwYzLppxj53QCt+VdX6xArB+JbedHkmjB9D2ijpK9UZjl5PvKrMrCUKgtpeV4DYo4ri5jVXGEra/gm4uOGxOga/jFr+ses1plMlJJG45aRkeZNq6smoSHahoSNeT9Za68aABiDZdrDTJPSrJI13DeYGZPX11aTCqMFn26ISL8XblzUldnJkUyGrq/fY9J9VrevQlWk8RnW/1pNC5/rqM3USn+gPzRsSkteRqdRprnOsH7fioz8rbXb2bKrV0NY6aKUxbSTLJXfRnq3SV5+G0grTD2mOrYhp7fu64ONSDSRug022jZrk5QhLSGZuOyRaSdZ8hNV5XdAwCzHfBeTiLNZtAi0/Ax5nqf1WVY5Nw2RavnLtLbBelGT9BOvsQnkW45VlzVauQdmGl+psXz5MnAF5hZRfwRrfZ8b7/gXLPWeYNv5XXxrgVznS+emK1ciSK0NprstTv7Fml5rxQZfPysIGeAwKVB3jBieoWg9ic19g6XsC9zwwR9jzxXPI7PfYev2BUzmERkse7G6YddgBKMDhXGvhA1ONCh92BiR9+27gRtu/hm09W3eufdt0HmaPPtr3vzjF/H2d/44XX0OcT3yolemXd5gDUaxEsk2CdGS46aLuBwR+MTH78V3nuPWO9+OtI7R0xfJZhaY296D7AitThelh3eOEDwzMzMEH8aMRBucLDZ4CxppDWgO0kOty9zcDL1eJLgZMr8db7vIu3O0wk6ueM21mHp27NiNRqW7tISZ9SeeG6wfG5xoAIJZQeQYN++/mWJxNx/90O+QFa+gHS/j4Xv+mE8f/DwfvfO3ee57Qifs4qKLf4B2Z5bOzAwi1Zq8BqeCDT4FNcyQ3/nt3+Xvnvse8ApCvJQH73sQl7+SpWIb2dwOgpxHpxPpdXv0ul3yojeyo7vBerGBiVZ3OgbQLTz9naMUFqCY5Td/7Q+JC3vQPDA3s4v5I0vsft3Lmb14C49/9auICEWMtDK/UiYN1ogNTLQKgpMUfkkto+VatLeez9HnocMeLAi9RWHPRZfhXcbxY0e55NJX4IPn209+k+7SUmOjnQZsYKKVa6kkLaoTEYJ4YszIF6HTmgERTIStW2d41atey5EXX+TJb36NdivD+4wT8/N0Wu2zXI+NgQ1MtBR7QkthZFotWw4YQq9rvPn6t3L06FG2bd/OoUOHePKb32DL3BwLSwuows4dO5mfnxwav8HasaGJpmZDy4GSp18pYkHUyP/7w89w4fkXkrVaLMzPk2WepV6XNFI15ufnS7I2qvNUsQncG8MQccx2ZoiqvOpVl7Fr9/m8cOh55hdPkJYKpeuqiDsNyU4PNiHRUoSduc4MGiNPP/VtFpcW0kJSTbvIpDlT8rRjUxGt8oWpGc47vvPtJ+nmPbbObcWJK9Ws1FZvNDhd2HCt6UT6geEAqvV29eB0ABqV2dktOBFiP0jJ6Jr4RrKdLmw4oq0V1SChkVxnBhtu1LlW412t5mejkV4vNTZdd25GkWcHG06inX1Ifyp/dD29k8FiwHpk7M2AhminAXWncJ1MQop/IeUAZePvJZ2MTac6Tz+WL1/W2kDDu4CZYFaFfRoTnmAToCHaKWJ4k7VDJMMMIj0KW0ItRyQdczO8b+h0SbdTj/R0JtAQbd2Q5OTFcCL08oIdOy4A2hgek0VUjhNZwqQgy6TcwxCxFQ9pPRm8FMR9adAQbZ0ws76j1znHti3bWVw8RsFRNDyHtp/ihn3/BGt9n+gOU/AiJvMgBec6KV4KNERbJ7xzBO8JwSNOOLEwD36JV17lyVtf4KYPXc/Mnq9z4WXz5K3vkvunUX8Io1u7y6naaTLh73MPzahzHTAzomkp1QpEPDPtLVx6+S7e+rZtvG1bhxPF4wRp8VM/+yN84v7f4qb33Yku7OCTB34PsVlGY/asH+c2wSo0Em0d8M7jyhGlk0CnNYOZ8cQ3vkToHEL937Fl2yySOaz1Iu+7/e0s2bM8/J/uxiRFvZ4Oepw+NEQ7aZTBg8Uj4slCGxCuuPJ1tLM2nWwXTs+jt7AT8l1YDJgZs7NzdHs5g3gem8tSa4i2KqT2zyFIuTgyvV/zhutQVf76G39F0W1x8Jf/Lx/95c/x0C99Blm8nFZxKZ+8/39QLGzn9lvvRqw6d2tzUa2x0VbB8pBVSaKlE32FWEQ6nVmOnXiBVquDjy8H3Uo3zvHIA7/Hjfv2ogt7+Ng9v4W3HXh2rZjfRl06LtsuvdEKefnZLsc5iyrOfv0bSC6NxW4XVbj+R/8B3ht/8fk/BTEii3T1RWZnMvIcUI+jhZDhrAW2efaK7taHgUairRHDEkbNaGUZ17z29czNbUvH1+RKUUAIAUcHejO053ZiMZKauRwAbDxhtSY0Em0iKvfD8lCaZtVhbOl0Gu8Cb7zuLXgX+PPPfRYR6HQCedFFNZZxcidF69/YqCRaMxhYMwaT4fVFks4Jaspjj36RXt7j9W+4jmuu/SGuuvqHEAs0Z4UnNKpzIqrTQOrSqE4a7Uu7tFe0x6Nf/DMuu/xKnnji6wTvcK4WzXqTo+lupwFJwqVZgieeeIw3v+X6dIBcGXB5s7kyxqEh2kQkz1k6rkvL91i+inIFRhlCWZJPrZW1aLfafPWxR3nd1VenVbTNEeFAozonYvkU0STJNNjcIuJY6i0hInz9sb8qk222yabxaIh2mpBCKCit0CLG6lyWMux8g4Zopx+y7K+1HvqwkdEQ7bRjeNVrQ7KEZjDwkqMhGTREa3CG0KjOU8bw9JIOBf5bacQ5eh7mxkYj0U4Jg5VqRlrRUUUrCj6NOKtNw26IdNOze+l0oSHaBEx2s5aE6Ttik//MieCcBwIijsIWUBYxibWwWadyPtx0oyHaREx2ziYoiKLlJpUU3C9DpIOJYP4EZMfwIc0ppOhYVqYzEB1z/42LhmgnjcnB+pw3ojuCZc8R29/i3bf9NLsvbqP+BF07RJSjmMTBbIE0RGuwIgRHAPM4ERa6iywsLtKLh3nZq5fIZ/6Cm+66Ht3yl3zvhT/DOs/R9U9ShGcwyZFyIWTC5iBbM+pcFwS1asucMNeZQbzj1Vfu5Efftg3mZrDOd1HvefdtP8kn7v0N9n/gZmxpO5+4+zM1J66yWfr65qjlaYYZmAlqDucCC90lVHO+/KU/YevOeXznML3YxVwXa3+HG+/8GQo5zEMP3YdJgUlaBbKZBgQN0daBFJDZMdOeIUal02rzuquvYueu8yi6bSzfxeKRbcTu9nKfwFKKj6blnlCS8h13unF1vsFGi6XWEO2kUZFDWVia59o3XkcWAo995QssnhA+9it/yMMf/hKfPvAl4ouX47uX8vF7fxNXbOfGvXfgrJX2dlavMYOLehTxjYLGRjtJ1B9/VCUWhpnDiUeYgzgHcQcaj/Kr9/4+++54L657ER+9+7/h4i68XQLlZmTbRKqz2QV1kqgUX1rkWIAFrv/RHyPaPF959HPgCpActS6LveN4b3jnMA14ZhHbglhWTlUtJ9m4DcQ2EkF8mtDs61wn0oGxykynw+WvvZqtc7swBbMAGjixsIj36RS9TtiNmKAFOBzgynNDJ29YGbdLfRoJNoqGaCeJtKdT6PW6PPH1xzBzdNozvPFNb+IHr3kTX3n0C+UOqLQ7KmrEY31ybdY9Uc1gYB1w5bylSNrXGWPOZ//0jwm+xXXXvZXLLruaK6/6e2zZeh5mHjNHWtZdD5a8udBItHWhUm+KmMPUaPmML37+c/zgNW/gO3/zJMfmjxK8gAPvTk/IvWlGI9HWif6IUQYrMaJGnvj6Y7ziB16VpJ13/eVCmx0N0U4R9UjbnVaGiPHdp57kyquuLvd7blarbBiN6jxJjC5ZrLYYi1QefVg4scAz3/12/+pGnjVEWweWUw106LS8Viuw1F0or9g8TtmV0BDtFGFYLSot1N1gjTwboCHaKWN5BLUGy9EMBhqcETQS7TTBiVu2tKdRnQM0RDsNqELCiwx8ZmZWjkgbQEO0U0a1gLESZiKOzbRydq1obLRTwCDsqKDl8m6RDDVQ6WGuV26r25zzm3U0RFsnpFz205mZ7TtqwROjT8dbh3kknEBc8rWlhZEr/9vIhGyIti6kxYlFjBw9dqR/bicSUXeEJZ4ibz3Ju/b9I3J3iOhOUMhxVJbKkKTLj8ceHES2McnWEG1dSKcOZ8HTzkIZfVuY2waXvz4g2x9l7y/9MDN7voHf9jTafo6ePAP+RcTlK9x345KtIdo60N/6W4ZCMDNm2jP8wOUX89Z/+Er2feCn6bm/4XjxTd5x0z8ml79h/53/ivfs+1kiS6vefSOSrSHaupBI0G516OWxfOV8/WtfYMfuHrn9LaGV0Ys5YcuL3HDbT9Jz3+KBA/sx6a5y73T/jUa2hmjrQnJdHDt+nLnOVrZv2cm1b3gTGj3HjoDXC7Hey6A4jzzPmZlzQC8tsl3V7TFwjWwcmjVEWxcSDZRWq8VV11xH3jP+8oufx9tOHrn/sxz8wGd56MN/woxdQzyxiwf/46+i3Z384h331c7rHH9nK/+v/m2UUWnjsF0nqsB7ZkbWarFwYp5QZIi8DJjF9xb5xD2/y95b/i2z/go+9dDvY90tiO2p3WH5PcdLvEqRTu9Mg2y79CaLzb7OsVhtrtJJIC+EH/7hv4/zjs//+R+hvks3HqPVsRRjQx1iHlHBWYazDmJ+zfOgw5LMpo5qI/s6p1ckv3RYOfynGbzmqh9kx47dzJ9YJJAR1Zib3Ur3RA+vnqiGWBvB48xq53VuvimqRnWORf18gOWkcOJAHN98/Gt4l5EXkWvfcB1vfOOP8M3HH2dHZw9qXTwR7ae1tJfljNbj3EEzGFgHtPSfqSp50QOMrzz6BQCuvvaHeO3rruWyK67GS5Z2DOsoydZq2I9eM70DgkaijUV1rt2khyr9KNspVprinOfLj36ey664kmeffoqi6BG1AGKVYuQOq9mAo760wadpXOfWSLSJ6IdzgXICnX78DCkJBtWO9SpUwveeepJXv+Y1HHvh78hj3g9XW5nxddfFaqhWtI3+m0Y0Em1FVFJkJXWV6GhAq9XCh8BffeVLvP4tP8bXvvrlRIsqNnL/1GJjbSqwZt/1o3ZMq+qUiMpKE70NVn+4gohnvrtIsVDgg+PLX/xT2nNz5ebiSuXVBxer2Vv1YMr1Acl02mkhsoj5xbNdjnMUdTUlK5lTGEJo0Y8c5LaAuYXBJSKYDhNmlC7LTjVwVZr6r6unm1jIs4jQmu2Ru+NntRDnNuqSZMyvI2c/2cjR1pNSCyxjyFoOK15furMoBXvpLZAdRv1aVhRsVqxMtCH0owbVyLfKXcd+X9Oaa5VeQ+lqXw7GqnJW/XhBWi8i4cRZyv4cxzLxMengsPJXWU60k360I5ev+XCVMdnU0wrSF31ng2xBWkdw2XQOmV9y9Ik2KtXGTyGlyEGjeztl7U+22kk1mstq6UfSjUKspjrP0qMOyhHU9fpfDIzP8RA3Ehd/levXkr76bi33Gk2/njKstTxgmOmyGLI2IdBxPVZaSi0gJ2cfjYbsWxPRxqSrFykJskE5zqxE2wJAQE4Ag1GnrSKrR8c8q12/lvTVd2u51zif1smWYa3lSTxZrgb7Mc+WFWUcAddONOeSHVWPwr0WB+1ouqHI3hXJbFAn+rMap0e8ycj9Uly46t4V0awAywFBTAiVHh/pSlaqERMdjKxGpHGtDhOx7DGUnd4UvJVTNTba92zQs6XuXV9+zzECbzh/G07TL3uZgTfBma81VE1CSSKiI+1l6j/Lcn5lLO/GSr4xBbcUuTuFKpV00mL1wMo69+su9fIMZ1zxalnfq57VCNGq68Skb8dJfxg7XFATA7FlZejfe+i5DRcgiAactsr1Uh4pHJnLiL0irVIgFcwE1CnqYnpJgUpE3OCBp6kYykZa3r5VYZYRUx3OHE491jMy1yobvXIZpEqqU6IWKf8yyqKWjV3dSzX9PSlsbL+D9wuUyO3UIeqxniO4dmqLqk5l51KnFPRQF3ESUVHKftFvWiGVoSK82jD5h1wRQvlgU/0pAtoTMtfG40EVsXQuqImm+rv0bqJY+V4AzpEmD+qTCP1yST9vE+vPT4iUk2palkE9LgacesSEVmhRxAIw1Bkqkehy1EVAy++gbyGU+Y+bJQ5Z3i4rKjj1vPfn92I9I7hALGL/QauAivLIpz+JunRwlroC9UX5IMpcxIY7slQPs3q6pWIqG1jUlxVzSHTsveFGLDeCeLSI+BAwDC0f9Cc/9XDK30WiFINGn5Q/STqYppxF3EBal40rVi5OLBx7b7gJyyFIRiwiIbj0cESJLvJIPX9yLCQpLy7lb6ZDcqAimZUdoDLMk3DweMsQDWX9fcq/ZwQJaFHgxRAUFSM65ZFf/2QinJQdLihR0oOX2rhjVOEbldSqSWJzuEJouzaag1fPe961F0/A4/qENTEisV//6ApUikT6oERiqlt/5ny5rpF7HvoVU0mN43E48xCFGJUsa6Vd2FIujRFNDWwFiBFdwSf/yyPEsuHVRaKkHk8pBawS41EQS6QiJhXhY8Z73rGXFi2Cy4g9JUgGKsRCybKMvqIsJYtKxFyEsuIP/+dHiC5irkBdQZTU40xiv9XFJOWvAacBiYlYPgbe/Y69ZLQIIRB7kSChzD+ShWxYEki6b3ql+t91739gzyXnJwlPTkE3PYQh6yrl79TjNAzV/93veF+qv6/yT0uLtIi0QpakWjV5JQq+bANRCh/5+KcfpnCpTUxiv+Nrqeb68syS1HYakFJi+Zjxvp+7CckdQQLOHBKFzGcsLS7RarUw05H2r56rUviCj3/6YxS+SN+5WHbCdB0C533rotQCBx64zyDpaicOzBFCRq+XE7J0lEyfn2KYFeVIDMwbuS/QYIiH6Ao+9siDSdKJ9skGUqqmwL/7uXfjNFXKx8Cc24L2FItGpzPL4kKX4DOiKu12mzzPB1KKSnIpziXiF8HQoJgzdFn+1idaRfIb3vlevHpcSbQq/6iRmc4MiwuLBB9QjbTabfK8qNmnBsT+fVUiXd9FvZZmRcEjn/pEKfGrurtSepf5/9x7E+H69d+KdQ2NkU5nhsXFMv8Y6bTbxLyo2VtpeXh1XHZ0StcVFCX5ooulxolDEh6Tvsa64Z3vwZemSqYtsqKN17S2wmI6TmjUwVJfgVI2KEZ63l3f7RNtNH8TY9v3dqUkB+9/wMq0JdLq0aiKD75vz1RDejPFSaUCkkqrBgcq1WBhMGDojwhNkh1mqTdRGp9Oqx0+Vd8ro/MwGIBUBmgyABQMvFTXpDyqv7WuRktpUjdynbm+TSTlA6iUy/LRa9mTa6ogqUbD4UuTQst6L89/kLbcx2RlhzNXfi7NhoHMGhocDpscqVXKWvfVoZU/V88hulhKs/IGNQPdlfm7flukMgigpogrjwgqdXA9/m79dO5+mcr6m6R1xEmlJ9vNSBLt1z7yawCEYctY+kai92mHz2jTJ6lHSZQ0Uhx6NEMPa+ThGcnoHTIVBxUZ2O9Wu8T6r2TIu37DiYGrlb3McXmj1IbHfVr3rfJa/jZirAOYDbk4nCTbTnCIgohL2zXH5F99rqvwIedpLd1AiIwbwQzKD4N7OKBvjVMR3YaqNppTVQYZ3BAjhXjol1VqXUsG19ULWpHNm6fcsIrFAeHr9wAIfc/1UP3KYW/5/WgvAxlbmVJRjd4qcVkVEZd64JBTdOT66tuRwUS9ySraSa3XDggzuJuN1EvKXmqlRpuIWoX7WVTD+b7EHeSfCN3vIkPlhCp2WkonQw1nDCzuVOnlLsHlI7jK0zeiirBS4q3kVuy7RKy6U01aU5bT+gNixGxAwHo7VzeUQT2r/2WgjvroL3ysJApYIoKUo7VK/EoasSEM+aKckyHHX5KINVL0/RnSX4W6llUKZQpE0sCkP3tQb7RaZQffDEu0Qb0Y+Hlk+D7DeQrLnuyoXKg6IPUHsnoCTNIAAAONSURBVLxg/d9qEnX4Ihv+0sZkvSyhjCm/1d5XYBmjbTbp+pI05UBwWH1Xl6Taj6Ye1hYDhHpGBn1DGEBLyVOXPQPrIJ2SWwU5MTOcK6Md1vKpTtPN8yIZmqV31myEkJXhPtQaZR+rpJ/U/fjL+/mo806EmgSpkgx63lgsc3RRPtthog9NSw2p3LooltrfdRVcSYX6/Wvp6twbUaUymnZ811sBI6bNKr/XlcKg5az2+/ISjcOypdw+eCzXRBw/0C9Vhavpl3RuZYF3KW5r1sro9Xq0WhlmisZ0XV7kBD/IRlzqDM57YlFMDMUpZSioSs2aGjEOXBbDz8VGvqw3TP1rGf3l5DHu+fYxrn8PEozpGhPTVZtfxp/VebLkWin9Kr+Pk7IiQ9esZQZwiGgiQrfbRURw3nHLzbeQZRndvMvBBw5yy75bOPDAAfbt38eBBw5w6/v38eDBj7J/360cPHiQ22+/rdz5Q7p+/y1457n/vvv5hTvu4N577kGjsm//Pu67736885glp/Cyh1BOlIsTfuInfoI8z2m326vX6JzCZGqtFX/wf/5gwh3WQ7DTiZPrrH2iiUipJtMNYhERJ3zkIx9h3/59hCzDMG7Zf0stK2HfvvS5WuXw4MEHh37/yEfuQZxQFDnvv+02Dhw4kDIOfnjVxYR2ExGcc4g4YhFPqnINXiKsg+NDY6/R5Tb12filpSUOPnAQYPB+8CAi0iePmZKFjJtvuRnTNFp5/223poyco4g5t9xycz+vgTq2ZbZIHSIOEcEHnzrDJnptFAxmp8oHnYWsP+rMQpYqLIJ3jlvffyveefbt34e4ZOBHHUiZqJG8yPuT8d55Hv54CvIxNzvHXR+6C9U0pdFut/v2RzVgGAcRh2qk3W7jnCeEDO/DpnltFCzzJnW7XXp5j1YrzdzfftvtBB+Sm0Ej9917H4ZRFJHgfTkYSPDOs3//ftS0T9z37H0PIsLxE8eZmZnhvvvux4lLtqCbTLAKqpGiiKjGvuQz003z2iiQA/cfWKazKnutKCJZFvquCecdznmKPF9VrFcujcpVkoWMVqtFt9tFzQhhQNCVVsgWMdJqZeR5QQi+P5rdLFitI57rOPjRZGYtk8391ZKaJlg1ajnRChoHbou622EcjJS+SgvQ6/WSGj6Jxgve98tQqfQG04cm9kaDM4JTsjZPZVPIqaRtMH1oJFqDM4KGaA3OCP4/adFdcI322MMAAAAASUVORK5CYII=;labelBorderColor=none;" vertex="1" parent="1">
          <mxGeometry x="-782.6999999999999" y="-1043.5" width="35.4" height="40" as="geometry" />
        </mxCell>
        <mxCell id="ZXn4HNvfn6RSKJ2BFfuO-31" value="&lt;font style=&quot;font-size: 1px;&quot;&gt;state&lt;/font&gt;" style="text;html=1;align=center;verticalAlign=middle;resizable=0;points=[];autosize=1;strokeColor=none;fillColor=none;fontSize=1;shadow=1;labelBorderColor=none;" vertex="1" parent="1">
          <mxGeometry x="-790" y="-1007.5" width="50" height="30" as="geometry" />
        </mxCell>
        <mxCell id="ZXn4HNvfn6RSKJ2BFfuO-32" style="edgeStyle=orthogonalEdgeStyle;rounded=1;orthogonalLoop=1;jettySize=auto;html=1;exitX=0.75;exitY=0;exitDx=0;exitDy=0;entryX=0.75;entryY=1;entryDx=0;entryDy=0;strokeColor=#DEDEDE;strokeWidth=1;fontSize=1;fontColor=#000000;" edge="1" parent="1" source="ZXn4HNvfn6RSKJ2BFfuO-33" target="ZXn4HNvfn6RSKJ2BFfuO-35">
          <mxGeometry relative="1" as="geometry" />
        </mxCell>
        <mxCell id="ZXn4HNvfn6RSKJ2BFfuO-33" value="agent" style="rounded=1;whiteSpace=wrap;html=1;shadow=1;labelBorderColor=none;fontSize=1;strokeColor=none;fillColor=#f8cecc;" vertex="1" parent="1">
          <mxGeometry x="-699.3" y="-1038.5" width="60" height="30" as="geometry" />
        </mxCell>
        <mxCell id="ZXn4HNvfn6RSKJ2BFfuO-34" style="edgeStyle=orthogonalEdgeStyle;rounded=1;orthogonalLoop=1;jettySize=auto;html=1;exitX=0.25;exitY=1;exitDx=0;exitDy=0;entryX=0.25;entryY=0;entryDx=0;entryDy=0;strokeColor=#DEDEDE;strokeWidth=1;fontSize=1;fontColor=#000000;" edge="1" parent="1" source="ZXn4HNvfn6RSKJ2BFfuO-35" target="ZXn4HNvfn6RSKJ2BFfuO-33">
          <mxGeometry relative="1" as="geometry" />
        </mxCell>
        <mxCell id="ZXn4HNvfn6RSKJ2BFfuO-35" value="&lt;font color=&quot;#000000&quot;&gt;teacher&lt;/font&gt;" style="rounded=1;whiteSpace=wrap;html=1;shadow=1;labelBorderColor=none;fontSize=1;strokeColor=none;fillColor=#dae8fc;" vertex="1" parent="1">
          <mxGeometry x="-699.3" y="-1119.5" width="60" height="20" as="geometry" />
        </mxCell>
        <mxCell id="ZXn4HNvfn6RSKJ2BFfuO-36" value="b &amp;gt; 0" style="text;html=1;align=center;verticalAlign=middle;resizable=0;points=[];autosize=1;strokeColor=none;fillColor=none;fontSize=1;fontColor=#000000;" vertex="1" parent="1">
          <mxGeometry x="-724.3" y="-1079.5" width="50" height="30" as="geometry" />
        </mxCell>
        <mxCell id="ZXn4HNvfn6RSKJ2BFfuO-37" value="u&lt;sub&gt;s&lt;/sub&gt; &amp;gt; c" style="text;html=1;align=center;verticalAlign=middle;resizable=0;points=[];autosize=1;strokeColor=none;fillColor=none;fontSize=1;fontColor=#000000;" vertex="1" parent="1">
          <mxGeometry x="-666.3" y="-1079.5" width="60" height="30" as="geometry" />
        </mxCell>
        <mxCell id="ZXn4HNvfn6RSKJ2BFfuO-38" value="" style="shape=image;verticalLabelPosition=bottom;labelBackgroundColor=default;verticalAlign=top;aspect=fixed;imageAspect=0;image=data:image/png,iVBORw0KGgoAAAANSUhEUgAAAJoAAACuCAYAAADOFBSsAAAgAElEQVR4nO2da7BkV3Xff2vvfbr73jtvjaQBSQiDJBCyJCAWNsjEqXLKVSQpP1KpVIiTVIGJFWDQY0ZIsiMwiomFXjNCgFBsTB6O7cQf7EpcFZOquPyowhiDEViAEBYGgSRbaDSa1310n7PXyod9Tvfpvt333rkzmpm+9/ynevp299lnP85/r7X22nuvLde/5d+b6m4anH4YgAw+CV1EjoN0y6/amG3DaKdrkfJyqd9hqvHsMwcACIW9jGgXn+XibFBIIkqMOW3vge+D+1vEHwJA4/movpKou4kigOBMEJPaTYyNQLigtgVl+9kux4aDiIAYhuL8IoUeZmbmBB+660acfw4AjRdy++3/E3FbUd1KCFuxIgJSo9b0kwwgIBEsnu1ybDiYgakiTjEOkbUf5xfu/Jf48F1+6YO3AHDXXQe4++6f4oMf/A1UXwd5GGhakeH7ndnin3YEMBA92+XYkHAYpkqW5ag9Q7tzCMcCngIALwu41vN49xyBVxNVwUGlOa1mq5mMz2NaEDaKDXCuQszjzKOmOANnHSRuAQQXZ0EcXiGaQ/FghpXEGibXdD+jcLYLsPngylf9s9Sk1zjRJWwAoqXRToOXAoZJRCWC86g4lC7mloCIui5GmygeFUNF0yCicnPY8LOZZqqVEm0S0aa5amcfJoAZahmiF6DxAtQfQktDX2kT9UKiXYhKG8OgJtkGT0WGfplGyHVv/pRFu3TCz439dmowBMXJEuhhvP8eH777n+PccwgR1T38wi/+L1RfidlWoN338g7bZ9NLsUPPvgtobLQzAAGbAfag6rnzzv+O888jZqiej+pVqJ1fv3oMpr+zN0R7SZGMfDVIfovzKXozIDmJgBnI3FCKaXdjTEJDtJccgkll1AdEtmKU00xOMesBG9+P2RDtJYYNqT0FK8rvpdSI068W14KGaGcENuYFA9fSBtWXNTREe4mRKDSOXJtDklVwq1/S4PRg80mxOhqJdsYwrk9vHrI1RDsjmDR/uXnQqM4GZwQN0RqcETREa3BG0BCtwRlBQ7QGZwTBGWlmZHMNgjYZzr5zOPjCcKbJdz2GbCINA6cbNvJ+dhB2tFsQs5Fd1QM0RJt2jJtjPXN4tnwPM0WXUCxOLEJDtCmHnF2iVQgXtBxtmVyAhmfTjnOEaDusyxadn3hBI9GmHecI0Xb64+xwk8nUEG3acY4QbY5n2GbfL8u0nFSyAgkbnOs4N0gGECx/Cikj2IyDaEO06UZFspX2JQgD3/2wO0Rqf9ddYG6Ityvtsk8IrnUIZ/MTL2xU5zTDRkadk+DAWqTnr4AiaD94lpTpDShcuc1GBbFEPKsWcq7g9Q9bL4C5Xj7xgkZ1TjtWkmjVs/WgvvyqB6JlMEApKWSIKSpG4dIy9KBJqvV3eJljrER7Jr2FxdY8J/yRicVsJNq0Y5KdVltSbj5JNIngjoMopjNgGYJDMJxFTIxCSEQklurTg6WrxgvNpJLDsdntRNXJDttGok05TpZobdLk9wxmgSTVUmgHMJLJXn0GzCMkNTqeKYcBCIe3vIYj5OgEFdtItOlE9dxcSQzEhp6liOBcqS4JoG1S6MBeklbigKQfo0aKGDFN1lgQjxOPSBWCa5I0A/jfKb+XXX69FXRKo25MgRuJNpUwTeQyS5Koeq+QSFIR0iO08S7DzIhxAeePE4vn8RwCadHTl6O6FYuKmEsvXC2u23jscN8GIBxduoxCLmzmOjckSnUpw2pTbTAwMEtDR1VIXzt8Nk/kCebmnufXP3YbTndww94/gnAlJiAmOPN9sg7yGoPFkmjOX4i4iyfysiHa9GGgNqWcq05Eq743s/RCUI2oWWnYO/KFRVrtFh++5wOct/2rOH2UoriEGLfQnn01h48fIQuhz10zxcnw6Qh1bCnfA9YFXZpYaGvW4E4hKjeroKpgA6lmagQfiGp4H/AOtCiIhdLOZti2+3ywp9huf0Rr/s/I2l3UdtBuOeaPHyVDyVzERDEUyvsnabiCH23PBReSywUjXw88wcnWO/srNBusDyJJwokYLh19gA/QK46jWmCaoSqYHgcWEDlGW56mbc+wc+YporYwd4wLzztBQRelAN/mxFJgbtsFxDwvOezG0qz3nfQe2iHDkY25xDAxzIFJRbyGcNOCahBXqc68yCnynHxhCdXDvPwSpYhdYr4DbAEn38DJYcwcnexbnH/BlZD3mPEdpPcC2zuPsRhfICenxwV0Zt9AXmxNalPSjMJKA4OgecQYPtAirbYtw5D7kmAy6odpcK6imgdQjZgphhFaGa12h62zW2n5Dv/mX78VH5b4+EP/lcwf57b9/4wQXsDUsPi39PJvkXEFvV6LpcUOP/+uf0pn2yVoBofnd3PvgccAiFhSnzAyOBhGePbZp4ljD7RIRMNVkqwh2rTAREAcuDQY8MFjLjlegzmERT7wiw8Bh7n7njto+8MQn0NoJb+bXMTi/HksapHMO9eis6WNiiePBfMLyuFDJxA7hkVFNVIUxdiyXFi+y85X3GBR9owrLmmkMvi7wXQgrbJI/nwzUJRIcrgSI2gOLCFylBAO0QrHablFfDnPaeqIRQvV5LQVpzifg4+oN7rxfJa6V+PkInxp902aT98dPw1AUH+UQvzQjwKIJWJVnuX0ee1kGxwusz406defXhAwSw5VDTjAWw5EEEOdYaKItBDbTSx20nMgzoACEFxo4V2Gcx4xoyh65N0uOHDSJsScLVtOkPd6IEycWaqsMsG/2XC7yk8jV1pVY0tD5JOp9ui02smiSb/+9Fo+L01e/4ScZLkJuHLqSFzNtZBULVYkz23fXWH0p5lw6bMniTFHmY+Cjj+47hWXPA5A2H7x1RRjVWdaHlIdILPevnmqsQ2b9OtJXx6N4UoxI4ZUfi9KiVfOW2qpuSKVd6HKLc1JVguFhifNS48ENSk2aVJdS6JBB2F2QnmtzO/UbbRTtfCa9CefQkvPfXWQWXUXoVwha5TehZIwYzLppxj53QCt+VdX6xArB+JbedHkmjB9D2ijpK9UZjl5PvKrMrCUKgtpeV4DYo4ri5jVXGEra/gm4uOGxOga/jFr+ses1plMlJJG45aRkeZNq6smoSHahoSNeT9Za68aABiDZdrDTJPSrJI13DeYGZPX11aTCqMFn26ISL8XblzUldnJkUyGrq/fY9J9VrevQlWk8RnW/1pNC5/rqM3USn+gPzRsSkteRqdRprnOsH7fioz8rbXb2bKrV0NY6aKUxbSTLJXfRnq3SV5+G0grTD2mOrYhp7fu64ONSDSRug022jZrk5QhLSGZuOyRaSdZ8hNV5XdAwCzHfBeTiLNZtAi0/Ax5nqf1WVY5Nw2RavnLtLbBelGT9BOvsQnkW45VlzVauQdmGl+psXz5MnAF5hZRfwRrfZ8b7/gXLPWeYNv5XXxrgVznS+emK1ciSK0NprstTv7Fml5rxQZfPysIGeAwKVB3jBieoWg9ic19g6XsC9zwwR9jzxXPI7PfYev2BUzmERkse7G6YddgBKMDhXGvhA1ONCh92BiR9+27gRtu/hm09W3eufdt0HmaPPtr3vzjF/H2d/44XX0OcT3yolemXd5gDUaxEsk2CdGS46aLuBwR+MTH78V3nuPWO9+OtI7R0xfJZhaY296D7AitThelh3eOEDwzMzMEH8aMRBucLDZ4CxppDWgO0kOty9zcDL1eJLgZMr8db7vIu3O0wk6ueM21mHp27NiNRqW7tISZ9SeeG6wfG5xoAIJZQeQYN++/mWJxNx/90O+QFa+gHS/j4Xv+mE8f/DwfvfO3ee57Qifs4qKLf4B2Z5bOzAwi1Zq8BqeCDT4FNcyQ3/nt3+Xvnvse8ApCvJQH73sQl7+SpWIb2dwOgpxHpxPpdXv0ul3yojeyo7vBerGBiVZ3OgbQLTz9naMUFqCY5Td/7Q+JC3vQPDA3s4v5I0vsft3Lmb14C49/9auICEWMtDK/UiYN1ogNTLQKgpMUfkkto+VatLeez9HnocMeLAi9RWHPRZfhXcbxY0e55NJX4IPn209+k+7SUmOjnQZsYKKVa6kkLaoTEYJ4YszIF6HTmgERTIStW2d41atey5EXX+TJb36NdivD+4wT8/N0Wu2zXI+NgQ1MtBR7QkthZFotWw4YQq9rvPn6t3L06FG2bd/OoUOHePKb32DL3BwLSwuows4dO5mfnxwav8HasaGJpmZDy4GSp18pYkHUyP/7w89w4fkXkrVaLMzPk2WepV6XNFI15ufnS7I2qvNUsQncG8MQccx2ZoiqvOpVl7Fr9/m8cOh55hdPkJYKpeuqiDsNyU4PNiHRUoSduc4MGiNPP/VtFpcW0kJSTbvIpDlT8rRjUxGt8oWpGc47vvPtJ+nmPbbObcWJK9Ws1FZvNDhd2HCt6UT6geEAqvV29eB0ABqV2dktOBFiP0jJ6Jr4RrKdLmw4oq0V1SChkVxnBhtu1LlW412t5mejkV4vNTZdd25GkWcHG06inX1Ifyp/dD29k8FiwHpk7M2AhminAXWncJ1MQop/IeUAZePvJZ2MTac6Tz+WL1/W2kDDu4CZYFaFfRoTnmAToCHaKWJ4k7VDJMMMIj0KW0ItRyQdczO8b+h0SbdTj/R0JtAQbd2Q5OTFcCL08oIdOy4A2hgek0VUjhNZwqQgy6TcwxCxFQ9pPRm8FMR9adAQbZ0ws76j1znHti3bWVw8RsFRNDyHtp/ihn3/BGt9n+gOU/AiJvMgBec6KV4KNERbJ7xzBO8JwSNOOLEwD36JV17lyVtf4KYPXc/Mnq9z4WXz5K3vkvunUX8Io1u7y6naaTLh73MPzahzHTAzomkp1QpEPDPtLVx6+S7e+rZtvG1bhxPF4wRp8VM/+yN84v7f4qb33Yku7OCTB34PsVlGY/asH+c2wSo0Em0d8M7jyhGlk0CnNYOZ8cQ3vkToHEL937Fl2yySOaz1Iu+7/e0s2bM8/J/uxiRFvZ4Oepw+NEQ7aZTBg8Uj4slCGxCuuPJ1tLM2nWwXTs+jt7AT8l1YDJgZs7NzdHs5g3gem8tSa4i2KqT2zyFIuTgyvV/zhutQVf76G39F0W1x8Jf/Lx/95c/x0C99Blm8nFZxKZ+8/39QLGzn9lvvRqw6d2tzUa2x0VbB8pBVSaKlE32FWEQ6nVmOnXiBVquDjy8H3Uo3zvHIA7/Hjfv2ogt7+Ng9v4W3HXh2rZjfRl06LtsuvdEKefnZLsc5iyrOfv0bSC6NxW4XVbj+R/8B3ht/8fk/BTEii3T1RWZnMvIcUI+jhZDhrAW2efaK7taHgUairRHDEkbNaGUZ17z29czNbUvH1+RKUUAIAUcHejO053ZiMZKauRwAbDxhtSY0Em0iKvfD8lCaZtVhbOl0Gu8Cb7zuLXgX+PPPfRYR6HQCedFFNZZxcidF69/YqCRaMxhYMwaT4fVFks4Jaspjj36RXt7j9W+4jmuu/SGuuvqHEAs0Z4UnNKpzIqrTQOrSqE4a7Uu7tFe0x6Nf/DMuu/xKnnji6wTvcK4WzXqTo+lupwFJwqVZgieeeIw3v+X6dIBcGXB5s7kyxqEh2kQkz1k6rkvL91i+inIFRhlCWZJPrZW1aLfafPWxR3nd1VenVbTNEeFAozonYvkU0STJNNjcIuJY6i0hInz9sb8qk222yabxaIh2mpBCKCit0CLG6lyWMux8g4Zopx+y7K+1HvqwkdEQ7bRjeNVrQ7KEZjDwkqMhGTREa3CG0KjOU8bw9JIOBf5bacQ5eh7mxkYj0U4Jg5VqRlrRUUUrCj6NOKtNw26IdNOze+l0oSHaBEx2s5aE6Ttik//MieCcBwIijsIWUBYxibWwWadyPtx0oyHaREx2ziYoiKLlJpUU3C9DpIOJYP4EZMfwIc0ppOhYVqYzEB1z/42LhmgnjcnB+pw3ojuCZc8R29/i3bf9NLsvbqP+BF07RJSjmMTBbIE0RGuwIgRHAPM4ERa6iywsLtKLh3nZq5fIZ/6Cm+66Ht3yl3zvhT/DOs/R9U9ShGcwyZFyIWTC5iBbM+pcFwS1asucMNeZQbzj1Vfu5Efftg3mZrDOd1HvefdtP8kn7v0N9n/gZmxpO5+4+zM1J66yWfr65qjlaYYZmAlqDucCC90lVHO+/KU/YevOeXznML3YxVwXa3+HG+/8GQo5zEMP3YdJgUlaBbKZBgQN0daBFJDZMdOeIUal02rzuquvYueu8yi6bSzfxeKRbcTu9nKfwFKKj6blnlCS8h13unF1vsFGi6XWEO2kUZFDWVia59o3XkcWAo995QssnhA+9it/yMMf/hKfPvAl4ouX47uX8vF7fxNXbOfGvXfgrJX2dlavMYOLehTxjYLGRjtJ1B9/VCUWhpnDiUeYgzgHcQcaj/Kr9/4+++54L657ER+9+7/h4i68XQLlZmTbRKqz2QV1kqgUX1rkWIAFrv/RHyPaPF959HPgCpActS6LveN4b3jnMA14ZhHbglhWTlUtJ9m4DcQ2EkF8mtDs61wn0oGxykynw+WvvZqtc7swBbMAGjixsIj36RS9TtiNmKAFOBzgynNDJ29YGbdLfRoJNoqGaCeJtKdT6PW6PPH1xzBzdNozvPFNb+IHr3kTX3n0C+UOqLQ7KmrEY31ybdY9Uc1gYB1w5bylSNrXGWPOZ//0jwm+xXXXvZXLLruaK6/6e2zZeh5mHjNHWtZdD5a8udBItHWhUm+KmMPUaPmML37+c/zgNW/gO3/zJMfmjxK8gAPvTk/IvWlGI9HWif6IUQYrMaJGnvj6Y7ziB16VpJ13/eVCmx0N0U4R9UjbnVaGiPHdp57kyquuLvd7blarbBiN6jxJjC5ZrLYYi1QefVg4scAz3/12/+pGnjVEWweWUw106LS8Viuw1F0or9g8TtmV0BDtFGFYLSot1N1gjTwboCHaKWN5BLUGy9EMBhqcETQS7TTBiVu2tKdRnQM0RDsNqELCiwx8ZmZWjkgbQEO0U0a1gLESZiKOzbRydq1obLRTwCDsqKDl8m6RDDVQ6WGuV26r25zzm3U0RFsnpFz205mZ7TtqwROjT8dbh3kknEBc8rWlhZEr/9vIhGyIti6kxYlFjBw9dqR/bicSUXeEJZ4ibz3Ju/b9I3J3iOhOUMhxVJbKkKTLj8ceHES2McnWEG1dSKcOZ8HTzkIZfVuY2waXvz4g2x9l7y/9MDN7voHf9jTafo6ePAP+RcTlK9x345KtIdo60N/6W4ZCMDNm2jP8wOUX89Z/+Er2feCn6bm/4XjxTd5x0z8ml79h/53/ivfs+1kiS6vefSOSrSHaupBI0G516OWxfOV8/WtfYMfuHrn9LaGV0Ys5YcuL3HDbT9Jz3+KBA/sx6a5y73T/jUa2hmjrQnJdHDt+nLnOVrZv2cm1b3gTGj3HjoDXC7Hey6A4jzzPmZlzQC8tsl3V7TFwjWwcmjVEWxcSDZRWq8VV11xH3jP+8oufx9tOHrn/sxz8wGd56MN/woxdQzyxiwf/46+i3Z384h331c7rHH9nK/+v/m2UUWnjsF0nqsB7ZkbWarFwYp5QZIi8DJjF9xb5xD2/y95b/i2z/go+9dDvY90tiO2p3WH5PcdLvEqRTu9Mg2y79CaLzb7OsVhtrtJJIC+EH/7hv4/zjs//+R+hvks3HqPVsRRjQx1iHlHBWYazDmJ+zfOgw5LMpo5qI/s6p1ckv3RYOfynGbzmqh9kx47dzJ9YJJAR1Zib3Ur3RA+vnqiGWBvB48xq53VuvimqRnWORf18gOWkcOJAHN98/Gt4l5EXkWvfcB1vfOOP8M3HH2dHZw9qXTwR7ae1tJfljNbj3EEzGFgHtPSfqSp50QOMrzz6BQCuvvaHeO3rruWyK67GS5Z2DOsoydZq2I9eM70DgkaijUV1rt2khyr9KNspVprinOfLj36ey664kmeffoqi6BG1AGKVYuQOq9mAo760wadpXOfWSLSJ6IdzgXICnX78DCkJBtWO9SpUwveeepJXv+Y1HHvh78hj3g9XW5nxddfFaqhWtI3+m0Y0Em1FVFJkJXWV6GhAq9XCh8BffeVLvP4tP8bXvvrlRIsqNnL/1GJjbSqwZt/1o3ZMq+qUiMpKE70NVn+4gohnvrtIsVDgg+PLX/xT2nNz5ebiSuXVBxer2Vv1YMr1Acl02mkhsoj5xbNdjnMUdTUlK5lTGEJo0Y8c5LaAuYXBJSKYDhNmlC7LTjVwVZr6r6unm1jIs4jQmu2Ru+NntRDnNuqSZMyvI2c/2cjR1pNSCyxjyFoOK15furMoBXvpLZAdRv1aVhRsVqxMtCH0owbVyLfKXcd+X9Oaa5VeQ+lqXw7GqnJW/XhBWi8i4cRZyv4cxzLxMengsPJXWU60k360I5ev+XCVMdnU0wrSF31ng2xBWkdw2XQOmV9y9Ik2KtXGTyGlyEGjeztl7U+22kk1mstq6UfSjUKspjrP0qMOyhHU9fpfDIzP8RA3Ehd/levXkr76bi33Gk2/njKstTxgmOmyGLI2IdBxPVZaSi0gJ2cfjYbsWxPRxqSrFykJskE5zqxE2wJAQE4Ag1GnrSKrR8c8q12/lvTVd2u51zif1smWYa3lSTxZrgb7Mc+WFWUcAddONOeSHVWPwr0WB+1ouqHI3hXJbFAn+rMap0e8ycj9Uly46t4V0awAywFBTAiVHh/pSlaqERMdjKxGpHGtDhOx7DGUnd4UvJVTNTba92zQs6XuXV9+zzECbzh/G07TL3uZgTfBma81VE1CSSKiI+1l6j/Lcn5lLO/GSr4xBbcUuTuFKpV00mL1wMo69+su9fIMZ1zxalnfq57VCNGq68Skb8dJfxg7XFATA7FlZejfe+i5DRcgiAactsr1Uh4pHJnLiL0irVIgFcwE1CnqYnpJgUpE3OCBp6kYykZa3r5VYZYRUx3OHE491jMy1yobvXIZpEqqU6IWKf8yyqKWjV3dSzX9PSlsbL+D9wuUyO3UIeqxniO4dmqLqk5l51KnFPRQF3ESUVHKftFvWiGVoSK82jD5h1wRQvlgU/0pAtoTMtfG40EVsXQuqImm+rv0bqJY+V4AzpEmD+qTCP1yST9vE+vPT4iUk2palkE9LgacesSEVmhRxAIw1Bkqkehy1EVAy++gbyGU+Y+bJQ5Z3i4rKjj1vPfn92I9I7hALGL/QauAivLIpz+JunRwlroC9UX5IMpcxIY7slQPs3q6pWIqG1jUlxVzSHTsveFGLDeCeLSI+BAwDC0f9Cc/9XDK30WiFINGn5Q/STqYppxF3EBal40rVi5OLBx7b7gJyyFIRiwiIbj0cESJLvJIPX9yLCQpLy7lb6ZDcqAimZUdoDLMk3DweMsQDWX9fcq/ZwQJaFHgxRAUFSM65ZFf/2QinJQdLihR0oOX2rhjVOEbldSqSWJzuEJouzaag1fPe961F0/A4/qENTEisV//6ApUikT6oERiqlt/5ny5rpF7HvoVU0mN43E48xCFGJUsa6Vd2FIujRFNDWwFiBFdwSf/yyPEsuHVRaKkHk8pBawS41EQS6QiJhXhY8Z73rGXFi2Cy4g9JUgGKsRCybKMvqIsJYtKxFyEsuIP/+dHiC5irkBdQZTU40xiv9XFJOWvAacBiYlYPgbe/Y69ZLQIIRB7kSChzD+ShWxYEki6b3ql+t91739gzyXnJwlPTkE3PYQh6yrl79TjNAzV/93veF+qv6/yT0uLtIi0QpakWjV5JQq+bANRCh/5+KcfpnCpTUxiv+Nrqeb68syS1HYakFJi+Zjxvp+7CckdQQLOHBKFzGcsLS7RarUw05H2r56rUviCj3/6YxS+SN+5WHbCdB0C533rotQCBx64zyDpaicOzBFCRq+XE7J0lEyfn2KYFeVIDMwbuS/QYIiH6Ao+9siDSdKJ9skGUqqmwL/7uXfjNFXKx8Cc24L2FItGpzPL4kKX4DOiKu12mzzPB1KKSnIpziXiF8HQoJgzdFn+1idaRfIb3vlevHpcSbQq/6iRmc4MiwuLBB9QjbTabfK8qNmnBsT+fVUiXd9FvZZmRcEjn/pEKfGrurtSepf5/9x7E+H69d+KdQ2NkU5nhsXFMv8Y6bTbxLyo2VtpeXh1XHZ0StcVFCX5ooulxolDEh6Tvsa64Z3vwZemSqYtsqKN17S2wmI6TmjUwVJfgVI2KEZ63l3f7RNtNH8TY9v3dqUkB+9/wMq0JdLq0aiKD75vz1RDejPFSaUCkkqrBgcq1WBhMGDojwhNkh1mqTdRGp9Oqx0+Vd8ro/MwGIBUBmgyABQMvFTXpDyqv7WuRktpUjdynbm+TSTlA6iUy/LRa9mTa6ogqUbD4UuTQst6L89/kLbcx2RlhzNXfi7NhoHMGhocDpscqVXKWvfVoZU/V88hulhKs/IGNQPdlfm7flukMgigpogrjwgqdXA9/m79dO5+mcr6m6R1xEmlJ9vNSBLt1z7yawCEYctY+kai92mHz2jTJ6lHSZQ0Uhx6NEMPa+ThGcnoHTIVBxUZ2O9Wu8T6r2TIu37DiYGrlb3McXmj1IbHfVr3rfJa/jZirAOYDbk4nCTbTnCIgohL2zXH5F99rqvwIedpLd1AiIwbwQzKD4N7OKBvjVMR3YaqNppTVQYZ3BAjhXjol1VqXUsG19ULWpHNm6fcsIrFAeHr9wAIfc/1UP3KYW/5/WgvAxlbmVJRjd4qcVkVEZd64JBTdOT66tuRwUS9ySraSa3XDggzuJuN1EvKXmqlRpuIWoX7WVTD+b7EHeSfCN3vIkPlhCp2WkonQw1nDCzuVOnlLsHlI7jK0zeiirBS4q3kVuy7RKy6U01aU5bT+gNixGxAwHo7VzeUQT2r/2WgjvroL3ysJApYIoKUo7VK/EoasSEM+aKckyHHX5KINVL0/RnSX4W6llUKZQpE0sCkP3tQb7RaZQffDEu0Qb0Y+Hlk+D7DeQrLnuyoXKg6IPUHsnoCTNIAAAONSURBVLxg/d9qEnX4Ihv+0sZkvSyhjCm/1d5XYBmjbTbp+pI05UBwWH1Xl6Taj6Ye1hYDhHpGBn1DGEBLyVOXPQPrIJ2SWwU5MTOcK6Md1vKpTtPN8yIZmqV31myEkJXhPtQaZR+rpJ/U/fjL+/mo806EmgSpkgx63lgsc3RRPtthog9NSw2p3LooltrfdRVcSYX6/Wvp6twbUaUymnZ811sBI6bNKr/XlcKg5az2+/ISjcOypdw+eCzXRBw/0C9Vhavpl3RuZYF3KW5r1sro9Xq0WhlmisZ0XV7kBD/IRlzqDM57YlFMDMUpZSioSs2aGjEOXBbDz8VGvqw3TP1rGf3l5DHu+fYxrn8PEozpGhPTVZtfxp/VebLkWin9Kr+Pk7IiQ9esZQZwiGgiQrfbRURw3nHLzbeQZRndvMvBBw5yy75bOPDAAfbt38eBBw5w6/v38eDBj7J/360cPHiQ22+/rdz5Q7p+/y1457n/vvv5hTvu4N577kGjsm//Pu67736885glp/Cyh1BOlIsTfuInfoI8z2m326vX6JzCZGqtFX/wf/5gwh3WQ7DTiZPrrH2iiUipJtMNYhERJ3zkIx9h3/59hCzDMG7Zf0stK2HfvvS5WuXw4MEHh37/yEfuQZxQFDnvv+02Dhw4kDIOfnjVxYR2ExGcc4g4YhFPqnINXiKsg+NDY6/R5Tb12filpSUOPnAQYPB+8CAi0iePmZKFjJtvuRnTNFp5/223poyco4g5t9xycz+vgTq2ZbZIHSIOEcEHnzrDJnptFAxmp8oHnYWsP+rMQpYqLIJ3jlvffyveefbt34e4ZOBHHUiZqJG8yPuT8d55Hv54CvIxNzvHXR+6C9U0pdFut/v2RzVgGAcRh2qk3W7jnCeEDO/DpnltFCzzJnW7XXp5j1YrzdzfftvtBB+Sm0Ej9917H4ZRFJHgfTkYSPDOs3//ftS0T9z37H0PIsLxE8eZmZnhvvvux4lLtqCbTLAKqpGiiKjGvuQz003z2iiQA/cfWKazKnutKCJZFvquCecdznmKPF9VrFcujcpVkoWMVqtFt9tFzQhhQNCVVsgWMdJqZeR5QQi+P5rdLFitI57rOPjRZGYtk8391ZKaJlg1ajnRChoHbou622EcjJS+SgvQ6/WSGj6Jxgve98tQqfQG04cm9kaDM4JTsjZPZVPIqaRtMH1oJFqDM4KGaA3OCP4/adFdcI322MMAAAAASUVORK5CYII=;labelBorderColor=none;" vertex="1" parent="1">
          <mxGeometry x="-560.3" y="-1049.5" width="35.4" height="40" as="geometry" />
        </mxCell>
        <mxCell id="ZXn4HNvfn6RSKJ2BFfuO-39" value="" style="shape=image;verticalLabelPosition=bottom;labelBackgroundColor=default;verticalAlign=top;imageAspect=0;image=data:image/png,iVBORw0KGgoAAAANSUhEUgAAAJoAAACuCAYAAADOFBSsAAAgAElEQVR4nO2da7BkV3Xff2vvfbr73jtvjaQBSQiDJBCyJCAWNsjEqXLKVSQpP1KpVIiTVIGJFWDQY0ZIsiMwiomFXjNCgFBsTB6O7cQf7EpcFZOquPyowhiDEViAEBYGgSRbaDSa1310n7PXyod9Tvfpvt333rkzmpm+9/ynevp299lnP85/r7X22nuvLde/5d+b6m4anH4YgAw+CV1EjoN0y6/amG3DaKdrkfJyqd9hqvHsMwcACIW9jGgXn+XibFBIIkqMOW3vge+D+1vEHwJA4/movpKou4kigOBMEJPaTYyNQLigtgVl+9kux4aDiIAYhuL8IoUeZmbmBB+660acfw4AjRdy++3/E3FbUd1KCFuxIgJSo9b0kwwgIBEsnu1ybDiYgakiTjEOkbUf5xfu/Jf48F1+6YO3AHDXXQe4++6f4oMf/A1UXwd5GGhakeH7ndnin3YEMBA92+XYkHAYpkqW5ag9Q7tzCMcCngIALwu41vN49xyBVxNVwUGlOa1mq5mMz2NaEDaKDXCuQszjzKOmOANnHSRuAQQXZ0EcXiGaQ/FghpXEGibXdD+jcLYLsPngylf9s9Sk1zjRJWwAoqXRToOXAoZJRCWC86g4lC7mloCIui5GmygeFUNF0yCicnPY8LOZZqqVEm0S0aa5amcfJoAZahmiF6DxAtQfQktDX2kT9UKiXYhKG8OgJtkGT0WGfplGyHVv/pRFu3TCz439dmowBMXJEuhhvP8eH777n+PccwgR1T38wi/+L1RfidlWoN338g7bZ9NLsUPPvgtobLQzAAGbAfag6rnzzv+O888jZqiej+pVqJ1fv3oMpr+zN0R7SZGMfDVIfovzKXozIDmJgBnI3FCKaXdjTEJDtJccgkll1AdEtmKU00xOMesBG9+P2RDtJYYNqT0FK8rvpdSI068W14KGaGcENuYFA9fSBtWXNTREe4mRKDSOXJtDklVwq1/S4PRg80mxOhqJdsYwrk9vHrI1RDsjmDR/uXnQqM4GZwQN0RqcETREa3BG0BCtwRlBQ7QGZwTBGWlmZHMNgjYZzr5zOPjCcKbJdz2GbCINA6cbNvJ+dhB2tFsQs5Fd1QM0RJt2jJtjPXN4tnwPM0WXUCxOLEJDtCmHnF2iVQgXtBxtmVyAhmfTjnOEaDusyxadn3hBI9GmHecI0Xb64+xwk8nUEG3acY4QbY5n2GbfL8u0nFSyAgkbnOs4N0gGECx/Cikj2IyDaEO06UZFspX2JQgD3/2wO0Rqf9ddYG6Ityvtsk8IrnUIZ/MTL2xU5zTDRkadk+DAWqTnr4AiaD94lpTpDShcuc1GBbFEPKsWcq7g9Q9bL4C5Xj7xgkZ1TjtWkmjVs/WgvvyqB6JlMEApKWSIKSpG4dIy9KBJqvV3eJljrER7Jr2FxdY8J/yRicVsJNq0Y5KdVltSbj5JNIngjoMopjNgGYJDMJxFTIxCSEQklurTg6WrxgvNpJLDsdntRNXJDttGok05TpZobdLk9wxmgSTVUmgHMJLJXn0GzCMkNTqeKYcBCIe3vIYj5OgEFdtItOlE9dxcSQzEhp6liOBcqS4JoG1S6MBeklbigKQfo0aKGDFN1lgQjxOPSBWCa5I0A/jfKb+XXX69FXRKo25MgRuJNpUwTeQyS5Koeq+QSFIR0iO08S7DzIhxAeePE4vn8RwCadHTl6O6FYuKmEsvXC2u23jscN8GIBxduoxCLmzmOjckSnUpw2pTbTAwMEtDR1VIXzt8Nk/kCebmnufXP3YbTndww94/gnAlJiAmOPN9sg7yGoPFkmjOX4i4iyfysiHa9GGgNqWcq05Eq743s/RCUI2oWWnYO/KFRVrtFh++5wOct/2rOH2UoriEGLfQnn01h48fIQuhz10zxcnw6Qh1bCnfA9YFXZpYaGvW4E4hKjeroKpgA6lmagQfiGp4H/AOtCiIhdLOZti2+3ywp9huf0Rr/s/I2l3UdtBuOeaPHyVDyVzERDEUyvsnabiCH23PBReSywUjXw88wcnWO/srNBusDyJJwokYLh19gA/QK46jWmCaoSqYHgcWEDlGW56mbc+wc+YporYwd4wLzztBQRelAN/mxFJgbtsFxDwvOezG0qz3nfQe2iHDkY25xDAxzIFJRbyGcNOCahBXqc68yCnynHxhCdXDvPwSpYhdYr4DbAEn38DJYcwcnexbnH/BlZD3mPEdpPcC2zuPsRhfICenxwV0Zt9AXmxNalPSjMJKA4OgecQYPtAirbYtw5D7kmAy6odpcK6imgdQjZgphhFaGa12h62zW2n5Dv/mX78VH5b4+EP/lcwf57b9/4wQXsDUsPi39PJvkXEFvV6LpcUOP/+uf0pn2yVoBofnd3PvgccAiFhSnzAyOBhGePbZp4ljD7RIRMNVkqwh2rTAREAcuDQY8MFjLjlegzmERT7wiw8Bh7n7njto+8MQn0NoJb+bXMTi/HksapHMO9eis6WNiiePBfMLyuFDJxA7hkVFNVIUxdiyXFi+y85X3GBR9owrLmmkMvi7wXQgrbJI/nwzUJRIcrgSI2gOLCFylBAO0QrHablFfDnPaeqIRQvV5LQVpzifg4+oN7rxfJa6V+PkInxp902aT98dPw1AUH+UQvzQjwKIJWJVnuX0ee1kGxwusz406defXhAwSw5VDTjAWw5EEEOdYaKItBDbTSx20nMgzoACEFxo4V2Gcx4xoyh65N0uOHDSJsScLVtOkPd6IEycWaqsMsG/2XC7yk8jV1pVY0tD5JOp9ui02smiSb/+9Fo+L01e/4ScZLkJuHLqSFzNtZBULVYkz23fXWH0p5lw6bMniTFHmY+Cjj+47hWXPA5A2H7x1RRjVWdaHlIdILPevnmqsQ2b9OtJXx6N4UoxI4ZUfi9KiVfOW2qpuSKVd6HKLc1JVguFhifNS48ENSk2aVJdS6JBB2F2QnmtzO/UbbRTtfCa9CefQkvPfXWQWXUXoVwha5TehZIwYzLppxj53QCt+VdX6xArB+JbedHkmjB9D2ijpK9UZjl5PvKrMrCUKgtpeV4DYo4ri5jVXGEra/gm4uOGxOga/jFr+ses1plMlJJG45aRkeZNq6smoSHahoSNeT9Za68aABiDZdrDTJPSrJI13DeYGZPX11aTCqMFn26ISL8XblzUldnJkUyGrq/fY9J9VrevQlWk8RnW/1pNC5/rqM3USn+gPzRsSkteRqdRprnOsH7fioz8rbXb2bKrV0NY6aKUxbSTLJXfRnq3SV5+G0grTD2mOrYhp7fu64ONSDSRug022jZrk5QhLSGZuOyRaSdZ8hNV5XdAwCzHfBeTiLNZtAi0/Ax5nqf1WVY5Nw2RavnLtLbBelGT9BOvsQnkW45VlzVauQdmGl+psXz5MnAF5hZRfwRrfZ8b7/gXLPWeYNv5XXxrgVznS+emK1ciSK0NprstTv7Fml5rxQZfPysIGeAwKVB3jBieoWg9ic19g6XsC9zwwR9jzxXPI7PfYev2BUzmERkse7G6YddgBKMDhXGvhA1ONCh92BiR9+27gRtu/hm09W3eufdt0HmaPPtr3vzjF/H2d/44XX0OcT3yolemXd5gDUaxEsk2CdGS46aLuBwR+MTH78V3nuPWO9+OtI7R0xfJZhaY296D7AitThelh3eOEDwzMzMEH8aMRBucLDZ4CxppDWgO0kOty9zcDL1eJLgZMr8db7vIu3O0wk6ueM21mHp27NiNRqW7tISZ9SeeG6wfG5xoAIJZQeQYN++/mWJxNx/90O+QFa+gHS/j4Xv+mE8f/DwfvfO3ee57Qifs4qKLf4B2Z5bOzAwi1Zq8BqeCDT4FNcyQ3/nt3+Xvnvse8ApCvJQH73sQl7+SpWIb2dwOgpxHpxPpdXv0ul3yojeyo7vBerGBiVZ3OgbQLTz9naMUFqCY5Td/7Q+JC3vQPDA3s4v5I0vsft3Lmb14C49/9auICEWMtDK/UiYN1ogNTLQKgpMUfkkto+VatLeez9HnocMeLAi9RWHPRZfhXcbxY0e55NJX4IPn209+k+7SUmOjnQZsYKKVa6kkLaoTEYJ4YszIF6HTmgERTIStW2d41atey5EXX+TJb36NdivD+4wT8/N0Wu2zXI+NgQ1MtBR7QkthZFotWw4YQq9rvPn6t3L06FG2bd/OoUOHePKb32DL3BwLSwuows4dO5mfnxwav8HasaGJpmZDy4GSp18pYkHUyP/7w89w4fkXkrVaLMzPk2WepV6XNFI15ufnS7I2qvNUsQncG8MQccx2ZoiqvOpVl7Fr9/m8cOh55hdPkJYKpeuqiDsNyU4PNiHRUoSduc4MGiNPP/VtFpcW0kJSTbvIpDlT8rRjUxGt8oWpGc47vvPtJ+nmPbbObcWJK9Ws1FZvNDhd2HCt6UT6geEAqvV29eB0ABqV2dktOBFiP0jJ6Jr4RrKdLmw4oq0V1SChkVxnBhtu1LlW412t5mejkV4vNTZdd25GkWcHG06inX1Ifyp/dD29k8FiwHpk7M2AhminAXWncJ1MQop/IeUAZePvJZ2MTac6Tz+WL1/W2kDDu4CZYFaFfRoTnmAToCHaKWJ4k7VDJMMMIj0KW0ItRyQdczO8b+h0SbdTj/R0JtAQbd2Q5OTFcCL08oIdOy4A2hgek0VUjhNZwqQgy6TcwxCxFQ9pPRm8FMR9adAQbZ0ws76j1znHti3bWVw8RsFRNDyHtp/ihn3/BGt9n+gOU/AiJvMgBec6KV4KNERbJ7xzBO8JwSNOOLEwD36JV17lyVtf4KYPXc/Mnq9z4WXz5K3vkvunUX8Io1u7y6naaTLh73MPzahzHTAzomkp1QpEPDPtLVx6+S7e+rZtvG1bhxPF4wRp8VM/+yN84v7f4qb33Yku7OCTB34PsVlGY/asH+c2wSo0Em0d8M7jyhGlk0CnNYOZ8cQ3vkToHEL937Fl2yySOaz1Iu+7/e0s2bM8/J/uxiRFvZ4Oepw+NEQ7aZTBg8Uj4slCGxCuuPJ1tLM2nWwXTs+jt7AT8l1YDJgZs7NzdHs5g3gem8tSa4i2KqT2zyFIuTgyvV/zhutQVf76G39F0W1x8Jf/Lx/95c/x0C99Blm8nFZxKZ+8/39QLGzn9lvvRqw6d2tzUa2x0VbB8pBVSaKlE32FWEQ6nVmOnXiBVquDjy8H3Uo3zvHIA7/Hjfv2ogt7+Ng9v4W3HXh2rZjfRl06LtsuvdEKefnZLsc5iyrOfv0bSC6NxW4XVbj+R/8B3ht/8fk/BTEii3T1RWZnMvIcUI+jhZDhrAW2efaK7taHgUairRHDEkbNaGUZ17z29czNbUvH1+RKUUAIAUcHejO053ZiMZKauRwAbDxhtSY0Em0iKvfD8lCaZtVhbOl0Gu8Cb7zuLXgX+PPPfRYR6HQCedFFNZZxcidF69/YqCRaMxhYMwaT4fVFks4Jaspjj36RXt7j9W+4jmuu/SGuuvqHEAs0Z4UnNKpzIqrTQOrSqE4a7Uu7tFe0x6Nf/DMuu/xKnnji6wTvcK4WzXqTo+lupwFJwqVZgieeeIw3v+X6dIBcGXB5s7kyxqEh2kQkz1k6rkvL91i+inIFRhlCWZJPrZW1aLfafPWxR3nd1VenVbTNEeFAozonYvkU0STJNNjcIuJY6i0hInz9sb8qk222yabxaIh2mpBCKCit0CLG6lyWMux8g4Zopx+y7K+1HvqwkdEQ7bRjeNVrQ7KEZjDwkqMhGTREa3CG0KjOU8bw9JIOBf5bacQ5eh7mxkYj0U4Jg5VqRlrRUUUrCj6NOKtNw26IdNOze+l0oSHaBEx2s5aE6Ttik//MieCcBwIijsIWUBYxibWwWadyPtx0oyHaREx2ziYoiKLlJpUU3C9DpIOJYP4EZMfwIc0ppOhYVqYzEB1z/42LhmgnjcnB+pw3ojuCZc8R29/i3bf9NLsvbqP+BF07RJSjmMTBbIE0RGuwIgRHAPM4ERa6iywsLtKLh3nZq5fIZ/6Cm+66Ht3yl3zvhT/DOs/R9U9ShGcwyZFyIWTC5iBbM+pcFwS1asucMNeZQbzj1Vfu5Efftg3mZrDOd1HvefdtP8kn7v0N9n/gZmxpO5+4+zM1J66yWfr65qjlaYYZmAlqDucCC90lVHO+/KU/YevOeXznML3YxVwXa3+HG+/8GQo5zEMP3YdJgUlaBbKZBgQN0daBFJDZMdOeIUal02rzuquvYueu8yi6bSzfxeKRbcTu9nKfwFKKj6blnlCS8h13unF1vsFGi6XWEO2kUZFDWVia59o3XkcWAo995QssnhA+9it/yMMf/hKfPvAl4ouX47uX8vF7fxNXbOfGvXfgrJX2dlavMYOLehTxjYLGRjtJ1B9/VCUWhpnDiUeYgzgHcQcaj/Kr9/4+++54L657ER+9+7/h4i68XQLlZmTbRKqz2QV1kqgUX1rkWIAFrv/RHyPaPF959HPgCpActS6LveN4b3jnMA14ZhHbglhWTlUtJ9m4DcQ2EkF8mtDs61wn0oGxykynw+WvvZqtc7swBbMAGjixsIj36RS9TtiNmKAFOBzgynNDJ29YGbdLfRoJNoqGaCeJtKdT6PW6PPH1xzBzdNozvPFNb+IHr3kTX3n0C+UOqLQ7KmrEY31ybdY9Uc1gYB1w5bylSNrXGWPOZ//0jwm+xXXXvZXLLruaK6/6e2zZeh5mHjNHWtZdD5a8udBItHWhUm+KmMPUaPmML37+c/zgNW/gO3/zJMfmjxK8gAPvTk/IvWlGI9HWif6IUQYrMaJGnvj6Y7ziB16VpJ13/eVCmx0N0U4R9UjbnVaGiPHdp57kyquuLvd7blarbBiN6jxJjC5ZrLYYi1QefVg4scAz3/12/+pGnjVEWweWUw106LS8Viuw1F0or9g8TtmV0BDtFGFYLSot1N1gjTwboCHaKWN5BLUGy9EMBhqcETQS7TTBiVu2tKdRnQM0RDsNqELCiwx8ZmZWjkgbQEO0U0a1gLESZiKOzbRydq1obLRTwCDsqKDl8m6RDDVQ6WGuV26r25zzm3U0RFsnpFz205mZ7TtqwROjT8dbh3kknEBc8rWlhZEr/9vIhGyIti6kxYlFjBw9dqR/bicSUXeEJZ4ibz3Ju/b9I3J3iOhOUMhxVJbKkKTLj8ceHES2McnWEG1dSKcOZ8HTzkIZfVuY2waXvz4g2x9l7y/9MDN7voHf9jTafo6ePAP+RcTlK9x345KtIdo60N/6W4ZCMDNm2jP8wOUX89Z/+Er2feCn6bm/4XjxTd5x0z8ml79h/53/ivfs+1kiS6vefSOSrSHaupBI0G516OWxfOV8/WtfYMfuHrn9LaGV0Ys5YcuL3HDbT9Jz3+KBA/sx6a5y73T/jUa2hmjrQnJdHDt+nLnOVrZv2cm1b3gTGj3HjoDXC7Hey6A4jzzPmZlzQC8tsl3V7TFwjWwcmjVEWxcSDZRWq8VV11xH3jP+8oufx9tOHrn/sxz8wGd56MN/woxdQzyxiwf/46+i3Z384h331c7rHH9nK/+v/m2UUWnjsF0nqsB7ZkbWarFwYp5QZIi8DJjF9xb5xD2/y95b/i2z/go+9dDvY90tiO2p3WH5PcdLvEqRTu9Mg2y79CaLzb7OsVhtrtJJIC+EH/7hv4/zjs//+R+hvks3HqPVsRRjQx1iHlHBWYazDmJ+zfOgw5LMpo5qI/s6p1ckv3RYOfynGbzmqh9kx47dzJ9YJJAR1Zib3Ur3RA+vnqiGWBvB48xq53VuvimqRnWORf18gOWkcOJAHN98/Gt4l5EXkWvfcB1vfOOP8M3HH2dHZw9qXTwR7ae1tJfljNbj3EEzGFgHtPSfqSp50QOMrzz6BQCuvvaHeO3rruWyK67GS5Z2DOsoydZq2I9eM70DgkaijUV1rt2khyr9KNspVprinOfLj36ey664kmeffoqi6BG1AGKVYuQOq9mAo760wadpXOfWSLSJ6IdzgXICnX78DCkJBtWO9SpUwveeepJXv+Y1HHvh78hj3g9XW5nxddfFaqhWtI3+m0Y0Em1FVFJkJXWV6GhAq9XCh8BffeVLvP4tP8bXvvrlRIsqNnL/1GJjbSqwZt/1o3ZMq+qUiMpKE70NVn+4gohnvrtIsVDgg+PLX/xT2nNz5ebiSuXVBxer2Vv1YMr1Acl02mkhsoj5xbNdjnMUdTUlK5lTGEJo0Y8c5LaAuYXBJSKYDhNmlC7LTjVwVZr6r6unm1jIs4jQmu2Ru+NntRDnNuqSZMyvI2c/2cjR1pNSCyxjyFoOK15furMoBXvpLZAdRv1aVhRsVqxMtCH0owbVyLfKXcd+X9Oaa5VeQ+lqXw7GqnJW/XhBWi8i4cRZyv4cxzLxMengsPJXWU60k360I5ev+XCVMdnU0wrSF31ng2xBWkdw2XQOmV9y9Ik2KtXGTyGlyEGjeztl7U+22kk1mstq6UfSjUKspjrP0qMOyhHU9fpfDIzP8RA3Ehd/levXkr76bi33Gk2/njKstTxgmOmyGLI2IdBxPVZaSi0gJ2cfjYbsWxPRxqSrFykJskE5zqxE2wJAQE4Ag1GnrSKrR8c8q12/lvTVd2u51zif1smWYa3lSTxZrgb7Mc+WFWUcAddONOeSHVWPwr0WB+1ouqHI3hXJbFAn+rMap0e8ycj9Uly46t4V0awAywFBTAiVHh/pSlaqERMdjKxGpHGtDhOx7DGUnd4UvJVTNTba92zQs6XuXV9+zzECbzh/G07TL3uZgTfBma81VE1CSSKiI+1l6j/Lcn5lLO/GSr4xBbcUuTuFKpV00mL1wMo69+su9fIMZ1zxalnfq57VCNGq68Skb8dJfxg7XFATA7FlZejfe+i5DRcgiAactsr1Uh4pHJnLiL0irVIgFcwE1CnqYnpJgUpE3OCBp6kYykZa3r5VYZYRUx3OHE491jMy1yobvXIZpEqqU6IWKf8yyqKWjV3dSzX9PSlsbL+D9wuUyO3UIeqxniO4dmqLqk5l51KnFPRQF3ESUVHKftFvWiGVoSK82jD5h1wRQvlgU/0pAtoTMtfG40EVsXQuqImm+rv0bqJY+V4AzpEmD+qTCP1yST9vE+vPT4iUk2palkE9LgacesSEVmhRxAIw1Bkqkehy1EVAy++gbyGU+Y+bJQ5Z3i4rKjj1vPfn92I9I7hALGL/QauAivLIpz+JunRwlroC9UX5IMpcxIY7slQPs3q6pWIqG1jUlxVzSHTsveFGLDeCeLSI+BAwDC0f9Cc/9XDK30WiFINGn5Q/STqYppxF3EBal40rVi5OLBx7b7gJyyFIRiwiIbj0cESJLvJIPX9yLCQpLy7lb6ZDcqAimZUdoDLMk3DweMsQDWX9fcq/ZwQJaFHgxRAUFSM65ZFf/2QinJQdLihR0oOX2rhjVOEbldSqSWJzuEJouzaag1fPe961F0/A4/qENTEisV//6ApUikT6oERiqlt/5ny5rpF7HvoVU0mN43E48xCFGJUsa6Vd2FIujRFNDWwFiBFdwSf/yyPEsuHVRaKkHk8pBawS41EQS6QiJhXhY8Z73rGXFi2Cy4g9JUgGKsRCybKMvqIsJYtKxFyEsuIP/+dHiC5irkBdQZTU40xiv9XFJOWvAacBiYlYPgbe/Y69ZLQIIRB7kSChzD+ShWxYEki6b3ql+t91739gzyXnJwlPTkE3PYQh6yrl79TjNAzV/93veF+qv6/yT0uLtIi0QpakWjV5JQq+bANRCh/5+KcfpnCpTUxiv+Nrqeb68syS1HYakFJi+Zjxvp+7CckdQQLOHBKFzGcsLS7RarUw05H2r56rUviCj3/6YxS+SN+5WHbCdB0C533rotQCBx64zyDpaicOzBFCRq+XE7J0lEyfn2KYFeVIDMwbuS/QYIiH6Ao+9siDSdKJ9skGUqqmwL/7uXfjNFXKx8Cc24L2FItGpzPL4kKX4DOiKu12mzzPB1KKSnIpziXiF8HQoJgzdFn+1idaRfIb3vlevHpcSbQq/6iRmc4MiwuLBB9QjbTabfK8qNmnBsT+fVUiXd9FvZZmRcEjn/pEKfGrurtSepf5/9x7E+H69d+KdQ2NkU5nhsXFMv8Y6bTbxLyo2VtpeXh1XHZ0StcVFCX5ooulxolDEh6Tvsa64Z3vwZemSqYtsqKN17S2wmI6TmjUwVJfgVI2KEZ63l3f7RNtNH8TY9v3dqUkB+9/wMq0JdLq0aiKD75vz1RDejPFSaUCkkqrBgcq1WBhMGDojwhNkh1mqTdRGp9Oqx0+Vd8ro/MwGIBUBmgyABQMvFTXpDyqv7WuRktpUjdynbm+TSTlA6iUy/LRa9mTa6ogqUbD4UuTQst6L89/kLbcx2RlhzNXfi7NhoHMGhocDpscqVXKWvfVoZU/V88hulhKs/IGNQPdlfm7flukMgigpogrjwgqdXA9/m79dO5+mcr6m6R1xEmlJ9vNSBLt1z7yawCEYctY+kai92mHz2jTJ6lHSZQ0Uhx6NEMPa+ThGcnoHTIVBxUZ2O9Wu8T6r2TIu37DiYGrlb3McXmj1IbHfVr3rfJa/jZirAOYDbk4nCTbTnCIgohL2zXH5F99rqvwIedpLd1AiIwbwQzKD4N7OKBvjVMR3YaqNppTVQYZ3BAjhXjol1VqXUsG19ULWpHNm6fcsIrFAeHr9wAIfc/1UP3KYW/5/WgvAxlbmVJRjd4qcVkVEZd64JBTdOT66tuRwUS9ySraSa3XDggzuJuN1EvKXmqlRpuIWoX7WVTD+b7EHeSfCN3vIkPlhCp2WkonQw1nDCzuVOnlLsHlI7jK0zeiirBS4q3kVuy7RKy6U01aU5bT+gNixGxAwHo7VzeUQT2r/2WgjvroL3ysJApYIoKUo7VK/EoasSEM+aKckyHHX5KINVL0/RnSX4W6llUKZQpE0sCkP3tQb7RaZQffDEu0Qb0Y+Hlk+D7DeQrLnuyoXKg6IPUHsnoCTNIAAAONSURBVLxg/d9qEnX4Ihv+0sZkvSyhjCm/1d5XYBmjbTbp+pI05UBwWH1Xl6Taj6Ye1hYDhHpGBn1DGEBLyVOXPQPrIJ2SWwU5MTOcK6Md1vKpTtPN8yIZmqV31myEkJXhPtQaZR+rpJ/U/fjL+/mo806EmgSpkgx63lgsc3RRPtthog9NSw2p3LooltrfdRVcSYX6/Wvp6twbUaUymnZ811sBI6bNKr/XlcKg5az2+/ISjcOypdw+eCzXRBw/0C9Vhavpl3RuZYF3KW5r1sro9Xq0WhlmisZ0XV7kBD/IRlzqDM57YlFMDMUpZSioSs2aGjEOXBbDz8VGvqw3TP1rGf3l5DHu+fYxrn8PEozpGhPTVZtfxp/VebLkWin9Kr+Pk7IiQ9esZQZwiGgiQrfbRURw3nHLzbeQZRndvMvBBw5yy75bOPDAAfbt38eBBw5w6/v38eDBj7J/360cPHiQ22+/rdz5Q7p+/y1457n/vvv5hTvu4N577kGjsm//Pu67736885glp/Cyh1BOlIsTfuInfoI8z2m326vX6JzCZGqtFX/wf/5gwh3WQ7DTiZPrrH2iiUipJtMNYhERJ3zkIx9h3/59hCzDMG7Zf0stK2HfvvS5WuXw4MEHh37/yEfuQZxQFDnvv+02Dhw4kDIOfnjVxYR2ExGcc4g4YhFPqnINXiKsg+NDY6/R5Tb12filpSUOPnAQYPB+8CAi0iePmZKFjJtvuRnTNFp5/223poyco4g5t9xycz+vgTq2ZbZIHSIOEcEHnzrDJnptFAxmp8oHnYWsP+rMQpYqLIJ3jlvffyveefbt34e4ZOBHHUiZqJG8yPuT8d55Hv54CvIxNzvHXR+6C9U0pdFut/v2RzVgGAcRh2qk3W7jnCeEDO/DpnltFCzzJnW7XXp5j1YrzdzfftvtBB+Sm0Ej9917H4ZRFJHgfTkYSPDOs3//ftS0T9z37H0PIsLxE8eZmZnhvvvux4lLtqCbTLAKqpGiiKjGvuQz003z2iiQA/cfWKazKnutKCJZFvquCecdznmKPF9VrFcujcpVkoWMVqtFt9tFzQhhQNCVVsgWMdJqZeR5QQi+P5rdLFitI57rOPjRZGYtk8391ZKaJlg1ajnRChoHbou622EcjJS+SgvQ6/WSGj6Jxgve98tQqfQG04cm9kaDM4JTsjZPZVPIqaRtMH1oJFqDM4KGaA3OCP4/adFdcI322MMAAAAASUVORK5CYII=;labelBorderColor=none;" vertex="1" parent="1">
          <mxGeometry x="-558.6999999999999" y="-1047.5" width="35.4" height="40" as="geometry" />
        </mxCell>
        <mxCell id="ZXn4HNvfn6RSKJ2BFfuO-40" value="" style="shape=image;verticalLabelPosition=bottom;labelBackgroundColor=default;verticalAlign=top;imageAspect=0;image=data:image/png,iVBORw0KGgoAAAANSUhEUgAAAJoAAACuCAYAAADOFBSsAAAgAElEQVR4nO2da7BkV3Xff2vvfbr73jtvjaQBSQiDJBCyJCAWNsjEqXLKVSQpP1KpVIiTVIGJFWDQY0ZIsiMwiomFXjNCgFBsTB6O7cQf7EpcFZOquPyowhiDEViAEBYGgSRbaDSa1310n7PXyod9Tvfpvt333rkzmpm+9/ynevp299lnP85/r7X22nuvLde/5d+b6m4anH4YgAw+CV1EjoN0y6/amG3DaKdrkfJyqd9hqvHsMwcACIW9jGgXn+XibFBIIkqMOW3vge+D+1vEHwJA4/movpKou4kigOBMEJPaTYyNQLigtgVl+9kux4aDiIAYhuL8IoUeZmbmBB+660acfw4AjRdy++3/E3FbUd1KCFuxIgJSo9b0kwwgIBEsnu1ybDiYgakiTjEOkbUf5xfu/Jf48F1+6YO3AHDXXQe4++6f4oMf/A1UXwd5GGhakeH7ndnin3YEMBA92+XYkHAYpkqW5ag9Q7tzCMcCngIALwu41vN49xyBVxNVwUGlOa1mq5mMz2NaEDaKDXCuQszjzKOmOANnHSRuAQQXZ0EcXiGaQ/FghpXEGibXdD+jcLYLsPngylf9s9Sk1zjRJWwAoqXRToOXAoZJRCWC86g4lC7mloCIui5GmygeFUNF0yCicnPY8LOZZqqVEm0S0aa5amcfJoAZahmiF6DxAtQfQktDX2kT9UKiXYhKG8OgJtkGT0WGfplGyHVv/pRFu3TCz439dmowBMXJEuhhvP8eH777n+PccwgR1T38wi/+L1RfidlWoN338g7bZ9NLsUPPvgtobLQzAAGbAfag6rnzzv+O888jZqiej+pVqJ1fv3oMpr+zN0R7SZGMfDVIfovzKXozIDmJgBnI3FCKaXdjTEJDtJccgkll1AdEtmKU00xOMesBG9+P2RDtJYYNqT0FK8rvpdSI068W14KGaGcENuYFA9fSBtWXNTREe4mRKDSOXJtDklVwq1/S4PRg80mxOhqJdsYwrk9vHrI1RDsjmDR/uXnQqM4GZwQN0RqcETREa3BG0BCtwRlBQ7QGZwTBGWlmZHMNgjYZzr5zOPjCcKbJdz2GbCINA6cbNvJ+dhB2tFsQs5Fd1QM0RJt2jJtjPXN4tnwPM0WXUCxOLEJDtCmHnF2iVQgXtBxtmVyAhmfTjnOEaDusyxadn3hBI9GmHecI0Xb64+xwk8nUEG3acY4QbY5n2GbfL8u0nFSyAgkbnOs4N0gGECx/Cikj2IyDaEO06UZFspX2JQgD3/2wO0Rqf9ddYG6Ityvtsk8IrnUIZ/MTL2xU5zTDRkadk+DAWqTnr4AiaD94lpTpDShcuc1GBbFEPKsWcq7g9Q9bL4C5Xj7xgkZ1TjtWkmjVs/WgvvyqB6JlMEApKWSIKSpG4dIy9KBJqvV3eJljrER7Jr2FxdY8J/yRicVsJNq0Y5KdVltSbj5JNIngjoMopjNgGYJDMJxFTIxCSEQklurTg6WrxgvNpJLDsdntRNXJDttGok05TpZobdLk9wxmgSTVUmgHMJLJXn0GzCMkNTqeKYcBCIe3vIYj5OgEFdtItOlE9dxcSQzEhp6liOBcqS4JoG1S6MBeklbigKQfo0aKGDFN1lgQjxOPSBWCa5I0A/jfKb+XXX69FXRKo25MgRuJNpUwTeQyS5Koeq+QSFIR0iO08S7DzIhxAeePE4vn8RwCadHTl6O6FYuKmEsvXC2u23jscN8GIBxduoxCLmzmOjckSnUpw2pTbTAwMEtDR1VIXzt8Nk/kCebmnufXP3YbTndww94/gnAlJiAmOPN9sg7yGoPFkmjOX4i4iyfysiHa9GGgNqWcq05Eq743s/RCUI2oWWnYO/KFRVrtFh++5wOct/2rOH2UoriEGLfQnn01h48fIQuhz10zxcnw6Qh1bCnfA9YFXZpYaGvW4E4hKjeroKpgA6lmagQfiGp4H/AOtCiIhdLOZti2+3ywp9huf0Rr/s/I2l3UdtBuOeaPHyVDyVzERDEUyvsnabiCH23PBReSywUjXw88wcnWO/srNBusDyJJwokYLh19gA/QK46jWmCaoSqYHgcWEDlGW56mbc+wc+YporYwd4wLzztBQRelAN/mxFJgbtsFxDwvOezG0qz3nfQe2iHDkY25xDAxzIFJRbyGcNOCahBXqc68yCnynHxhCdXDvPwSpYhdYr4DbAEn38DJYcwcnexbnH/BlZD3mPEdpPcC2zuPsRhfICenxwV0Zt9AXmxNalPSjMJKA4OgecQYPtAirbYtw5D7kmAy6odpcK6imgdQjZgphhFaGa12h62zW2n5Dv/mX78VH5b4+EP/lcwf57b9/4wQXsDUsPi39PJvkXEFvV6LpcUOP/+uf0pn2yVoBofnd3PvgccAiFhSnzAyOBhGePbZp4ljD7RIRMNVkqwh2rTAREAcuDQY8MFjLjlegzmERT7wiw8Bh7n7njto+8MQn0NoJb+bXMTi/HksapHMO9eis6WNiiePBfMLyuFDJxA7hkVFNVIUxdiyXFi+y85X3GBR9owrLmmkMvi7wXQgrbJI/nwzUJRIcrgSI2gOLCFylBAO0QrHablFfDnPaeqIRQvV5LQVpzifg4+oN7rxfJa6V+PkInxp902aT98dPw1AUH+UQvzQjwKIJWJVnuX0ee1kGxwusz406defXhAwSw5VDTjAWw5EEEOdYaKItBDbTSx20nMgzoACEFxo4V2Gcx4xoyh65N0uOHDSJsScLVtOkPd6IEycWaqsMsG/2XC7yk8jV1pVY0tD5JOp9ui02smiSb/+9Fo+L01e/4ScZLkJuHLqSFzNtZBULVYkz23fXWH0p5lw6bMniTFHmY+Cjj+47hWXPA5A2H7x1RRjVWdaHlIdILPevnmqsQ2b9OtJXx6N4UoxI4ZUfi9KiVfOW2qpuSKVd6HKLc1JVguFhifNS48ENSk2aVJdS6JBB2F2QnmtzO/UbbRTtfCa9CefQkvPfXWQWXUXoVwha5TehZIwYzLppxj53QCt+VdX6xArB+JbedHkmjB9D2ijpK9UZjl5PvKrMrCUKgtpeV4DYo4ri5jVXGEra/gm4uOGxOga/jFr+ses1plMlJJG45aRkeZNq6smoSHahoSNeT9Za68aABiDZdrDTJPSrJI13DeYGZPX11aTCqMFn26ISL8XblzUldnJkUyGrq/fY9J9VrevQlWk8RnW/1pNC5/rqM3USn+gPzRsSkteRqdRprnOsH7fioz8rbXb2bKrV0NY6aKUxbSTLJXfRnq3SV5+G0grTD2mOrYhp7fu64ONSDSRug022jZrk5QhLSGZuOyRaSdZ8hNV5XdAwCzHfBeTiLNZtAi0/Ax5nqf1WVY5Nw2RavnLtLbBelGT9BOvsQnkW45VlzVauQdmGl+psXz5MnAF5hZRfwRrfZ8b7/gXLPWeYNv5XXxrgVznS+emK1ciSK0NprstTv7Fml5rxQZfPysIGeAwKVB3jBieoWg9ic19g6XsC9zwwR9jzxXPI7PfYev2BUzmERkse7G6YddgBKMDhXGvhA1ONCh92BiR9+27gRtu/hm09W3eufdt0HmaPPtr3vzjF/H2d/44XX0OcT3yolemXd5gDUaxEsk2CdGS46aLuBwR+MTH78V3nuPWO9+OtI7R0xfJZhaY296D7AitThelh3eOEDwzMzMEH8aMRBucLDZ4CxppDWgO0kOty9zcDL1eJLgZMr8db7vIu3O0wk6ueM21mHp27NiNRqW7tISZ9SeeG6wfG5xoAIJZQeQYN++/mWJxNx/90O+QFa+gHS/j4Xv+mE8f/DwfvfO3ee57Qifs4qKLf4B2Z5bOzAwi1Zq8BqeCDT4FNcyQ3/nt3+Xvnvse8ApCvJQH73sQl7+SpWIb2dwOgpxHpxPpdXv0ul3yojeyo7vBerGBiVZ3OgbQLTz9naMUFqCY5Td/7Q+JC3vQPDA3s4v5I0vsft3Lmb14C49/9auICEWMtDK/UiYN1ogNTLQKgpMUfkkto+VatLeez9HnocMeLAi9RWHPRZfhXcbxY0e55NJX4IPn209+k+7SUmOjnQZsYKKVa6kkLaoTEYJ4YszIF6HTmgERTIStW2d41atey5EXX+TJb36NdivD+4wT8/N0Wu2zXI+NgQ1MtBR7QkthZFotWw4YQq9rvPn6t3L06FG2bd/OoUOHePKb32DL3BwLSwuows4dO5mfnxwav8HasaGJpmZDy4GSp18pYkHUyP/7w89w4fkXkrVaLMzPk2WepV6XNFI15ufnS7I2qvNUsQncG8MQccx2ZoiqvOpVl7Fr9/m8cOh55hdPkJYKpeuqiDsNyU4PNiHRUoSduc4MGiNPP/VtFpcW0kJSTbvIpDlT8rRjUxGt8oWpGc47vvPtJ+nmPbbObcWJK9Ws1FZvNDhd2HCt6UT6geEAqvV29eB0ABqV2dktOBFiP0jJ6Jr4RrKdLmw4oq0V1SChkVxnBhtu1LlW412t5mejkV4vNTZdd25GkWcHG06inX1Ifyp/dD29k8FiwHpk7M2AhminAXWncJ1MQop/IeUAZePvJZ2MTac6Tz+WL1/W2kDDu4CZYFaFfRoTnmAToCHaKWJ4k7VDJMMMIj0KW0ItRyQdczO8b+h0SbdTj/R0JtAQbd2Q5OTFcCL08oIdOy4A2hgek0VUjhNZwqQgy6TcwxCxFQ9pPRm8FMR9adAQbZ0ws76j1znHti3bWVw8RsFRNDyHtp/ihn3/BGt9n+gOU/AiJvMgBec6KV4KNERbJ7xzBO8JwSNOOLEwD36JV17lyVtf4KYPXc/Mnq9z4WXz5K3vkvunUX8Io1u7y6naaTLh73MPzahzHTAzomkp1QpEPDPtLVx6+S7e+rZtvG1bhxPF4wRp8VM/+yN84v7f4qb33Yku7OCTB34PsVlGY/asH+c2wSo0Em0d8M7jyhGlk0CnNYOZ8cQ3vkToHEL937Fl2yySOaz1Iu+7/e0s2bM8/J/uxiRFvZ4Oepw+NEQ7aZTBg8Uj4slCGxCuuPJ1tLM2nWwXTs+jt7AT8l1YDJgZs7NzdHs5g3gem8tSa4i2KqT2zyFIuTgyvV/zhutQVf76G39F0W1x8Jf/Lx/95c/x0C99Blm8nFZxKZ+8/39QLGzn9lvvRqw6d2tzUa2x0VbB8pBVSaKlE32FWEQ6nVmOnXiBVquDjy8H3Uo3zvHIA7/Hjfv2ogt7+Ng9v4W3HXh2rZjfRl06LtsuvdEKefnZLsc5iyrOfv0bSC6NxW4XVbj+R/8B3ht/8fk/BTEii3T1RWZnMvIcUI+jhZDhrAW2efaK7taHgUairRHDEkbNaGUZ17z29czNbUvH1+RKUUAIAUcHejO053ZiMZKauRwAbDxhtSY0Em0iKvfD8lCaZtVhbOl0Gu8Cb7zuLXgX+PPPfRYR6HQCedFFNZZxcidF69/YqCRaMxhYMwaT4fVFks4Jaspjj36RXt7j9W+4jmuu/SGuuvqHEAs0Z4UnNKpzIqrTQOrSqE4a7Uu7tFe0x6Nf/DMuu/xKnnji6wTvcK4WzXqTo+lupwFJwqVZgieeeIw3v+X6dIBcGXB5s7kyxqEh2kQkz1k6rkvL91i+inIFRhlCWZJPrZW1aLfafPWxR3nd1VenVbTNEeFAozonYvkU0STJNNjcIuJY6i0hInz9sb8qk222yabxaIh2mpBCKCit0CLG6lyWMux8g4Zopx+y7K+1HvqwkdEQ7bRjeNVrQ7KEZjDwkqMhGTREa3CG0KjOU8bw9JIOBf5bacQ5eh7mxkYj0U4Jg5VqRlrRUUUrCj6NOKtNw26IdNOze+l0oSHaBEx2s5aE6Ttik//MieCcBwIijsIWUBYxibWwWadyPtx0oyHaREx2ziYoiKLlJpUU3C9DpIOJYP4EZMfwIc0ppOhYVqYzEB1z/42LhmgnjcnB+pw3ojuCZc8R29/i3bf9NLsvbqP+BF07RJSjmMTBbIE0RGuwIgRHAPM4ERa6iywsLtKLh3nZq5fIZ/6Cm+66Ht3yl3zvhT/DOs/R9U9ShGcwyZFyIWTC5iBbM+pcFwS1asucMNeZQbzj1Vfu5Efftg3mZrDOd1HvefdtP8kn7v0N9n/gZmxpO5+4+zM1J66yWfr65qjlaYYZmAlqDucCC90lVHO+/KU/YevOeXznML3YxVwXa3+HG+/8GQo5zEMP3YdJgUlaBbKZBgQN0daBFJDZMdOeIUal02rzuquvYueu8yi6bSzfxeKRbcTu9nKfwFKKj6blnlCS8h13unF1vsFGi6XWEO2kUZFDWVia59o3XkcWAo995QssnhA+9it/yMMf/hKfPvAl4ouX47uX8vF7fxNXbOfGvXfgrJX2dlavMYOLehTxjYLGRjtJ1B9/VCUWhpnDiUeYgzgHcQcaj/Kr9/4+++54L657ER+9+7/h4i68XQLlZmTbRKqz2QV1kqgUX1rkWIAFrv/RHyPaPF959HPgCpActS6LveN4b3jnMA14ZhHbglhWTlUtJ9m4DcQ2EkF8mtDs61wn0oGxykynw+WvvZqtc7swBbMAGjixsIj36RS9TtiNmKAFOBzgynNDJ29YGbdLfRoJNoqGaCeJtKdT6PW6PPH1xzBzdNozvPFNb+IHr3kTX3n0C+UOqLQ7KmrEY31ybdY9Uc1gYB1w5bylSNrXGWPOZ//0jwm+xXXXvZXLLruaK6/6e2zZeh5mHjNHWtZdD5a8udBItHWhUm+KmMPUaPmML37+c/zgNW/gO3/zJMfmjxK8gAPvTk/IvWlGI9HWif6IUQYrMaJGnvj6Y7ziB16VpJ13/eVCmx0N0U4R9UjbnVaGiPHdp57kyquuLvd7blarbBiN6jxJjC5ZrLYYi1QefVg4scAz3/12/+pGnjVEWweWUw106LS8Viuw1F0or9g8TtmV0BDtFGFYLSot1N1gjTwboCHaKWN5BLUGy9EMBhqcETQS7TTBiVu2tKdRnQM0RDsNqELCiwx8ZmZWjkgbQEO0U0a1gLESZiKOzbRydq1obLRTwCDsqKDl8m6RDDVQ6WGuV26r25zzm3U0RFsnpFz205mZ7TtqwROjT8dbh3kknEBc8rWlhZEr/9vIhGyIti6kxYlFjBw9dqR/bicSUXeEJZ4ibz3Ju/b9I3J3iOhOUMhxVJbKkKTLj8ceHES2McnWEG1dSKcOZ8HTzkIZfVuY2waXvz4g2x9l7y/9MDN7voHf9jTafo6ePAP+RcTlK9x345KtIdo60N/6W4ZCMDNm2jP8wOUX89Z/+Er2feCn6bm/4XjxTd5x0z8ml79h/53/ivfs+1kiS6vefSOSrSHaupBI0G516OWxfOV8/WtfYMfuHrn9LaGV0Ys5YcuL3HDbT9Jz3+KBA/sx6a5y73T/jUa2hmjrQnJdHDt+nLnOVrZv2cm1b3gTGj3HjoDXC7Hey6A4jzzPmZlzQC8tsl3V7TFwjWwcmjVEWxcSDZRWq8VV11xH3jP+8oufx9tOHrn/sxz8wGd56MN/woxdQzyxiwf/46+i3Z384h331c7rHH9nK/+v/m2UUWnjsF0nqsB7ZkbWarFwYp5QZIi8DJjF9xb5xD2/y95b/i2z/go+9dDvY90tiO2p3WH5PcdLvEqRTu9Mg2y79CaLzb7OsVhtrtJJIC+EH/7hv4/zjs//+R+hvks3HqPVsRRjQx1iHlHBWYazDmJ+zfOgw5LMpo5qI/s6p1ckv3RYOfynGbzmqh9kx47dzJ9YJJAR1Zib3Ur3RA+vnqiGWBvB48xq53VuvimqRnWORf18gOWkcOJAHN98/Gt4l5EXkWvfcB1vfOOP8M3HH2dHZw9qXTwR7ae1tJfljNbj3EEzGFgHtPSfqSp50QOMrzz6BQCuvvaHeO3rruWyK67GS5Z2DOsoydZq2I9eM70DgkaijUV1rt2khyr9KNspVprinOfLj36ey664kmeffoqi6BG1AGKVYuQOq9mAo760wadpXOfWSLSJ6IdzgXICnX78DCkJBtWO9SpUwveeepJXv+Y1HHvh78hj3g9XW5nxddfFaqhWtI3+m0Y0Em1FVFJkJXWV6GhAq9XCh8BffeVLvP4tP8bXvvrlRIsqNnL/1GJjbSqwZt/1o3ZMq+qUiMpKE70NVn+4gohnvrtIsVDgg+PLX/xT2nNz5ebiSuXVBxer2Vv1YMr1Acl02mkhsoj5xbNdjnMUdTUlK5lTGEJo0Y8c5LaAuYXBJSKYDhNmlC7LTjVwVZr6r6unm1jIs4jQmu2Ru+NntRDnNuqSZMyvI2c/2cjR1pNSCyxjyFoOK15furMoBXvpLZAdRv1aVhRsVqxMtCH0owbVyLfKXcd+X9Oaa5VeQ+lqXw7GqnJW/XhBWi8i4cRZyv4cxzLxMengsPJXWU60k360I5ev+XCVMdnU0wrSF31ng2xBWkdw2XQOmV9y9Ik2KtXGTyGlyEGjeztl7U+22kk1mstq6UfSjUKspjrP0qMOyhHU9fpfDIzP8RA3Ehd/levXkr76bi33Gk2/njKstTxgmOmyGLI2IdBxPVZaSi0gJ2cfjYbsWxPRxqSrFykJskE5zqxE2wJAQE4Ag1GnrSKrR8c8q12/lvTVd2u51zif1smWYa3lSTxZrgb7Mc+WFWUcAddONOeSHVWPwr0WB+1ouqHI3hXJbFAn+rMap0e8ycj9Uly46t4V0awAywFBTAiVHh/pSlaqERMdjKxGpHGtDhOx7DGUnd4UvJVTNTba92zQs6XuXV9+zzECbzh/G07TL3uZgTfBma81VE1CSSKiI+1l6j/Lcn5lLO/GSr4xBbcUuTuFKpV00mL1wMo69+su9fIMZ1zxalnfq57VCNGq68Skb8dJfxg7XFATA7FlZejfe+i5DRcgiAactsr1Uh4pHJnLiL0irVIgFcwE1CnqYnpJgUpE3OCBp6kYykZa3r5VYZYRUx3OHE491jMy1yobvXIZpEqqU6IWKf8yyqKWjV3dSzX9PSlsbL+D9wuUyO3UIeqxniO4dmqLqk5l51KnFPRQF3ESUVHKftFvWiGVoSK82jD5h1wRQvlgU/0pAtoTMtfG40EVsXQuqImm+rv0bqJY+V4AzpEmD+qTCP1yST9vE+vPT4iUk2palkE9LgacesSEVmhRxAIw1Bkqkehy1EVAy++gbyGU+Y+bJQ5Z3i4rKjj1vPfn92I9I7hALGL/QauAivLIpz+JunRwlroC9UX5IMpcxIY7slQPs3q6pWIqG1jUlxVzSHTsveFGLDeCeLSI+BAwDC0f9Cc/9XDK30WiFINGn5Q/STqYppxF3EBal40rVi5OLBx7b7gJyyFIRiwiIbj0cESJLvJIPX9yLCQpLy7lb6ZDcqAimZUdoDLMk3DweMsQDWX9fcq/ZwQJaFHgxRAUFSM65ZFf/2QinJQdLihR0oOX2rhjVOEbldSqSWJzuEJouzaag1fPe961F0/A4/qENTEisV//6ApUikT6oERiqlt/5ny5rpF7HvoVU0mN43E48xCFGJUsa6Vd2FIujRFNDWwFiBFdwSf/yyPEsuHVRaKkHk8pBawS41EQS6QiJhXhY8Z73rGXFi2Cy4g9JUgGKsRCybKMvqIsJYtKxFyEsuIP/+dHiC5irkBdQZTU40xiv9XFJOWvAacBiYlYPgbe/Y69ZLQIIRB7kSChzD+ShWxYEki6b3ql+t91739gzyXnJwlPTkE3PYQh6yrl79TjNAzV/93veF+qv6/yT0uLtIi0QpakWjV5JQq+bANRCh/5+KcfpnCpTUxiv+Nrqeb68syS1HYakFJi+Zjxvp+7CckdQQLOHBKFzGcsLS7RarUw05H2r56rUviCj3/6YxS+SN+5WHbCdB0C533rotQCBx64zyDpaicOzBFCRq+XE7J0lEyfn2KYFeVIDMwbuS/QYIiH6Ao+9siDSdKJ9skGUqqmwL/7uXfjNFXKx8Cc24L2FItGpzPL4kKX4DOiKu12mzzPB1KKSnIpziXiF8HQoJgzdFn+1idaRfIb3vlevHpcSbQq/6iRmc4MiwuLBB9QjbTabfK8qNmnBsT+fVUiXd9FvZZmRcEjn/pEKfGrurtSepf5/9x7E+H69d+KdQ2NkU5nhsXFMv8Y6bTbxLyo2VtpeXh1XHZ0StcVFCX5ooulxolDEh6Tvsa64Z3vwZemSqYtsqKN17S2wmI6TmjUwVJfgVI2KEZ63l3f7RNtNH8TY9v3dqUkB+9/wMq0JdLq0aiKD75vz1RDejPFSaUCkkqrBgcq1WBhMGDojwhNkh1mqTdRGp9Oqx0+Vd8ro/MwGIBUBmgyABQMvFTXpDyqv7WuRktpUjdynbm+TSTlA6iUy/LRa9mTa6ogqUbD4UuTQst6L89/kLbcx2RlhzNXfi7NhoHMGhocDpscqVXKWvfVoZU/V88hulhKs/IGNQPdlfm7flukMgigpogrjwgqdXA9/m79dO5+mcr6m6R1xEmlJ9vNSBLt1z7yawCEYctY+kai92mHz2jTJ6lHSZQ0Uhx6NEMPa+ThGcnoHTIVBxUZ2O9Wu8T6r2TIu37DiYGrlb3McXmj1IbHfVr3rfJa/jZirAOYDbk4nCTbTnCIgohL2zXH5F99rqvwIedpLd1AiIwbwQzKD4N7OKBvjVMR3YaqNppTVQYZ3BAjhXjol1VqXUsG19ULWpHNm6fcsIrFAeHr9wAIfc/1UP3KYW/5/WgvAxlbmVJRjd4qcVkVEZd64JBTdOT66tuRwUS9ySraSa3XDggzuJuN1EvKXmqlRpuIWoX7WVTD+b7EHeSfCN3vIkPlhCp2WkonQw1nDCzuVOnlLsHlI7jK0zeiirBS4q3kVuy7RKy6U01aU5bT+gNixGxAwHo7VzeUQT2r/2WgjvroL3ysJApYIoKUo7VK/EoasSEM+aKckyHHX5KINVL0/RnSX4W6llUKZQpE0sCkP3tQb7RaZQffDEu0Qb0Y+Hlk+D7DeQrLnuyoXKg6IPUHsnoCTNIAAAONSURBVLxg/d9qEnX4Ihv+0sZkvSyhjCm/1d5XYBmjbTbp+pI05UBwWH1Xl6Taj6Ye1hYDhHpGBn1DGEBLyVOXPQPrIJ2SWwU5MTOcK6Md1vKpTtPN8yIZmqV31myEkJXhPtQaZR+rpJ/U/fjL+/mo806EmgSpkgx63lgsc3RRPtthog9NSw2p3LooltrfdRVcSYX6/Wvp6twbUaUymnZ811sBI6bNKr/XlcKg5az2+/ISjcOypdw+eCzXRBw/0C9Vhavpl3RuZYF3KW5r1sro9Xq0WhlmisZ0XV7kBD/IRlzqDM57YlFMDMUpZSioSs2aGjEOXBbDz8VGvqw3TP1rGf3l5DHu+fYxrn8PEozpGhPTVZtfxp/VebLkWin9Kr+Pk7IiQ9esZQZwiGgiQrfbRURw3nHLzbeQZRndvMvBBw5yy75bOPDAAfbt38eBBw5w6/v38eDBj7J/360cPHiQ22+/rdz5Q7p+/y1457n/vvv5hTvu4N577kGjsm//Pu67736885glp/Cyh1BOlIsTfuInfoI8z2m326vX6JzCZGqtFX/wf/5gwh3WQ7DTiZPrrH2iiUipJtMNYhERJ3zkIx9h3/59hCzDMG7Zf0stK2HfvvS5WuXw4MEHh37/yEfuQZxQFDnvv+02Dhw4kDIOfnjVxYR2ExGcc4g4YhFPqnINXiKsg+NDY6/R5Tb12filpSUOPnAQYPB+8CAi0iePmZKFjJtvuRnTNFp5/223poyco4g5t9xycz+vgTq2ZbZIHSIOEcEHnzrDJnptFAxmp8oHnYWsP+rMQpYqLIJ3jlvffyveefbt34e4ZOBHHUiZqJG8yPuT8d55Hv54CvIxNzvHXR+6C9U0pdFut/v2RzVgGAcRh2qk3W7jnCeEDO/DpnltFCzzJnW7XXp5j1YrzdzfftvtBB+Sm0Ej9917H4ZRFJHgfTkYSPDOs3//ftS0T9z37H0PIsLxE8eZmZnhvvvux4lLtqCbTLAKqpGiiKjGvuQz003z2iiQA/cfWKazKnutKCJZFvquCecdznmKPF9VrFcujcpVkoWMVqtFt9tFzQhhQNCVVsgWMdJqZeR5QQi+P5rdLFitI57rOPjRZGYtk8391ZKaJlg1ajnRChoHbou622EcjJS+SgvQ6/WSGj6Jxgve98tQqfQG04cm9kaDM4JTsjZPZVPIqaRtMH1oJFqDM4KGaA3OCP4/adFdcI322MMAAAAASUVORK5CYII=;labelBorderColor=none;" vertex="1" parent="1">
          <mxGeometry x="-555.6999999999999" y="-1045.5" width="35.4" height="40" as="geometry" />
        </mxCell>
        <mxCell id="ZXn4HNvfn6RSKJ2BFfuO-41" style="edgeStyle=orthogonalEdgeStyle;rounded=1;orthogonalLoop=1;jettySize=auto;html=1;exitX=1;exitY=0.5;exitDx=0;exitDy=0;fontSize=1;entryX=0;entryY=0.5;entryDx=0;entryDy=0;fontColor=#D9D9D9;strokeColor=#DEDEDE;" edge="1" parent="1" source="ZXn4HNvfn6RSKJ2BFfuO-43" target="ZXn4HNvfn6RSKJ2BFfuO-45">
          <mxGeometry relative="1" as="geometry">
            <mxPoint x="-498.3" y="-1046.5" as="targetPoint" />
          </mxGeometry>
        </mxCell>
        <mxCell id="ZXn4HNvfn6RSKJ2BFfuO-42" style="edgeStyle=orthogonalEdgeStyle;rounded=1;orthogonalLoop=1;jettySize=auto;html=1;exitX=1;exitY=0.5;exitDx=0;exitDy=0;strokeColor=#DEDEDE;strokeWidth=1;fontSize=1;fontColor=#000000;" edge="1" parent="1" source="ZXn4HNvfn6RSKJ2BFfuO-43" target="ZXn4HNvfn6RSKJ2BFfuO-51">
          <mxGeometry relative="1" as="geometry" />
        </mxCell>
        <mxCell id="ZXn4HNvfn6RSKJ2BFfuO-43" value="" style="shape=image;verticalLabelPosition=bottom;labelBackgroundColor=default;verticalAlign=top;imageAspect=0;image=data:image/png,iVBORw0KGgoAAAANSUhEUgAAAJoAAACuCAYAAADOFBSsAAAgAElEQVR4nO2da7BkV3Xff2vvfbr73jtvjaQBSQiDJBCyJCAWNsjEqXLKVSQpP1KpVIiTVIGJFWDQY0ZIsiMwiomFXjNCgFBsTB6O7cQf7EpcFZOquPyowhiDEViAEBYGgSRbaDSa1310n7PXyod9Tvfpvt333rkzmpm+9/ynevp299lnP85/r7X22nuvLde/5d+b6m4anH4YgAw+CV1EjoN0y6/amG3DaKdrkfJyqd9hqvHsMwcACIW9jGgXn+XibFBIIkqMOW3vge+D+1vEHwJA4/movpKou4kigOBMEJPaTYyNQLigtgVl+9kux4aDiIAYhuL8IoUeZmbmBB+660acfw4AjRdy++3/E3FbUd1KCFuxIgJSo9b0kwwgIBEsnu1ybDiYgakiTjEOkbUf5xfu/Jf48F1+6YO3AHDXXQe4++6f4oMf/A1UXwd5GGhakeH7ndnin3YEMBA92+XYkHAYpkqW5ag9Q7tzCMcCngIALwu41vN49xyBVxNVwUGlOa1mq5mMz2NaEDaKDXCuQszjzKOmOANnHSRuAQQXZ0EcXiGaQ/FghpXEGibXdD+jcLYLsPngylf9s9Sk1zjRJWwAoqXRToOXAoZJRCWC86g4lC7mloCIui5GmygeFUNF0yCicnPY8LOZZqqVEm0S0aa5amcfJoAZahmiF6DxAtQfQktDX2kT9UKiXYhKG8OgJtkGT0WGfplGyHVv/pRFu3TCz439dmowBMXJEuhhvP8eH777n+PccwgR1T38wi/+L1RfidlWoN338g7bZ9NLsUPPvgtobLQzAAGbAfag6rnzzv+O888jZqiej+pVqJ1fv3oMpr+zN0R7SZGMfDVIfovzKXozIDmJgBnI3FCKaXdjTEJDtJccgkll1AdEtmKU00xOMesBG9+P2RDtJYYNqT0FK8rvpdSI068W14KGaGcENuYFA9fSBtWXNTREe4mRKDSOXJtDklVwq1/S4PRg80mxOhqJdsYwrk9vHrI1RDsjmDR/uXnQqM4GZwQN0RqcETREa3BG0BCtwRlBQ7QGZwTBGWlmZHMNgjYZzr5zOPjCcKbJdz2GbCINA6cbNvJ+dhB2tFsQs5Fd1QM0RJt2jJtjPXN4tnwPM0WXUCxOLEJDtCmHnF2iVQgXtBxtmVyAhmfTjnOEaDusyxadn3hBI9GmHecI0Xb64+xwk8nUEG3acY4QbY5n2GbfL8u0nFSyAgkbnOs4N0gGECx/Cikj2IyDaEO06UZFspX2JQgD3/2wO0Rqf9ddYG6Ityvtsk8IrnUIZ/MTL2xU5zTDRkadk+DAWqTnr4AiaD94lpTpDShcuc1GBbFEPKsWcq7g9Q9bL4C5Xj7xgkZ1TjtWkmjVs/WgvvyqB6JlMEApKWSIKSpG4dIy9KBJqvV3eJljrER7Jr2FxdY8J/yRicVsJNq0Y5KdVltSbj5JNIngjoMopjNgGYJDMJxFTIxCSEQklurTg6WrxgvNpJLDsdntRNXJDttGok05TpZobdLk9wxmgSTVUmgHMJLJXn0GzCMkNTqeKYcBCIe3vIYj5OgEFdtItOlE9dxcSQzEhp6liOBcqS4JoG1S6MBeklbigKQfo0aKGDFN1lgQjxOPSBWCa5I0A/jfKb+XXX69FXRKo25MgRuJNpUwTeQyS5Koeq+QSFIR0iO08S7DzIhxAeePE4vn8RwCadHTl6O6FYuKmEsvXC2u23jscN8GIBxduoxCLmzmOjckSnUpw2pTbTAwMEtDR1VIXzt8Nk/kCebmnufXP3YbTndww94/gnAlJiAmOPN9sg7yGoPFkmjOX4i4iyfysiHa9GGgNqWcq05Eq743s/RCUI2oWWnYO/KFRVrtFh++5wOct/2rOH2UoriEGLfQnn01h48fIQuhz10zxcnw6Qh1bCnfA9YFXZpYaGvW4E4hKjeroKpgA6lmagQfiGp4H/AOtCiIhdLOZti2+3ywp9huf0Rr/s/I2l3UdtBuOeaPHyVDyVzERDEUyvsnabiCH23PBReSywUjXw88wcnWO/srNBusDyJJwokYLh19gA/QK46jWmCaoSqYHgcWEDlGW56mbc+wc+YporYwd4wLzztBQRelAN/mxFJgbtsFxDwvOezG0qz3nfQe2iHDkY25xDAxzIFJRbyGcNOCahBXqc68yCnynHxhCdXDvPwSpYhdYr4DbAEn38DJYcwcnexbnH/BlZD3mPEdpPcC2zuPsRhfICenxwV0Zt9AXmxNalPSjMJKA4OgecQYPtAirbYtw5D7kmAy6odpcK6imgdQjZgphhFaGa12h62zW2n5Dv/mX78VH5b4+EP/lcwf57b9/4wQXsDUsPi39PJvkXEFvV6LpcUOP/+uf0pn2yVoBofnd3PvgccAiFhSnzAyOBhGePbZp4ljD7RIRMNVkqwh2rTAREAcuDQY8MFjLjlegzmERT7wiw8Bh7n7njto+8MQn0NoJb+bXMTi/HksapHMO9eis6WNiiePBfMLyuFDJxA7hkVFNVIUxdiyXFi+y85X3GBR9owrLmmkMvi7wXQgrbJI/nwzUJRIcrgSI2gOLCFylBAO0QrHablFfDnPaeqIRQvV5LQVpzifg4+oN7rxfJa6V+PkInxp902aT98dPw1AUH+UQvzQjwKIJWJVnuX0ee1kGxwusz406defXhAwSw5VDTjAWw5EEEOdYaKItBDbTSx20nMgzoACEFxo4V2Gcx4xoyh65N0uOHDSJsScLVtOkPd6IEycWaqsMsG/2XC7yk8jV1pVY0tD5JOp9ui02smiSb/+9Fo+L01e/4ScZLkJuHLqSFzNtZBULVYkz23fXWH0p5lw6bMniTFHmY+Cjj+47hWXPA5A2H7x1RRjVWdaHlIdILPevnmqsQ2b9OtJXx6N4UoxI4ZUfi9KiVfOW2qpuSKVd6HKLc1JVguFhifNS48ENSk2aVJdS6JBB2F2QnmtzO/UbbRTtfCa9CefQkvPfXWQWXUXoVwha5TehZIwYzLppxj53QCt+VdX6xArB+JbedHkmjB9D2ijpK9UZjl5PvKrMrCUKgtpeV4DYo4ri5jVXGEra/gm4uOGxOga/jFr+ses1plMlJJG45aRkeZNq6smoSHahoSNeT9Za68aABiDZdrDTJPSrJI13DeYGZPX11aTCqMFn26ISL8XblzUldnJkUyGrq/fY9J9VrevQlWk8RnW/1pNC5/rqM3USn+gPzRsSkteRqdRprnOsH7fioz8rbXb2bKrV0NY6aKUxbSTLJXfRnq3SV5+G0grTD2mOrYhp7fu64ONSDSRug022jZrk5QhLSGZuOyRaSdZ8hNV5XdAwCzHfBeTiLNZtAi0/Ax5nqf1WVY5Nw2RavnLtLbBelGT9BOvsQnkW45VlzVauQdmGl+psXz5MnAF5hZRfwRrfZ8b7/gXLPWeYNv5XXxrgVznS+emK1ciSK0NprstTv7Fml5rxQZfPysIGeAwKVB3jBieoWg9ic19g6XsC9zwwR9jzxXPI7PfYev2BUzmERkse7G6YddgBKMDhXGvhA1ONCh92BiR9+27gRtu/hm09W3eufdt0HmaPPtr3vzjF/H2d/44XX0OcT3yolemXd5gDUaxEsk2CdGS46aLuBwR+MTH78V3nuPWO9+OtI7R0xfJZhaY296D7AitThelh3eOEDwzMzMEH8aMRBucLDZ4CxppDWgO0kOty9zcDL1eJLgZMr8db7vIu3O0wk6ueM21mHp27NiNRqW7tISZ9SeeG6wfG5xoAIJZQeQYN++/mWJxNx/90O+QFa+gHS/j4Xv+mE8f/DwfvfO3ee57Qifs4qKLf4B2Z5bOzAwi1Zq8BqeCDT4FNcyQ3/nt3+Xvnvse8ApCvJQH73sQl7+SpWIb2dwOgpxHpxPpdXv0ul3yojeyo7vBerGBiVZ3OgbQLTz9naMUFqCY5Td/7Q+JC3vQPDA3s4v5I0vsft3Lmb14C49/9auICEWMtDK/UiYN1ogNTLQKgpMUfkkto+VatLeez9HnocMeLAi9RWHPRZfhXcbxY0e55NJX4IPn209+k+7SUmOjnQZsYKKVa6kkLaoTEYJ4YszIF6HTmgERTIStW2d41atey5EXX+TJb36NdivD+4wT8/N0Wu2zXI+NgQ1MtBR7QkthZFotWw4YQq9rvPn6t3L06FG2bd/OoUOHePKb32DL3BwLSwuows4dO5mfnxwav8HasaGJpmZDy4GSp18pYkHUyP/7w89w4fkXkrVaLMzPk2WepV6XNFI15ufnS7I2qvNUsQncG8MQccx2ZoiqvOpVl7Fr9/m8cOh55hdPkJYKpeuqiDsNyU4PNiHRUoSduc4MGiNPP/VtFpcW0kJSTbvIpDlT8rRjUxGt8oWpGc47vvPtJ+nmPbbObcWJK9Ws1FZvNDhd2HCt6UT6geEAqvV29eB0ABqV2dktOBFiP0jJ6Jr4RrKdLmw4oq0V1SChkVxnBhtu1LlW412t5mejkV4vNTZdd25GkWcHG06inX1Ifyp/dD29k8FiwHpk7M2AhminAXWncJ1MQop/IeUAZePvJZ2MTac6Tz+WL1/W2kDDu4CZYFaFfRoTnmAToCHaKWJ4k7VDJMMMIj0KW0ItRyQdczO8b+h0SbdTj/R0JtAQbd2Q5OTFcCL08oIdOy4A2hgek0VUjhNZwqQgy6TcwxCxFQ9pPRm8FMR9adAQbZ0ws76j1znHti3bWVw8RsFRNDyHtp/ihn3/BGt9n+gOU/AiJvMgBec6KV4KNERbJ7xzBO8JwSNOOLEwD36JV17lyVtf4KYPXc/Mnq9z4WXz5K3vkvunUX8Io1u7y6naaTLh73MPzahzHTAzomkp1QpEPDPtLVx6+S7e+rZtvG1bhxPF4wRp8VM/+yN84v7f4qb33Yku7OCTB34PsVlGY/asH+c2wSo0Em0d8M7jyhGlk0CnNYOZ8cQ3vkToHEL937Fl2yySOaz1Iu+7/e0s2bM8/J/uxiRFvZ4Oepw+NEQ7aZTBg8Uj4slCGxCuuPJ1tLM2nWwXTs+jt7AT8l1YDJgZs7NzdHs5g3gem8tSa4i2KqT2zyFIuTgyvV/zhutQVf76G39F0W1x8Jf/Lx/95c/x0C99Blm8nFZxKZ+8/39QLGzn9lvvRqw6d2tzUa2x0VbB8pBVSaKlE32FWEQ6nVmOnXiBVquDjy8H3Uo3zvHIA7/Hjfv2ogt7+Ng9v4W3HXh2rZjfRl06LtsuvdEKefnZLsc5iyrOfv0bSC6NxW4XVbj+R/8B3ht/8fk/BTEii3T1RWZnMvIcUI+jhZDhrAW2efaK7taHgUairRHDEkbNaGUZ17z29czNbUvH1+RKUUAIAUcHejO053ZiMZKauRwAbDxhtSY0Em0iKvfD8lCaZtVhbOl0Gu8Cb7zuLXgX+PPPfRYR6HQCedFFNZZxcidF69/YqCRaMxhYMwaT4fVFks4Jaspjj36RXt7j9W+4jmuu/SGuuvqHEAs0Z4UnNKpzIqrTQOrSqE4a7Uu7tFe0x6Nf/DMuu/xKnnji6wTvcK4WzXqTo+lupwFJwqVZgieeeIw3v+X6dIBcGXB5s7kyxqEh2kQkz1k6rkvL91i+inIFRhlCWZJPrZW1aLfafPWxR3nd1VenVbTNEeFAozonYvkU0STJNNjcIuJY6i0hInz9sb8qk222yabxaIh2mpBCKCit0CLG6lyWMux8g4Zopx+y7K+1HvqwkdEQ7bRjeNVrQ7KEZjDwkqMhGTREa3CG0KjOU8bw9JIOBf5bacQ5eh7mxkYj0U4Jg5VqRlrRUUUrCj6NOKtNw26IdNOze+l0oSHaBEx2s5aE6Ttik//MieCcBwIijsIWUBYxibWwWadyPtx0oyHaREx2ziYoiKLlJpUU3C9DpIOJYP4EZMfwIc0ppOhYVqYzEB1z/42LhmgnjcnB+pw3ojuCZc8R29/i3bf9NLsvbqP+BF07RJSjmMTBbIE0RGuwIgRHAPM4ERa6iywsLtKLh3nZq5fIZ/6Cm+66Ht3yl3zvhT/DOs/R9U9ShGcwyZFyIWTC5iBbM+pcFwS1asucMNeZQbzj1Vfu5Efftg3mZrDOd1HvefdtP8kn7v0N9n/gZmxpO5+4+zM1J66yWfr65qjlaYYZmAlqDucCC90lVHO+/KU/YevOeXznML3YxVwXa3+HG+/8GQo5zEMP3YdJgUlaBbKZBgQN0daBFJDZMdOeIUal02rzuquvYueu8yi6bSzfxeKRbcTu9nKfwFKKj6blnlCS8h13unF1vsFGi6XWEO2kUZFDWVia59o3XkcWAo995QssnhA+9it/yMMf/hKfPvAl4ouX47uX8vF7fxNXbOfGvXfgrJX2dlavMYOLehTxjYLGRjtJ1B9/VCUWhpnDiUeYgzgHcQcaj/Kr9/4+++54L657ER+9+7/h4i68XQLlZmTbRKqz2QV1kqgUX1rkWIAFrv/RHyPaPF959HPgCpActS6LveN4b3jnMA14ZhHbglhWTlUtJ9m4DcQ2EkF8mtDs61wn0oGxykynw+WvvZqtc7swBbMAGjixsIj36RS9TtiNmKAFOBzgynNDJ29YGbdLfRoJNoqGaCeJtKdT6PW6PPH1xzBzdNozvPFNb+IHr3kTX3n0C+UOqLQ7KmrEY31ybdY9Uc1gYB1w5bylSNrXGWPOZ//0jwm+xXXXvZXLLruaK6/6e2zZeh5mHjNHWtZdD5a8udBItHWhUm+KmMPUaPmML37+c/zgNW/gO3/zJMfmjxK8gAPvTk/IvWlGI9HWif6IUQYrMaJGnvj6Y7ziB16VpJ13/eVCmx0N0U4R9UjbnVaGiPHdp57kyquuLvd7blarbBiN6jxJjC5ZrLYYi1QefVg4scAz3/12/+pGnjVEWweWUw106LS8Viuw1F0or9g8TtmV0BDtFGFYLSot1N1gjTwboCHaKWN5BLUGy9EMBhqcETQS7TTBiVu2tKdRnQM0RDsNqELCiwx8ZmZWjkgbQEO0U0a1gLESZiKOzbRydq1obLRTwCDsqKDl8m6RDDVQ6WGuV26r25zzm3U0RFsnpFz205mZ7TtqwROjT8dbh3kknEBc8rWlhZEr/9vIhGyIti6kxYlFjBw9dqR/bicSUXeEJZ4ibz3Ju/b9I3J3iOhOUMhxVJbKkKTLj8ceHES2McnWEG1dSKcOZ8HTzkIZfVuY2waXvz4g2x9l7y/9MDN7voHf9jTafo6ePAP+RcTlK9x345KtIdo60N/6W4ZCMDNm2jP8wOUX89Z/+Er2feCn6bm/4XjxTd5x0z8ml79h/53/ivfs+1kiS6vefSOSrSHaupBI0G516OWxfOV8/WtfYMfuHrn9LaGV0Ys5YcuL3HDbT9Jz3+KBA/sx6a5y73T/jUa2hmjrQnJdHDt+nLnOVrZv2cm1b3gTGj3HjoDXC7Hey6A4jzzPmZlzQC8tsl3V7TFwjWwcmjVEWxcSDZRWq8VV11xH3jP+8oufx9tOHrn/sxz8wGd56MN/woxdQzyxiwf/46+i3Z384h331c7rHH9nK/+v/m2UUWnjsF0nqsB7ZkbWarFwYp5QZIi8DJjF9xb5xD2/y95b/i2z/go+9dDvY90tiO2p3WH5PcdLvEqRTu9Mg2y79CaLzb7OsVhtrtJJIC+EH/7hv4/zjs//+R+hvks3HqPVsRRjQx1iHlHBWYazDmJ+zfOgw5LMpo5qI/s6p1ckv3RYOfynGbzmqh9kx47dzJ9YJJAR1Zib3Ur3RA+vnqiGWBvB48xq53VuvimqRnWORf18gOWkcOJAHN98/Gt4l5EXkWvfcB1vfOOP8M3HH2dHZw9qXTwR7ae1tJfljNbj3EEzGFgHtPSfqSp50QOMrzz6BQCuvvaHeO3rruWyK67GS5Z2DOsoydZq2I9eM70DgkaijUV1rt2khyr9KNspVprinOfLj36ey664kmeffoqi6BG1AGKVYuQOq9mAo760wadpXOfWSLSJ6IdzgXICnX78DCkJBtWO9SpUwveeepJXv+Y1HHvh78hj3g9XW5nxddfFaqhWtI3+m0Y0Em1FVFJkJXWV6GhAq9XCh8BffeVLvP4tP8bXvvrlRIsqNnL/1GJjbSqwZt/1o3ZMq+qUiMpKE70NVn+4gohnvrtIsVDgg+PLX/xT2nNz5ebiSuXVBxer2Vv1YMr1Acl02mkhsoj5xbNdjnMUdTUlK5lTGEJo0Y8c5LaAuYXBJSKYDhNmlC7LTjVwVZr6r6unm1jIs4jQmu2Ru+NntRDnNuqSZMyvI2c/2cjR1pNSCyxjyFoOK15furMoBXvpLZAdRv1aVhRsVqxMtCH0owbVyLfKXcd+X9Oaa5VeQ+lqXw7GqnJW/XhBWi8i4cRZyv4cxzLxMengsPJXWU60k360I5ev+XCVMdnU0wrSF31ng2xBWkdw2XQOmV9y9Ik2KtXGTyGlyEGjeztl7U+22kk1mstq6UfSjUKspjrP0qMOyhHU9fpfDIzP8RA3Ehd/levXkr76bi33Gk2/njKstTxgmOmyGLI2IdBxPVZaSi0gJ2cfjYbsWxPRxqSrFykJskE5zqxE2wJAQE4Ag1GnrSKrR8c8q12/lvTVd2u51zif1smWYa3lSTxZrgb7Mc+WFWUcAddONOeSHVWPwr0WB+1ouqHI3hXJbFAn+rMap0e8ycj9Uly46t4V0awAywFBTAiVHh/pSlaqERMdjKxGpHGtDhOx7DGUnd4UvJVTNTba92zQs6XuXV9+zzECbzh/G07TL3uZgTfBma81VE1CSSKiI+1l6j/Lcn5lLO/GSr4xBbcUuTuFKpV00mL1wMo69+su9fIMZ1zxalnfq57VCNGq68Skb8dJfxg7XFATA7FlZejfe+i5DRcgiAactsr1Uh4pHJnLiL0irVIgFcwE1CnqYnpJgUpE3OCBp6kYykZa3r5VYZYRUx3OHE491jMy1yobvXIZpEqqU6IWKf8yyqKWjV3dSzX9PSlsbL+D9wuUyO3UIeqxniO4dmqLqk5l51KnFPRQF3ESUVHKftFvWiGVoSK82jD5h1wRQvlgU/0pAtoTMtfG40EVsXQuqImm+rv0bqJY+V4AzpEmD+qTCP1yST9vE+vPT4iUk2palkE9LgacesSEVmhRxAIw1Bkqkehy1EVAy++gbyGU+Y+bJQ5Z3i4rKjj1vPfn92I9I7hALGL/QauAivLIpz+JunRwlroC9UX5IMpcxIY7slQPs3q6pWIqG1jUlxVzSHTsveFGLDeCeLSI+BAwDC0f9Cc/9XDK30WiFINGn5Q/STqYppxF3EBal40rVi5OLBx7b7gJyyFIRiwiIbj0cESJLvJIPX9yLCQpLy7lb6ZDcqAimZUdoDLMk3DweMsQDWX9fcq/ZwQJaFHgxRAUFSM65ZFf/2QinJQdLihR0oOX2rhjVOEbldSqSWJzuEJouzaag1fPe961F0/A4/qENTEisV//6ApUikT6oERiqlt/5ny5rpF7HvoVU0mN43E48xCFGJUsa6Vd2FIujRFNDWwFiBFdwSf/yyPEsuHVRaKkHk8pBawS41EQS6QiJhXhY8Z73rGXFi2Cy4g9JUgGKsRCybKMvqIsJYtKxFyEsuIP/+dHiC5irkBdQZTU40xiv9XFJOWvAacBiYlYPgbe/Y69ZLQIIRB7kSChzD+ShWxYEki6b3ql+t91739gzyXnJwlPTkE3PYQh6yrl79TjNAzV/93veF+qv6/yT0uLtIi0QpakWjV5JQq+bANRCh/5+KcfpnCpTUxiv+Nrqeb68syS1HYakFJi+Zjxvp+7CckdQQLOHBKFzGcsLS7RarUw05H2r56rUviCj3/6YxS+SN+5WHbCdB0C533rotQCBx64zyDpaicOzBFCRq+XE7J0lEyfn2KYFeVIDMwbuS/QYIiH6Ao+9siDSdKJ9skGUqqmwL/7uXfjNFXKx8Cc24L2FItGpzPL4kKX4DOiKu12mzzPB1KKSnIpziXiF8HQoJgzdFn+1idaRfIb3vlevHpcSbQq/6iRmc4MiwuLBB9QjbTabfK8qNmnBsT+fVUiXd9FvZZmRcEjn/pEKfGrurtSepf5/9x7E+H69d+KdQ2NkU5nhsXFMv8Y6bTbxLyo2VtpeXh1XHZ0StcVFCX5ooulxolDEh6Tvsa64Z3vwZemSqYtsqKN17S2wmI6TmjUwVJfgVI2KEZ63l3f7RNtNH8TY9v3dqUkB+9/wMq0JdLq0aiKD75vz1RDejPFSaUCkkqrBgcq1WBhMGDojwhNkh1mqTdRGp9Oqx0+Vd8ro/MwGIBUBmgyABQMvFTXpDyqv7WuRktpUjdynbm+TSTlA6iUy/LRa9mTa6ogqUbD4UuTQst6L89/kLbcx2RlhzNXfi7NhoHMGhocDpscqVXKWvfVoZU/V88hulhKs/IGNQPdlfm7flukMgigpogrjwgqdXA9/m79dO5+mcr6m6R1xEmlJ9vNSBLt1z7yawCEYctY+kai92mHz2jTJ6lHSZQ0Uhx6NEMPa+ThGcnoHTIVBxUZ2O9Wu8T6r2TIu37DiYGrlb3McXmj1IbHfVr3rfJa/jZirAOYDbk4nCTbTnCIgohL2zXH5F99rqvwIedpLd1AiIwbwQzKD4N7OKBvjVMR3YaqNppTVQYZ3BAjhXjol1VqXUsG19ULWpHNm6fcsIrFAeHr9wAIfc/1UP3KYW/5/WgvAxlbmVJRjd4qcVkVEZd64JBTdOT66tuRwUS9ySraSa3XDggzuJuN1EvKXmqlRpuIWoX7WVTD+b7EHeSfCN3vIkPlhCp2WkonQw1nDCzuVOnlLsHlI7jK0zeiirBS4q3kVuy7RKy6U01aU5bT+gNixGxAwHo7VzeUQT2r/2WgjvroL3ysJApYIoKUo7VK/EoasSEM+aKckyHHX5KINVL0/RnSX4W6llUKZQpE0sCkP3tQb7RaZQffDEu0Qb0Y+Hlk+D7DeQrLnuyoXKg6IPUHsnoCTNIAAAONSURBVLxg/d9qEnX4Ihv+0sZkvSyhjCm/1d5XYBmjbTbp+pI05UBwWH1Xl6Taj6Ye1hYDhHpGBn1DGEBLyVOXPQPrIJ2SWwU5MTOcK6Md1vKpTtPN8yIZmqV31myEkJXhPtQaZR+rpJ/U/fjL+/mo806EmgSpkgx63lgsc3RRPtthog9NSw2p3LooltrfdRVcSYX6/Wvp6twbUaUymnZ811sBI6bNKr/XlcKg5az2+/ISjcOypdw+eCzXRBw/0C9Vhavpl3RuZYF3KW5r1sro9Xq0WhlmisZ0XV7kBD/IRlzqDM57YlFMDMUpZSioSs2aGjEOXBbDz8VGvqw3TP1rGf3l5DHu+fYxrn8PEozpGhPTVZtfxp/VebLkWin9Kr+Pk7IiQ9esZQZwiGgiQrfbRURw3nHLzbeQZRndvMvBBw5yy75bOPDAAfbt38eBBw5w6/v38eDBj7J/360cPHiQ22+/rdz5Q7p+/y1457n/vvv5hTvu4N577kGjsm//Pu67736885glp/Cyh1BOlIsTfuInfoI8z2m326vX6JzCZGqtFX/wf/5gwh3WQ7DTiZPrrH2iiUipJtMNYhERJ3zkIx9h3/59hCzDMG7Zf0stK2HfvvS5WuXw4MEHh37/yEfuQZxQFDnvv+02Dhw4kDIOfnjVxYR2ExGcc4g4YhFPqnINXiKsg+NDY6/R5Tb12filpSUOPnAQYPB+8CAi0iePmZKFjJtvuRnTNFp5/223poyco4g5t9xycz+vgTq2ZbZIHSIOEcEHnzrDJnptFAxmp8oHnYWsP+rMQpYqLIJ3jlvffyveefbt34e4ZOBHHUiZqJG8yPuT8d55Hv54CvIxNzvHXR+6C9U0pdFut/v2RzVgGAcRh2qk3W7jnCeEDO/DpnltFCzzJnW7XXp5j1YrzdzfftvtBB+Sm0Ej9917H4ZRFJHgfTkYSPDOs3//ftS0T9z37H0PIsLxE8eZmZnhvvvux4lLtqCbTLAKqpGiiKjGvuQz003z2iiQA/cfWKazKnutKCJZFvquCecdznmKPF9VrFcujcpVkoWMVqtFt9tFzQhhQNCVVsgWMdJqZeR5QQi+P5rdLFitI57rOPjRZGYtk8391ZKaJlg1ajnRChoHbou622EcjJS+SgvQ6/WSGj6Jxgve98tQqfQG04cm9kaDM4JTsjZPZVPIqaRtMH1oJFqDM4KGaA3OCP4/adFdcI322MMAAAAASUVORK5CYII=;labelBorderColor=none;" vertex="1" parent="1">
          <mxGeometry x="-553.6999999999999" y="-1043.5" width="35.4" height="40" as="geometry" />
        </mxCell>
        <mxCell id="ZXn4HNvfn6RSKJ2BFfuO-44" value="&lt;font style=&quot;font-size: 1px;&quot;&gt;state&lt;/font&gt;" style="text;html=1;align=center;verticalAlign=middle;resizable=0;points=[];autosize=1;strokeColor=none;fillColor=none;fontSize=1;shadow=1;labelBorderColor=none;" vertex="1" parent="1">
          <mxGeometry x="-561" y="-1007.5" width="50" height="30" as="geometry" />
        </mxCell>
        <mxCell id="ZXn4HNvfn6RSKJ2BFfuO-45" value="agent" style="rounded=1;whiteSpace=wrap;html=1;shadow=1;labelBorderColor=none;fontSize=1;strokeColor=none;fillColor=#f8cecc;" vertex="1" parent="1">
          <mxGeometry x="-470.3" y="-1061.5" width="60" height="30" as="geometry" />
        </mxCell>
        <mxCell id="ZXn4HNvfn6RSKJ2BFfuO-46" style="edgeStyle=orthogonalEdgeStyle;rounded=1;orthogonalLoop=1;jettySize=auto;html=1;exitX=0.5;exitY=1;exitDx=0;exitDy=0;entryX=0.5;entryY=0;entryDx=0;entryDy=0;strokeColor=#DEDEDE;strokeWidth=1;fontSize=1;fontColor=#000000;" edge="1" parent="1" source="ZXn4HNvfn6RSKJ2BFfuO-47" target="ZXn4HNvfn6RSKJ2BFfuO-45">
          <mxGeometry relative="1" as="geometry" />
        </mxCell>
        <mxCell id="ZXn4HNvfn6RSKJ2BFfuO-47" value="&lt;font color=&quot;#000000&quot;&gt;teacher&lt;/font&gt;" style="rounded=1;whiteSpace=wrap;html=1;shadow=1;labelBorderColor=none;fontSize=1;strokeColor=none;fillColor=#dae8fc;" vertex="1" parent="1">
          <mxGeometry x="-470.3" y="-1142.5" width="60" height="20" as="geometry" />
        </mxCell>
        <mxCell id="ZXn4HNvfn6RSKJ2BFfuO-48" value="b &amp;gt; 0" style="text;html=1;align=center;verticalAlign=middle;resizable=0;points=[];autosize=1;strokeColor=none;fillColor=none;fontSize=1;fontColor=#000000;" vertex="1" parent="1">
          <mxGeometry x="-486.3" y="-1101.5" width="50" height="30" as="geometry" />
        </mxCell>
        <mxCell id="ZXn4HNvfn6RSKJ2BFfuO-49" value="n&lt;sub&gt;s&amp;nbsp;&lt;/sub&gt;&amp;gt; c" style="text;html=1;align=center;verticalAlign=middle;resizable=0;points=[];autosize=1;strokeColor=none;fillColor=none;fontSize=1;fontColor=#000000;" vertex="1" parent="1">
          <mxGeometry x="-439.3" y="-1101.5" width="60" height="30" as="geometry" />
        </mxCell>
        <mxCell id="ZXn4HNvfn6RSKJ2BFfuO-50" style="edgeStyle=orthogonalEdgeStyle;rounded=1;orthogonalLoop=1;jettySize=auto;html=1;exitX=1;exitY=0.5;exitDx=0;exitDy=0;entryX=1;entryY=0.5;entryDx=0;entryDy=0;strokeColor=#DEDEDE;strokeWidth=1;fontSize=1;fontColor=#000000;" edge="1" parent="1" source="ZXn4HNvfn6RSKJ2BFfuO-51" target="ZXn4HNvfn6RSKJ2BFfuO-47">
          <mxGeometry relative="1" as="geometry" />
        </mxCell>
        <mxCell id="ZXn4HNvfn6RSKJ2BFfuO-51" value="RND" style="rounded=1;whiteSpace=wrap;html=1;shadow=1;labelBorderColor=none;fontSize=1;strokeColor=none;fillColor=#f8cecc;" vertex="1" parent="1">
          <mxGeometry x="-470.3" y="-1011.5" width="60" height="30" as="geometry" />
        </mxCell>
        <mxCell id="ZXn4HNvfn6RSKJ2BFfuO-52" value="" style="shape=image;verticalLabelPosition=bottom;labelBackgroundColor=default;verticalAlign=top;aspect=fixed;imageAspect=0;image=data:image/png,iVBORw0KGgoAAAANSUhEUgAAAJoAAACuCAYAAADOFBSsAAAgAElEQVR4nO2da7BkV3Xff2vvfbr73jtvjaQBSQiDJBCyJCAWNsjEqXLKVSQpP1KpVIiTVIGJFWDQY0ZIsiMwiomFXjNCgFBsTB6O7cQf7EpcFZOquPyowhiDEViAEBYGgSRbaDSa1310n7PXyod9Tvfpvt333rkzmpm+9/ynevp299lnP85/r7X22nuvLde/5d+b6m4anH4YgAw+CV1EjoN0y6/amG3DaKdrkfJyqd9hqvHsMwcACIW9jGgXn+XibFBIIkqMOW3vge+D+1vEHwJA4/movpKou4kigOBMEJPaTYyNQLigtgVl+9kux4aDiIAYhuL8IoUeZmbmBB+660acfw4AjRdy++3/E3FbUd1KCFuxIgJSo9b0kwwgIBEsnu1ybDiYgakiTjEOkbUf5xfu/Jf48F1+6YO3AHDXXQe4++6f4oMf/A1UXwd5GGhakeH7ndnin3YEMBA92+XYkHAYpkqW5ag9Q7tzCMcCngIALwu41vN49xyBVxNVwUGlOa1mq5mMz2NaEDaKDXCuQszjzKOmOANnHSRuAQQXZ0EcXiGaQ/FghpXEGibXdD+jcLYLsPngylf9s9Sk1zjRJWwAoqXRToOXAoZJRCWC86g4lC7mloCIui5GmygeFUNF0yCicnPY8LOZZqqVEm0S0aa5amcfJoAZahmiF6DxAtQfQktDX2kT9UKiXYhKG8OgJtkGT0WGfplGyHVv/pRFu3TCz439dmowBMXJEuhhvP8eH777n+PccwgR1T38wi/+L1RfidlWoN338g7bZ9NLsUPPvgtobLQzAAGbAfag6rnzzv+O888jZqiej+pVqJ1fv3oMpr+zN0R7SZGMfDVIfovzKXozIDmJgBnI3FCKaXdjTEJDtJccgkll1AdEtmKU00xOMesBG9+P2RDtJYYNqT0FK8rvpdSI068W14KGaGcENuYFA9fSBtWXNTREe4mRKDSOXJtDklVwq1/S4PRg80mxOhqJdsYwrk9vHrI1RDsjmDR/uXnQqM4GZwQN0RqcETREa3BG0BCtwRlBQ7QGZwTBGWlmZHMNgjYZzr5zOPjCcKbJdz2GbCINA6cbNvJ+dhB2tFsQs5Fd1QM0RJt2jJtjPXN4tnwPM0WXUCxOLEJDtCmHnF2iVQgXtBxtmVyAhmfTjnOEaDusyxadn3hBI9GmHecI0Xb64+xwk8nUEG3acY4QbY5n2GbfL8u0nFSyAgkbnOs4N0gGECx/Cikj2IyDaEO06UZFspX2JQgD3/2wO0Rqf9ddYG6Ityvtsk8IrnUIZ/MTL2xU5zTDRkadk+DAWqTnr4AiaD94lpTpDShcuc1GBbFEPKsWcq7g9Q9bL4C5Xj7xgkZ1TjtWkmjVs/WgvvyqB6JlMEApKWSIKSpG4dIy9KBJqvV3eJljrER7Jr2FxdY8J/yRicVsJNq0Y5KdVltSbj5JNIngjoMopjNgGYJDMJxFTIxCSEQklurTg6WrxgvNpJLDsdntRNXJDttGok05TpZobdLk9wxmgSTVUmgHMJLJXn0GzCMkNTqeKYcBCIe3vIYj5OgEFdtItOlE9dxcSQzEhp6liOBcqS4JoG1S6MBeklbigKQfo0aKGDFN1lgQjxOPSBWCa5I0A/jfKb+XXX69FXRKo25MgRuJNpUwTeQyS5Koeq+QSFIR0iO08S7DzIhxAeePE4vn8RwCadHTl6O6FYuKmEsvXC2u23jscN8GIBxduoxCLmzmOjckSnUpw2pTbTAwMEtDR1VIXzt8Nk/kCebmnufXP3YbTndww94/gnAlJiAmOPN9sg7yGoPFkmjOX4i4iyfysiHa9GGgNqWcq05Eq743s/RCUI2oWWnYO/KFRVrtFh++5wOct/2rOH2UoriEGLfQnn01h48fIQuhz10zxcnw6Qh1bCnfA9YFXZpYaGvW4E4hKjeroKpgA6lmagQfiGp4H/AOtCiIhdLOZti2+3ywp9huf0Rr/s/I2l3UdtBuOeaPHyVDyVzERDEUyvsnabiCH23PBReSywUjXw88wcnWO/srNBusDyJJwokYLh19gA/QK46jWmCaoSqYHgcWEDlGW56mbc+wc+YporYwd4wLzztBQRelAN/mxFJgbtsFxDwvOezG0qz3nfQe2iHDkY25xDAxzIFJRbyGcNOCahBXqc68yCnynHxhCdXDvPwSpYhdYr4DbAEn38DJYcwcnexbnH/BlZD3mPEdpPcC2zuPsRhfICenxwV0Zt9AXmxNalPSjMJKA4OgecQYPtAirbYtw5D7kmAy6odpcK6imgdQjZgphhFaGa12h62zW2n5Dv/mX78VH5b4+EP/lcwf57b9/4wQXsDUsPi39PJvkXEFvV6LpcUOP/+uf0pn2yVoBofnd3PvgccAiFhSnzAyOBhGePbZp4ljD7RIRMNVkqwh2rTAREAcuDQY8MFjLjlegzmERT7wiw8Bh7n7njto+8MQn0NoJb+bXMTi/HksapHMO9eis6WNiiePBfMLyuFDJxA7hkVFNVIUxdiyXFi+y85X3GBR9owrLmmkMvi7wXQgrbJI/nwzUJRIcrgSI2gOLCFylBAO0QrHablFfDnPaeqIRQvV5LQVpzifg4+oN7rxfJa6V+PkInxp902aT98dPw1AUH+UQvzQjwKIJWJVnuX0ee1kGxwusz406defXhAwSw5VDTjAWw5EEEOdYaKItBDbTSx20nMgzoACEFxo4V2Gcx4xoyh65N0uOHDSJsScLVtOkPd6IEycWaqsMsG/2XC7yk8jV1pVY0tD5JOp9ui02smiSb/+9Fo+L01e/4ScZLkJuHLqSFzNtZBULVYkz23fXWH0p5lw6bMniTFHmY+Cjj+47hWXPA5A2H7x1RRjVWdaHlIdILPevnmqsQ2b9OtJXx6N4UoxI4ZUfi9KiVfOW2qpuSKVd6HKLc1JVguFhifNS48ENSk2aVJdS6JBB2F2QnmtzO/UbbRTtfCa9CefQkvPfXWQWXUXoVwha5TehZIwYzLppxj53QCt+VdX6xArB+JbedHkmjB9D2ijpK9UZjl5PvKrMrCUKgtpeV4DYo4ri5jVXGEra/gm4uOGxOga/jFr+ses1plMlJJG45aRkeZNq6smoSHahoSNeT9Za68aABiDZdrDTJPSrJI13DeYGZPX11aTCqMFn26ISL8XblzUldnJkUyGrq/fY9J9VrevQlWk8RnW/1pNC5/rqM3USn+gPzRsSkteRqdRprnOsH7fioz8rbXb2bKrV0NY6aKUxbSTLJXfRnq3SV5+G0grTD2mOrYhp7fu64ONSDSRug022jZrk5QhLSGZuOyRaSdZ8hNV5XdAwCzHfBeTiLNZtAi0/Ax5nqf1WVY5Nw2RavnLtLbBelGT9BOvsQnkW45VlzVauQdmGl+psXz5MnAF5hZRfwRrfZ8b7/gXLPWeYNv5XXxrgVznS+emK1ciSK0NprstTv7Fml5rxQZfPysIGeAwKVB3jBieoWg9ic19g6XsC9zwwR9jzxXPI7PfYev2BUzmERkse7G6YddgBKMDhXGvhA1ONCh92BiR9+27gRtu/hm09W3eufdt0HmaPPtr3vzjF/H2d/44XX0OcT3yolemXd5gDUaxEsk2CdGS46aLuBwR+MTH78V3nuPWO9+OtI7R0xfJZhaY296D7AitThelh3eOEDwzMzMEH8aMRBucLDZ4CxppDWgO0kOty9zcDL1eJLgZMr8db7vIu3O0wk6ueM21mHp27NiNRqW7tISZ9SeeG6wfG5xoAIJZQeQYN++/mWJxNx/90O+QFa+gHS/j4Xv+mE8f/DwfvfO3ee57Qifs4qKLf4B2Z5bOzAwi1Zq8BqeCDT4FNcyQ3/nt3+Xvnvse8ApCvJQH73sQl7+SpWIb2dwOgpxHpxPpdXv0ul3yojeyo7vBerGBiVZ3OgbQLTz9naMUFqCY5Td/7Q+JC3vQPDA3s4v5I0vsft3Lmb14C49/9auICEWMtDK/UiYN1ogNTLQKgpMUfkkto+VatLeez9HnocMeLAi9RWHPRZfhXcbxY0e55NJX4IPn209+k+7SUmOjnQZsYKKVa6kkLaoTEYJ4YszIF6HTmgERTIStW2d41atey5EXX+TJb36NdivD+4wT8/N0Wu2zXI+NgQ1MtBR7QkthZFotWw4YQq9rvPn6t3L06FG2bd/OoUOHePKb32DL3BwLSwuows4dO5mfnxwav8HasaGJpmZDy4GSp18pYkHUyP/7w89w4fkXkrVaLMzPk2WepV6XNFI15ufnS7I2qvNUsQncG8MQccx2ZoiqvOpVl7Fr9/m8cOh55hdPkJYKpeuqiDsNyU4PNiHRUoSduc4MGiNPP/VtFpcW0kJSTbvIpDlT8rRjUxGt8oWpGc47vvPtJ+nmPbbObcWJK9Ws1FZvNDhd2HCt6UT6geEAqvV29eB0ABqV2dktOBFiP0jJ6Jr4RrKdLmw4oq0V1SChkVxnBhtu1LlW412t5mejkV4vNTZdd25GkWcHG06inX1Ifyp/dD29k8FiwHpk7M2AhminAXWncJ1MQop/IeUAZePvJZ2MTac6Tz+WL1/W2kDDu4CZYFaFfRoTnmAToCHaKWJ4k7VDJMMMIj0KW0ItRyQdczO8b+h0SbdTj/R0JtAQbd2Q5OTFcCL08oIdOy4A2hgek0VUjhNZwqQgy6TcwxCxFQ9pPRm8FMR9adAQbZ0ws76j1znHti3bWVw8RsFRNDyHtp/ihn3/BGt9n+gOU/AiJvMgBec6KV4KNERbJ7xzBO8JwSNOOLEwD36JV17lyVtf4KYPXc/Mnq9z4WXz5K3vkvunUX8Io1u7y6naaTLh73MPzahzHTAzomkp1QpEPDPtLVx6+S7e+rZtvG1bhxPF4wRp8VM/+yN84v7f4qb33Yku7OCTB34PsVlGY/asH+c2wSo0Em0d8M7jyhGlk0CnNYOZ8cQ3vkToHEL937Fl2yySOaz1Iu+7/e0s2bM8/J/uxiRFvZ4Oepw+NEQ7aZTBg8Uj4slCGxCuuPJ1tLM2nWwXTs+jt7AT8l1YDJgZs7NzdHs5g3gem8tSa4i2KqT2zyFIuTgyvV/zhutQVf76G39F0W1x8Jf/Lx/95c/x0C99Blm8nFZxKZ+8/39QLGzn9lvvRqw6d2tzUa2x0VbB8pBVSaKlE32FWEQ6nVmOnXiBVquDjy8H3Uo3zvHIA7/Hjfv2ogt7+Ng9v4W3HXh2rZjfRl06LtsuvdEKefnZLsc5iyrOfv0bSC6NxW4XVbj+R/8B3ht/8fk/BTEii3T1RWZnMvIcUI+jhZDhrAW2efaK7taHgUairRHDEkbNaGUZ17z29czNbUvH1+RKUUAIAUcHejO053ZiMZKauRwAbDxhtSY0Em0iKvfD8lCaZtVhbOl0Gu8Cb7zuLXgX+PPPfRYR6HQCedFFNZZxcidF69/YqCRaMxhYMwaT4fVFks4Jaspjj36RXt7j9W+4jmuu/SGuuvqHEAs0Z4UnNKpzIqrTQOrSqE4a7Uu7tFe0x6Nf/DMuu/xKnnji6wTvcK4WzXqTo+lupwFJwqVZgieeeIw3v+X6dIBcGXB5s7kyxqEh2kQkz1k6rkvL91i+inIFRhlCWZJPrZW1aLfafPWxR3nd1VenVbTNEeFAozonYvkU0STJNNjcIuJY6i0hInz9sb8qk222yabxaIh2mpBCKCit0CLG6lyWMux8g4Zopx+y7K+1HvqwkdEQ7bRjeNVrQ7KEZjDwkqMhGTREa3CG0KjOU8bw9JIOBf5bacQ5eh7mxkYj0U4Jg5VqRlrRUUUrCj6NOKtNw26IdNOze+l0oSHaBEx2s5aE6Ttik//MieCcBwIijsIWUBYxibWwWadyPtx0oyHaREx2ziYoiKLlJpUU3C9DpIOJYP4EZMfwIc0ppOhYVqYzEB1z/42LhmgnjcnB+pw3ojuCZc8R29/i3bf9NLsvbqP+BF07RJSjmMTBbIE0RGuwIgRHAPM4ERa6iywsLtKLh3nZq5fIZ/6Cm+66Ht3yl3zvhT/DOs/R9U9ShGcwyZFyIWTC5iBbM+pcFwS1asucMNeZQbzj1Vfu5Efftg3mZrDOd1HvefdtP8kn7v0N9n/gZmxpO5+4+zM1J66yWfr65qjlaYYZmAlqDucCC90lVHO+/KU/YevOeXznML3YxVwXa3+HG+/8GQo5zEMP3YdJgUlaBbKZBgQN0daBFJDZMdOeIUal02rzuquvYueu8yi6bSzfxeKRbcTu9nKfwFKKj6blnlCS8h13unF1vsFGi6XWEO2kUZFDWVia59o3XkcWAo995QssnhA+9it/yMMf/hKfPvAl4ouX47uX8vF7fxNXbOfGvXfgrJX2dlavMYOLehTxjYLGRjtJ1B9/VCUWhpnDiUeYgzgHcQcaj/Kr9/4+++54L657ER+9+7/h4i68XQLlZmTbRKqz2QV1kqgUX1rkWIAFrv/RHyPaPF959HPgCpActS6LveN4b3jnMA14ZhHbglhWTlUtJ9m4DcQ2EkF8mtDs61wn0oGxykynw+WvvZqtc7swBbMAGjixsIj36RS9TtiNmKAFOBzgynNDJ29YGbdLfRoJNoqGaCeJtKdT6PW6PPH1xzBzdNozvPFNb+IHr3kTX3n0C+UOqLQ7KmrEY31ybdY9Uc1gYB1w5bylSNrXGWPOZ//0jwm+xXXXvZXLLruaK6/6e2zZeh5mHjNHWtZdD5a8udBItHWhUm+KmMPUaPmML37+c/zgNW/gO3/zJMfmjxK8gAPvTk/IvWlGI9HWif6IUQYrMaJGnvj6Y7ziB16VpJ13/eVCmx0N0U4R9UjbnVaGiPHdp57kyquuLvd7blarbBiN6jxJjC5ZrLYYi1QefVg4scAz3/12/+pGnjVEWweWUw106LS8Viuw1F0or9g8TtmV0BDtFGFYLSot1N1gjTwboCHaKWN5BLUGy9EMBhqcETQS7TTBiVu2tKdRnQM0RDsNqELCiwx8ZmZWjkgbQEO0U0a1gLESZiKOzbRydq1obLRTwCDsqKDl8m6RDDVQ6WGuV26r25zzm3U0RFsnpFz205mZ7TtqwROjT8dbh3kknEBc8rWlhZEr/9vIhGyIti6kxYlFjBw9dqR/bicSUXeEJZ4ibz3Ju/b9I3J3iOhOUMhxVJbKkKTLj8ceHES2McnWEG1dSKcOZ8HTzkIZfVuY2waXvz4g2x9l7y/9MDN7voHf9jTafo6ePAP+RcTlK9x345KtIdo60N/6W4ZCMDNm2jP8wOUX89Z/+Er2feCn6bm/4XjxTd5x0z8ml79h/53/ivfs+1kiS6vefSOSrSHaupBI0G516OWxfOV8/WtfYMfuHrn9LaGV0Ys5YcuL3HDbT9Jz3+KBA/sx6a5y73T/jUa2hmjrQnJdHDt+nLnOVrZv2cm1b3gTGj3HjoDXC7Hey6A4jzzPmZlzQC8tsl3V7TFwjWwcmjVEWxcSDZRWq8VV11xH3jP+8oufx9tOHrn/sxz8wGd56MN/woxdQzyxiwf/46+i3Z384h331c7rHH9nK/+v/m2UUWnjsF0nqsB7ZkbWarFwYp5QZIi8DJjF9xb5xD2/y95b/i2z/go+9dDvY90tiO2p3WH5PcdLvEqRTu9Mg2y79CaLzb7OsVhtrtJJIC+EH/7hv4/zjs//+R+hvks3HqPVsRRjQx1iHlHBWYazDmJ+zfOgw5LMpo5qI/s6p1ckv3RYOfynGbzmqh9kx47dzJ9YJJAR1Zib3Ur3RA+vnqiGWBvB48xq53VuvimqRnWORf18gOWkcOJAHN98/Gt4l5EXkWvfcB1vfOOP8M3HH2dHZw9qXTwR7ae1tJfljNbj3EEzGFgHtPSfqSp50QOMrzz6BQCuvvaHeO3rruWyK67GS5Z2DOsoydZq2I9eM70DgkaijUV1rt2khyr9KNspVprinOfLj36ey664kmeffoqi6BG1AGKVYuQOq9mAo760wadpXOfWSLSJ6IdzgXICnX78DCkJBtWO9SpUwveeepJXv+Y1HHvh78hj3g9XW5nxddfFaqhWtI3+m0Y0Em1FVFJkJXWV6GhAq9XCh8BffeVLvP4tP8bXvvrlRIsqNnL/1GJjbSqwZt/1o3ZMq+qUiMpKE70NVn+4gohnvrtIsVDgg+PLX/xT2nNz5ebiSuXVBxer2Vv1YMr1Acl02mkhsoj5xbNdjnMUdTUlK5lTGEJo0Y8c5LaAuYXBJSKYDhNmlC7LTjVwVZr6r6unm1jIs4jQmu2Ru+NntRDnNuqSZMyvI2c/2cjR1pNSCyxjyFoOK15furMoBXvpLZAdRv1aVhRsVqxMtCH0owbVyLfKXcd+X9Oaa5VeQ+lqXw7GqnJW/XhBWi8i4cRZyv4cxzLxMengsPJXWU60k360I5ev+XCVMdnU0wrSF31ng2xBWkdw2XQOmV9y9Ik2KtXGTyGlyEGjeztl7U+22kk1mstq6UfSjUKspjrP0qMOyhHU9fpfDIzP8RA3Ehd/levXkr76bi33Gk2/njKstTxgmOmyGLI2IdBxPVZaSi0gJ2cfjYbsWxPRxqSrFykJskE5zqxE2wJAQE4Ag1GnrSKrR8c8q12/lvTVd2u51zif1smWYa3lSTxZrgb7Mc+WFWUcAddONOeSHVWPwr0WB+1ouqHI3hXJbFAn+rMap0e8ycj9Uly46t4V0awAywFBTAiVHh/pSlaqERMdjKxGpHGtDhOx7DGUnd4UvJVTNTba92zQs6XuXV9+zzECbzh/G07TL3uZgTfBma81VE1CSSKiI+1l6j/Lcn5lLO/GSr4xBbcUuTuFKpV00mL1wMo69+su9fIMZ1zxalnfq57VCNGq68Skb8dJfxg7XFATA7FlZejfe+i5DRcgiAactsr1Uh4pHJnLiL0irVIgFcwE1CnqYnpJgUpE3OCBp6kYykZa3r5VYZYRUx3OHE491jMy1yobvXIZpEqqU6IWKf8yyqKWjV3dSzX9PSlsbL+D9wuUyO3UIeqxniO4dmqLqk5l51KnFPRQF3ESUVHKftFvWiGVoSK82jD5h1wRQvlgU/0pAtoTMtfG40EVsXQuqImm+rv0bqJY+V4AzpEmD+qTCP1yST9vE+vPT4iUk2palkE9LgacesSEVmhRxAIw1Bkqkehy1EVAy++gbyGU+Y+bJQ5Z3i4rKjj1vPfn92I9I7hALGL/QauAivLIpz+JunRwlroC9UX5IMpcxIY7slQPs3q6pWIqG1jUlxVzSHTsveFGLDeCeLSI+BAwDC0f9Cc/9XDK30WiFINGn5Q/STqYppxF3EBal40rVi5OLBx7b7gJyyFIRiwiIbj0cESJLvJIPX9yLCQpLy7lb6ZDcqAimZUdoDLMk3DweMsQDWX9fcq/ZwQJaFHgxRAUFSM65ZFf/2QinJQdLihR0oOX2rhjVOEbldSqSWJzuEJouzaag1fPe961F0/A4/qENTEisV//6ApUikT6oERiqlt/5ny5rpF7HvoVU0mN43E48xCFGJUsa6Vd2FIujRFNDWwFiBFdwSf/yyPEsuHVRaKkHk8pBawS41EQS6QiJhXhY8Z73rGXFi2Cy4g9JUgGKsRCybKMvqIsJYtKxFyEsuIP/+dHiC5irkBdQZTU40xiv9XFJOWvAacBiYlYPgbe/Y69ZLQIIRB7kSChzD+ShWxYEki6b3ql+t91739gzyXnJwlPTkE3PYQh6yrl79TjNAzV/93veF+qv6/yT0uLtIi0QpakWjV5JQq+bANRCh/5+KcfpnCpTUxiv+Nrqeb68syS1HYakFJi+Zjxvp+7CckdQQLOHBKFzGcsLS7RarUw05H2r56rUviCj3/6YxS+SN+5WHbCdB0C533rotQCBx64zyDpaicOzBFCRq+XE7J0lEyfn2KYFeVIDMwbuS/QYIiH6Ao+9siDSdKJ9skGUqqmwL/7uXfjNFXKx8Cc24L2FItGpzPL4kKX4DOiKu12mzzPB1KKSnIpziXiF8HQoJgzdFn+1idaRfIb3vlevHpcSbQq/6iRmc4MiwuLBB9QjbTabfK8qNmnBsT+fVUiXd9FvZZmRcEjn/pEKfGrurtSepf5/9x7E+H69d+KdQ2NkU5nhsXFMv8Y6bTbxLyo2VtpeXh1XHZ0StcVFCX5ooulxolDEh6Tvsa64Z3vwZemSqYtsqKN17S2wmI6TmjUwVJfgVI2KEZ63l3f7RNtNH8TY9v3dqUkB+9/wMq0JdLq0aiKD75vz1RDejPFSaUCkkqrBgcq1WBhMGDojwhNkh1mqTdRGp9Oqx0+Vd8ro/MwGIBUBmgyABQMvFTXpDyqv7WuRktpUjdynbm+TSTlA6iUy/LRa9mTa6ogqUbD4UuTQst6L89/kLbcx2RlhzNXfi7NhoHMGhocDpscqVXKWvfVoZU/V88hulhKs/IGNQPdlfm7flukMgigpogrjwgqdXA9/m79dO5+mcr6m6R1xEmlJ9vNSBLt1z7yawCEYctY+kai92mHz2jTJ6lHSZQ0Uhx6NEMPa+ThGcnoHTIVBxUZ2O9Wu8T6r2TIu37DiYGrlb3McXmj1IbHfVr3rfJa/jZirAOYDbk4nCTbTnCIgohL2zXH5F99rqvwIedpLd1AiIwbwQzKD4N7OKBvjVMR3YaqNppTVQYZ3BAjhXjol1VqXUsG19ULWpHNm6fcsIrFAeHr9wAIfc/1UP3KYW/5/WgvAxlbmVJRjd4qcVkVEZd64JBTdOT66tuRwUS9ySraSa3XDggzuJuN1EvKXmqlRpuIWoX7WVTD+b7EHeSfCN3vIkPlhCp2WkonQw1nDCzuVOnlLsHlI7jK0zeiirBS4q3kVuy7RKy6U01aU5bT+gNixGxAwHo7VzeUQT2r/2WgjvroL3ysJApYIoKUo7VK/EoasSEM+aKckyHHX5KINVL0/RnSX4W6llUKZQpE0sCkP3tQb7RaZQffDEu0Qb0Y+Hlk+D7DeQrLnuyoXKg6IPUHsnoCTNIAAAONSURBVLxg/d9qEnX4Ihv+0sZkvSyhjCm/1d5XYBmjbTbp+pI05UBwWH1Xl6Taj6Ye1hYDhHpGBn1DGEBLyVOXPQPrIJ2SWwU5MTOcK6Md1vKpTtPN8yIZmqV31myEkJXhPtQaZR+rpJ/U/fjL+/mo806EmgSpkgx63lgsc3RRPtthog9NSw2p3LooltrfdRVcSYX6/Wvp6twbUaUymnZ811sBI6bNKr/XlcKg5az2+/ISjcOypdw+eCzXRBw/0C9Vhavpl3RuZYF3KW5r1sro9Xq0WhlmisZ0XV7kBD/IRlzqDM57YlFMDMUpZSioSs2aGjEOXBbDz8VGvqw3TP1rGf3l5DHu+fYxrn8PEozpGhPTVZtfxp/VebLkWin9Kr+Pk7IiQ9esZQZwiGgiQrfbRURw3nHLzbeQZRndvMvBBw5yy75bOPDAAfbt38eBBw5w6/v38eDBj7J/360cPHiQ22+/rdz5Q7p+/y1457n/vvv5hTvu4N577kGjsm//Pu67736885glp/Cyh1BOlIsTfuInfoI8z2m326vX6JzCZGqtFX/wf/5gwh3WQ7DTiZPrrH2iiUipJtMNYhERJ3zkIx9h3/59hCzDMG7Zf0stK2HfvvS5WuXw4MEHh37/yEfuQZxQFDnvv+02Dhw4kDIOfnjVxYR2ExGcc4g4YhFPqnINXiKsg+NDY6/R5Tb12filpSUOPnAQYPB+8CAi0iePmZKFjJtvuRnTNFp5/223poyco4g5t9xycz+vgTq2ZbZIHSIOEcEHnzrDJnptFAxmp8oHnYWsP+rMQpYqLIJ3jlvffyveefbt34e4ZOBHHUiZqJG8yPuT8d55Hv54CvIxNzvHXR+6C9U0pdFut/v2RzVgGAcRh2qk3W7jnCeEDO/DpnltFCzzJnW7XXp5j1YrzdzfftvtBB+Sm0Ej9917H4ZRFJHgfTkYSPDOs3//ftS0T9z37H0PIsLxE8eZmZnhvvvux4lLtqCbTLAKqpGiiKjGvuQz003z2iiQA/cfWKazKnutKCJZFvquCecdznmKPF9VrFcujcpVkoWMVqtFt9tFzQhhQNCVVsgWMdJqZeR5QQi+P5rdLFitI57rOPjRZGYtk8391ZKaJlg1ajnRChoHbou622EcjJS+SgvQ6/WSGj6Jxgve98tQqfQG04cm9kaDM4JTsjZPZVPIqaRtMH1oJFqDM4KGaA3OCP4/adFdcI322MMAAAAASUVORK5CYII=;labelBorderColor=none;" vertex="1" parent="1">
          <mxGeometry x="-309.3" y="-1046.5" width="35.4" height="40" as="geometry" />
        </mxCell>
        <mxCell id="ZXn4HNvfn6RSKJ2BFfuO-53" value="" style="shape=image;verticalLabelPosition=bottom;labelBackgroundColor=default;verticalAlign=top;imageAspect=0;image=data:image/png,iVBORw0KGgoAAAANSUhEUgAAAJoAAACuCAYAAADOFBSsAAAgAElEQVR4nO2da7BkV3Xff2vvfbr73jtvjaQBSQiDJBCyJCAWNsjEqXLKVSQpP1KpVIiTVIGJFWDQY0ZIsiMwiomFXjNCgFBsTB6O7cQf7EpcFZOquPyowhiDEViAEBYGgSRbaDSa1310n7PXyod9Tvfpvt333rkzmpm+9/ynevp299lnP85/r7X22nuvLde/5d+b6m4anH4YgAw+CV1EjoN0y6/amG3DaKdrkfJyqd9hqvHsMwcACIW9jGgXn+XibFBIIkqMOW3vge+D+1vEHwJA4/movpKou4kigOBMEJPaTYyNQLigtgVl+9kux4aDiIAYhuL8IoUeZmbmBB+660acfw4AjRdy++3/E3FbUd1KCFuxIgJSo9b0kwwgIBEsnu1ybDiYgakiTjEOkbUf5xfu/Jf48F1+6YO3AHDXXQe4++6f4oMf/A1UXwd5GGhakeH7ndnin3YEMBA92+XYkHAYpkqW5ag9Q7tzCMcCngIALwu41vN49xyBVxNVwUGlOa1mq5mMz2NaEDaKDXCuQszjzKOmOANnHSRuAQQXZ0EcXiGaQ/FghpXEGibXdD+jcLYLsPngylf9s9Sk1zjRJWwAoqXRToOXAoZJRCWC86g4lC7mloCIui5GmygeFUNF0yCicnPY8LOZZqqVEm0S0aa5amcfJoAZahmiF6DxAtQfQktDX2kT9UKiXYhKG8OgJtkGT0WGfplGyHVv/pRFu3TCz439dmowBMXJEuhhvP8eH777n+PccwgR1T38wi/+L1RfidlWoN338g7bZ9NLsUPPvgtobLQzAAGbAfag6rnzzv+O888jZqiej+pVqJ1fv3oMpr+zN0R7SZGMfDVIfovzKXozIDmJgBnI3FCKaXdjTEJDtJccgkll1AdEtmKU00xOMesBG9+P2RDtJYYNqT0FK8rvpdSI068W14KGaGcENuYFA9fSBtWXNTREe4mRKDSOXJtDklVwq1/S4PRg80mxOhqJdsYwrk9vHrI1RDsjmDR/uXnQqM4GZwQN0RqcETREa3BG0BCtwRlBQ7QGZwTBGWlmZHMNgjYZzr5zOPjCcKbJdz2GbCINA6cbNvJ+dhB2tFsQs5Fd1QM0RJt2jJtjPXN4tnwPM0WXUCxOLEJDtCmHnF2iVQgXtBxtmVyAhmfTjnOEaDusyxadn3hBI9GmHecI0Xb64+xwk8nUEG3acY4QbY5n2GbfL8u0nFSyAgkbnOs4N0gGECx/Cikj2IyDaEO06UZFspX2JQgD3/2wO0Rqf9ddYG6Ityvtsk8IrnUIZ/MTL2xU5zTDRkadk+DAWqTnr4AiaD94lpTpDShcuc1GBbFEPKsWcq7g9Q9bL4C5Xj7xgkZ1TjtWkmjVs/WgvvyqB6JlMEApKWSIKSpG4dIy9KBJqvV3eJljrER7Jr2FxdY8J/yRicVsJNq0Y5KdVltSbj5JNIngjoMopjNgGYJDMJxFTIxCSEQklurTg6WrxgvNpJLDsdntRNXJDttGok05TpZobdLk9wxmgSTVUmgHMJLJXn0GzCMkNTqeKYcBCIe3vIYj5OgEFdtItOlE9dxcSQzEhp6liOBcqS4JoG1S6MBeklbigKQfo0aKGDFN1lgQjxOPSBWCa5I0A/jfKb+XXX69FXRKo25MgRuJNpUwTeQyS5Koeq+QSFIR0iO08S7DzIhxAeePE4vn8RwCadHTl6O6FYuKmEsvXC2u23jscN8GIBxduoxCLmzmOjckSnUpw2pTbTAwMEtDR1VIXzt8Nk/kCebmnufXP3YbTndww94/gnAlJiAmOPN9sg7yGoPFkmjOX4i4iyfysiHa9GGgNqWcq05Eq743s/RCUI2oWWnYO/KFRVrtFh++5wOct/2rOH2UoriEGLfQnn01h48fIQuhz10zxcnw6Qh1bCnfA9YFXZpYaGvW4E4hKjeroKpgA6lmagQfiGp4H/AOtCiIhdLOZti2+3ywp9huf0Rr/s/I2l3UdtBuOeaPHyVDyVzERDEUyvsnabiCH23PBReSywUjXw88wcnWO/srNBusDyJJwokYLh19gA/QK46jWmCaoSqYHgcWEDlGW56mbc+wc+YporYwd4wLzztBQRelAN/mxFJgbtsFxDwvOezG0qz3nfQe2iHDkY25xDAxzIFJRbyGcNOCahBXqc68yCnynHxhCdXDvPwSpYhdYr4DbAEn38DJYcwcnexbnH/BlZD3mPEdpPcC2zuPsRhfICenxwV0Zt9AXmxNalPSjMJKA4OgecQYPtAirbYtw5D7kmAy6odpcK6imgdQjZgphhFaGa12h62zW2n5Dv/mX78VH5b4+EP/lcwf57b9/4wQXsDUsPi39PJvkXEFvV6LpcUOP/+uf0pn2yVoBofnd3PvgccAiFhSnzAyOBhGePbZp4ljD7RIRMNVkqwh2rTAREAcuDQY8MFjLjlegzmERT7wiw8Bh7n7njto+8MQn0NoJb+bXMTi/HksapHMO9eis6WNiiePBfMLyuFDJxA7hkVFNVIUxdiyXFi+y85X3GBR9owrLmmkMvi7wXQgrbJI/nwzUJRIcrgSI2gOLCFylBAO0QrHablFfDnPaeqIRQvV5LQVpzifg4+oN7rxfJa6V+PkInxp902aT98dPw1AUH+UQvzQjwKIJWJVnuX0ee1kGxwusz406defXhAwSw5VDTjAWw5EEEOdYaKItBDbTSx20nMgzoACEFxo4V2Gcx4xoyh65N0uOHDSJsScLVtOkPd6IEycWaqsMsG/2XC7yk8jV1pVY0tD5JOp9ui02smiSb/+9Fo+L01e/4ScZLkJuHLqSFzNtZBULVYkz23fXWH0p5lw6bMniTFHmY+Cjj+47hWXPA5A2H7x1RRjVWdaHlIdILPevnmqsQ2b9OtJXx6N4UoxI4ZUfi9KiVfOW2qpuSKVd6HKLc1JVguFhifNS48ENSk2aVJdS6JBB2F2QnmtzO/UbbRTtfCa9CefQkvPfXWQWXUXoVwha5TehZIwYzLppxj53QCt+VdX6xArB+JbedHkmjB9D2ijpK9UZjl5PvKrMrCUKgtpeV4DYo4ri5jVXGEra/gm4uOGxOga/jFr+ses1plMlJJG45aRkeZNq6smoSHahoSNeT9Za68aABiDZdrDTJPSrJI13DeYGZPX11aTCqMFn26ISL8XblzUldnJkUyGrq/fY9J9VrevQlWk8RnW/1pNC5/rqM3USn+gPzRsSkteRqdRprnOsH7fioz8rbXb2bKrV0NY6aKUxbSTLJXfRnq3SV5+G0grTD2mOrYhp7fu64ONSDSRug022jZrk5QhLSGZuOyRaSdZ8hNV5XdAwCzHfBeTiLNZtAi0/Ax5nqf1WVY5Nw2RavnLtLbBelGT9BOvsQnkW45VlzVauQdmGl+psXz5MnAF5hZRfwRrfZ8b7/gXLPWeYNv5XXxrgVznS+emK1ciSK0NprstTv7Fml5rxQZfPysIGeAwKVB3jBieoWg9ic19g6XsC9zwwR9jzxXPI7PfYev2BUzmERkse7G6YddgBKMDhXGvhA1ONCh92BiR9+27gRtu/hm09W3eufdt0HmaPPtr3vzjF/H2d/44XX0OcT3yolemXd5gDUaxEsk2CdGS46aLuBwR+MTH78V3nuPWO9+OtI7R0xfJZhaY296D7AitThelh3eOEDwzMzMEH8aMRBucLDZ4CxppDWgO0kOty9zcDL1eJLgZMr8db7vIu3O0wk6ueM21mHp27NiNRqW7tISZ9SeeG6wfG5xoAIJZQeQYN++/mWJxNx/90O+QFa+gHS/j4Xv+mE8f/DwfvfO3ee57Qifs4qKLf4B2Z5bOzAwi1Zq8BqeCDT4FNcyQ3/nt3+Xvnvse8ApCvJQH73sQl7+SpWIb2dwOgpxHpxPpdXv0ul3yojeyo7vBerGBiVZ3OgbQLTz9naMUFqCY5Td/7Q+JC3vQPDA3s4v5I0vsft3Lmb14C49/9auICEWMtDK/UiYN1ogNTLQKgpMUfkkto+VatLeez9HnocMeLAi9RWHPRZfhXcbxY0e55NJX4IPn209+k+7SUmOjnQZsYKKVa6kkLaoTEYJ4YszIF6HTmgERTIStW2d41atey5EXX+TJb36NdivD+4wT8/N0Wu2zXI+NgQ1MtBR7QkthZFotWw4YQq9rvPn6t3L06FG2bd/OoUOHePKb32DL3BwLSwuows4dO5mfnxwav8HasaGJpmZDy4GSp18pYkHUyP/7w89w4fkXkrVaLMzPk2WepV6XNFI15ufnS7I2qvNUsQncG8MQccx2ZoiqvOpVl7Fr9/m8cOh55hdPkJYKpeuqiDsNyU4PNiHRUoSduc4MGiNPP/VtFpcW0kJSTbvIpDlT8rRjUxGt8oWpGc47vvPtJ+nmPbbObcWJK9Ws1FZvNDhd2HCt6UT6geEAqvV29eB0ABqV2dktOBFiP0jJ6Jr4RrKdLmw4oq0V1SChkVxnBhtu1LlW412t5mejkV4vNTZdd25GkWcHG06inX1Ifyp/dD29k8FiwHpk7M2AhminAXWncJ1MQop/IeUAZePvJZ2MTac6Tz+WL1/W2kDDu4CZYFaFfRoTnmAToCHaKWJ4k7VDJMMMIj0KW0ItRyQdczO8b+h0SbdTj/R0JtAQbd2Q5OTFcCL08oIdOy4A2hgek0VUjhNZwqQgy6TcwxCxFQ9pPRm8FMR9adAQbZ0ws76j1znHti3bWVw8RsFRNDyHtp/ihn3/BGt9n+gOU/AiJvMgBec6KV4KNERbJ7xzBO8JwSNOOLEwD36JV17lyVtf4KYPXc/Mnq9z4WXz5K3vkvunUX8Io1u7y6naaTLh73MPzahzHTAzomkp1QpEPDPtLVx6+S7e+rZtvG1bhxPF4wRp8VM/+yN84v7f4qb33Yku7OCTB34PsVlGY/asH+c2wSo0Em0d8M7jyhGlk0CnNYOZ8cQ3vkToHEL937Fl2yySOaz1Iu+7/e0s2bM8/J/uxiRFvZ4Oepw+NEQ7aZTBg8Uj4slCGxCuuPJ1tLM2nWwXTs+jt7AT8l1YDJgZs7NzdHs5g3gem8tSa4i2KqT2zyFIuTgyvV/zhutQVf76G39F0W1x8Jf/Lx/95c/x0C99Blm8nFZxKZ+8/39QLGzn9lvvRqw6d2tzUa2x0VbB8pBVSaKlE32FWEQ6nVmOnXiBVquDjy8H3Uo3zvHIA7/Hjfv2ogt7+Ng9v4W3HXh2rZjfRl06LtsuvdEKefnZLsc5iyrOfv0bSC6NxW4XVbj+R/8B3ht/8fk/BTEii3T1RWZnMvIcUI+jhZDhrAW2efaK7taHgUairRHDEkbNaGUZ17z29czNbUvH1+RKUUAIAUcHejO053ZiMZKauRwAbDxhtSY0Em0iKvfD8lCaZtVhbOl0Gu8Cb7zuLXgX+PPPfRYR6HQCedFFNZZxcidF69/YqCRaMxhYMwaT4fVFks4Jaspjj36RXt7j9W+4jmuu/SGuuvqHEAs0Z4UnNKpzIqrTQOrSqE4a7Uu7tFe0x6Nf/DMuu/xKnnji6wTvcK4WzXqTo+lupwFJwqVZgieeeIw3v+X6dIBcGXB5s7kyxqEh2kQkz1k6rkvL91i+inIFRhlCWZJPrZW1aLfafPWxR3nd1VenVbTNEeFAozonYvkU0STJNNjcIuJY6i0hInz9sb8qk222yabxaIh2mpBCKCit0CLG6lyWMux8g4Zopx+y7K+1HvqwkdEQ7bRjeNVrQ7KEZjDwkqMhGTREa3CG0KjOU8bw9JIOBf5bacQ5eh7mxkYj0U4Jg5VqRlrRUUUrCj6NOKtNw26IdNOze+l0oSHaBEx2s5aE6Ttik//MieCcBwIijsIWUBYxibWwWadyPtx0oyHaREx2ziYoiKLlJpUU3C9DpIOJYP4EZMfwIc0ppOhYVqYzEB1z/42LhmgnjcnB+pw3ojuCZc8R29/i3bf9NLsvbqP+BF07RJSjmMTBbIE0RGuwIgRHAPM4ERa6iywsLtKLh3nZq5fIZ/6Cm+66Ht3yl3zvhT/DOs/R9U9ShGcwyZFyIWTC5iBbM+pcFwS1asucMNeZQbzj1Vfu5Efftg3mZrDOd1HvefdtP8kn7v0N9n/gZmxpO5+4+zM1J66yWfr65qjlaYYZmAlqDucCC90lVHO+/KU/YevOeXznML3YxVwXa3+HG+/8GQo5zEMP3YdJgUlaBbKZBgQN0daBFJDZMdOeIUal02rzuquvYueu8yi6bSzfxeKRbcTu9nKfwFKKj6blnlCS8h13unF1vsFGi6XWEO2kUZFDWVia59o3XkcWAo995QssnhA+9it/yMMf/hKfPvAl4ouX47uX8vF7fxNXbOfGvXfgrJX2dlavMYOLehTxjYLGRjtJ1B9/VCUWhpnDiUeYgzgHcQcaj/Kr9/4+++54L657ER+9+7/h4i68XQLlZmTbRKqz2QV1kqgUX1rkWIAFrv/RHyPaPF959HPgCpActS6LveN4b3jnMA14ZhHbglhWTlUtJ9m4DcQ2EkF8mtDs61wn0oGxykynw+WvvZqtc7swBbMAGjixsIj36RS9TtiNmKAFOBzgynNDJ29YGbdLfRoJNoqGaCeJtKdT6PW6PPH1xzBzdNozvPFNb+IHr3kTX3n0C+UOqLQ7KmrEY31ybdY9Uc1gYB1w5bylSNrXGWPOZ//0jwm+xXXXvZXLLruaK6/6e2zZeh5mHjNHWtZdD5a8udBItHWhUm+KmMPUaPmML37+c/zgNW/gO3/zJMfmjxK8gAPvTk/IvWlGI9HWif6IUQYrMaJGnvj6Y7ziB16VpJ13/eVCmx0N0U4R9UjbnVaGiPHdp57kyquuLvd7blarbBiN6jxJjC5ZrLYYi1QefVg4scAz3/12/+pGnjVEWweWUw106LS8Viuw1F0or9g8TtmV0BDtFGFYLSot1N1gjTwboCHaKWN5BLUGy9EMBhqcETQS7TTBiVu2tKdRnQM0RDsNqELCiwx8ZmZWjkgbQEO0U0a1gLESZiKOzbRydq1obLRTwCDsqKDl8m6RDDVQ6WGuV26r25zzm3U0RFsnpFz205mZ7TtqwROjT8dbh3kknEBc8rWlhZEr/9vIhGyIti6kxYlFjBw9dqR/bicSUXeEJZ4ibz3Ju/b9I3J3iOhOUMhxVJbKkKTLj8ceHES2McnWEG1dSKcOZ8HTzkIZfVuY2waXvz4g2x9l7y/9MDN7voHf9jTafo6ePAP+RcTlK9x345KtIdo60N/6W4ZCMDNm2jP8wOUX89Z/+Er2feCn6bm/4XjxTd5x0z8ml79h/53/ivfs+1kiS6vefSOSrSHaupBI0G516OWxfOV8/WtfYMfuHrn9LaGV0Ys5YcuL3HDbT9Jz3+KBA/sx6a5y73T/jUa2hmjrQnJdHDt+nLnOVrZv2cm1b3gTGj3HjoDXC7Hey6A4jzzPmZlzQC8tsl3V7TFwjWwcmjVEWxcSDZRWq8VV11xH3jP+8oufx9tOHrn/sxz8wGd56MN/woxdQzyxiwf/46+i3Z384h331c7rHH9nK/+v/m2UUWnjsF0nqsB7ZkbWarFwYp5QZIi8DJjF9xb5xD2/y95b/i2z/go+9dDvY90tiO2p3WH5PcdLvEqRTu9Mg2y79CaLzb7OsVhtrtJJIC+EH/7hv4/zjs//+R+hvks3HqPVsRRjQx1iHlHBWYazDmJ+zfOgw5LMpo5qI/s6p1ckv3RYOfynGbzmqh9kx47dzJ9YJJAR1Zib3Ur3RA+vnqiGWBvB48xq53VuvimqRnWORf18gOWkcOJAHN98/Gt4l5EXkWvfcB1vfOOP8M3HH2dHZw9qXTwR7ae1tJfljNbj3EEzGFgHtPSfqSp50QOMrzz6BQCuvvaHeO3rruWyK67GS5Z2DOsoydZq2I9eM70DgkaijUV1rt2khyr9KNspVprinOfLj36ey664kmeffoqi6BG1AGKVYuQOq9mAo760wadpXOfWSLSJ6IdzgXICnX78DCkJBtWO9SpUwveeepJXv+Y1HHvh78hj3g9XW5nxddfFaqhWtI3+m0Y0Em1FVFJkJXWV6GhAq9XCh8BffeVLvP4tP8bXvvrlRIsqNnL/1GJjbSqwZt/1o3ZMq+qUiMpKE70NVn+4gohnvrtIsVDgg+PLX/xT2nNz5ebiSuXVBxer2Vv1YMr1Acl02mkhsoj5xbNdjnMUdTUlK5lTGEJo0Y8c5LaAuYXBJSKYDhNmlC7LTjVwVZr6r6unm1jIs4jQmu2Ru+NntRDnNuqSZMyvI2c/2cjR1pNSCyxjyFoOK15furMoBXvpLZAdRv1aVhRsVqxMtCH0owbVyLfKXcd+X9Oaa5VeQ+lqXw7GqnJW/XhBWi8i4cRZyv4cxzLxMengsPJXWU60k360I5ev+XCVMdnU0wrSF31ng2xBWkdw2XQOmV9y9Ik2KtXGTyGlyEGjeztl7U+22kk1mstq6UfSjUKspjrP0qMOyhHU9fpfDIzP8RA3Ehd/levXkr76bi33Gk2/njKstTxgmOmyGLI2IdBxPVZaSi0gJ2cfjYbsWxPRxqSrFykJskE5zqxE2wJAQE4Ag1GnrSKrR8c8q12/lvTVd2u51zif1smWYa3lSTxZrgb7Mc+WFWUcAddONOeSHVWPwr0WB+1ouqHI3hXJbFAn+rMap0e8ycj9Uly46t4V0awAywFBTAiVHh/pSlaqERMdjKxGpHGtDhOx7DGUnd4UvJVTNTba92zQs6XuXV9+zzECbzh/G07TL3uZgTfBma81VE1CSSKiI+1l6j/Lcn5lLO/GSr4xBbcUuTuFKpV00mL1wMo69+su9fIMZ1zxalnfq57VCNGq68Skb8dJfxg7XFATA7FlZejfe+i5DRcgiAactsr1Uh4pHJnLiL0irVIgFcwE1CnqYnpJgUpE3OCBp6kYykZa3r5VYZYRUx3OHE491jMy1yobvXIZpEqqU6IWKf8yyqKWjV3dSzX9PSlsbL+D9wuUyO3UIeqxniO4dmqLqk5l51KnFPRQF3ESUVHKftFvWiGVoSK82jD5h1wRQvlgU/0pAtoTMtfG40EVsXQuqImm+rv0bqJY+V4AzpEmD+qTCP1yST9vE+vPT4iUk2palkE9LgacesSEVmhRxAIw1Bkqkehy1EVAy++gbyGU+Y+bJQ5Z3i4rKjj1vPfn92I9I7hALGL/QauAivLIpz+JunRwlroC9UX5IMpcxIY7slQPs3q6pWIqG1jUlxVzSHTsveFGLDeCeLSI+BAwDC0f9Cc/9XDK30WiFINGn5Q/STqYppxF3EBal40rVi5OLBx7b7gJyyFIRiwiIbj0cESJLvJIPX9yLCQpLy7lb6ZDcqAimZUdoDLMk3DweMsQDWX9fcq/ZwQJaFHgxRAUFSM65ZFf/2QinJQdLihR0oOX2rhjVOEbldSqSWJzuEJouzaag1fPe961F0/A4/qENTEisV//6ApUikT6oERiqlt/5ny5rpF7HvoVU0mN43E48xCFGJUsa6Vd2FIujRFNDWwFiBFdwSf/yyPEsuHVRaKkHk8pBawS41EQS6QiJhXhY8Z73rGXFi2Cy4g9JUgGKsRCybKMvqIsJYtKxFyEsuIP/+dHiC5irkBdQZTU40xiv9XFJOWvAacBiYlYPgbe/Y69ZLQIIRB7kSChzD+ShWxYEki6b3ql+t91739gzyXnJwlPTkE3PYQh6yrl79TjNAzV/93veF+qv6/yT0uLtIi0QpakWjV5JQq+bANRCh/5+KcfpnCpTUxiv+Nrqeb68syS1HYakFJi+Zjxvp+7CckdQQLOHBKFzGcsLS7RarUw05H2r56rUviCj3/6YxS+SN+5WHbCdB0C533rotQCBx64zyDpaicOzBFCRq+XE7J0lEyfn2KYFeVIDMwbuS/QYIiH6Ao+9siDSdKJ9skGUqqmwL/7uXfjNFXKx8Cc24L2FItGpzPL4kKX4DOiKu12mzzPB1KKSnIpziXiF8HQoJgzdFn+1idaRfIb3vlevHpcSbQq/6iRmc4MiwuLBB9QjbTabfK8qNmnBsT+fVUiXd9FvZZmRcEjn/pEKfGrurtSepf5/9x7E+H69d+KdQ2NkU5nhsXFMv8Y6bTbxLyo2VtpeXh1XHZ0StcVFCX5ooulxolDEh6Tvsa64Z3vwZemSqYtsqKN17S2wmI6TmjUwVJfgVI2KEZ63l3f7RNtNH8TY9v3dqUkB+9/wMq0JdLq0aiKD75vz1RDejPFSaUCkkqrBgcq1WBhMGDojwhNkh1mqTdRGp9Oqx0+Vd8ro/MwGIBUBmgyABQMvFTXpDyqv7WuRktpUjdynbm+TSTlA6iUy/LRa9mTa6ogqUbD4UuTQst6L89/kLbcx2RlhzNXfi7NhoHMGhocDpscqVXKWvfVoZU/V88hulhKs/IGNQPdlfm7flukMgigpogrjwgqdXA9/m79dO5+mcr6m6R1xEmlJ9vNSBLt1z7yawCEYctY+kai92mHz2jTJ6lHSZQ0Uhx6NEMPa+ThGcnoHTIVBxUZ2O9Wu8T6r2TIu37DiYGrlb3McXmj1IbHfVr3rfJa/jZirAOYDbk4nCTbTnCIgohL2zXH5F99rqvwIedpLd1AiIwbwQzKD4N7OKBvjVMR3YaqNppTVQYZ3BAjhXjol1VqXUsG19ULWpHNm6fcsIrFAeHr9wAIfc/1UP3KYW/5/WgvAxlbmVJRjd4qcVkVEZd64JBTdOT66tuRwUS9ySraSa3XDggzuJuN1EvKXmqlRpuIWoX7WVTD+b7EHeSfCN3vIkPlhCp2WkonQw1nDCzuVOnlLsHlI7jK0zeiirBS4q3kVuy7RKy6U01aU5bT+gNixGxAwHo7VzeUQT2r/2WgjvroL3ysJApYIoKUo7VK/EoasSEM+aKckyHHX5KINVL0/RnSX4W6llUKZQpE0sCkP3tQb7RaZQffDEu0Qb0Y+Hlk+D7DeQrLnuyoXKg6IPUHsnoCTNIAAAONSURBVLxg/d9qEnX4Ihv+0sZkvSyhjCm/1d5XYBmjbTbp+pI05UBwWH1Xl6Taj6Ye1hYDhHpGBn1DGEBLyVOXPQPrIJ2SWwU5MTOcK6Md1vKpTtPN8yIZmqV31myEkJXhPtQaZR+rpJ/U/fjL+/mo806EmgSpkgx63lgsc3RRPtthog9NSw2p3LooltrfdRVcSYX6/Wvp6twbUaUymnZ811sBI6bNKr/XlcKg5az2+/ISjcOypdw+eCzXRBw/0C9Vhavpl3RuZYF3KW5r1sro9Xq0WhlmisZ0XV7kBD/IRlzqDM57YlFMDMUpZSioSs2aGjEOXBbDz8VGvqw3TP1rGf3l5DHu+fYxrn8PEozpGhPTVZtfxp/VebLkWin9Kr+Pk7IiQ9esZQZwiGgiQrfbRURw3nHLzbeQZRndvMvBBw5yy75bOPDAAfbt38eBBw5w6/v38eDBj7J/360cPHiQ22+/rdz5Q7p+/y1457n/vvv5hTvu4N577kGjsm//Pu67736885glp/Cyh1BOlIsTfuInfoI8z2m326vX6JzCZGqtFX/wf/5gwh3WQ7DTiZPrrH2iiUipJtMNYhERJ3zkIx9h3/59hCzDMG7Zf0stK2HfvvS5WuXw4MEHh37/yEfuQZxQFDnvv+02Dhw4kDIOfnjVxYR2ExGcc4g4YhFPqnINXiKsg+NDY6/R5Tb12filpSUOPnAQYPB+8CAi0iePmZKFjJtvuRnTNFp5/223poyco4g5t9xycz+vgTq2ZbZIHSIOEcEHnzrDJnptFAxmp8oHnYWsP+rMQpYqLIJ3jlvffyveefbt34e4ZOBHHUiZqJG8yPuT8d55Hv54CvIxNzvHXR+6C9U0pdFut/v2RzVgGAcRh2qk3W7jnCeEDO/DpnltFCzzJnW7XXp5j1YrzdzfftvtBB+Sm0Ej9917H4ZRFJHgfTkYSPDOs3//ftS0T9z37H0PIsLxE8eZmZnhvvvux4lLtqCbTLAKqpGiiKjGvuQz003z2iiQA/cfWKazKnutKCJZFvquCecdznmKPF9VrFcujcpVkoWMVqtFt9tFzQhhQNCVVsgWMdJqZeR5QQi+P5rdLFitI57rOPjRZGYtk8391ZKaJlg1ajnRChoHbou622EcjJS+SgvQ6/WSGj6Jxgve98tQqfQG04cm9kaDM4JTsjZPZVPIqaRtMH1oJFqDM4KGaA3OCP4/adFdcI322MMAAAAASUVORK5CYII=;labelBorderColor=none;" vertex="1" parent="1">
          <mxGeometry x="-307.7" y="-1044.5" width="35.4" height="40" as="geometry" />
        </mxCell>
        <mxCell id="ZXn4HNvfn6RSKJ2BFfuO-54" value="" style="shape=image;verticalLabelPosition=bottom;labelBackgroundColor=default;verticalAlign=top;imageAspect=0;image=data:image/png,iVBORw0KGgoAAAANSUhEUgAAAJoAAACuCAYAAADOFBSsAAAgAElEQVR4nO2da7BkV3Xff2vvfbr73jtvjaQBSQiDJBCyJCAWNsjEqXLKVSQpP1KpVIiTVIGJFWDQY0ZIsiMwiomFXjNCgFBsTB6O7cQf7EpcFZOquPyowhiDEViAEBYGgSRbaDSa1310n7PXyod9Tvfpvt333rkzmpm+9/ynevp299lnP85/r7X22nuvLde/5d+b6m4anH4YgAw+CV1EjoN0y6/amG3DaKdrkfJyqd9hqvHsMwcACIW9jGgXn+XibFBIIkqMOW3vge+D+1vEHwJA4/movpKou4kigOBMEJPaTYyNQLigtgVl+9kux4aDiIAYhuL8IoUeZmbmBB+660acfw4AjRdy++3/E3FbUd1KCFuxIgJSo9b0kwwgIBEsnu1ybDiYgakiTjEOkbUf5xfu/Jf48F1+6YO3AHDXXQe4++6f4oMf/A1UXwd5GGhakeH7ndnin3YEMBA92+XYkHAYpkqW5ag9Q7tzCMcCngIALwu41vN49xyBVxNVwUGlOa1mq5mMz2NaEDaKDXCuQszjzKOmOANnHSRuAQQXZ0EcXiGaQ/FghpXEGibXdD+jcLYLsPngylf9s9Sk1zjRJWwAoqXRToOXAoZJRCWC86g4lC7mloCIui5GmygeFUNF0yCicnPY8LOZZqqVEm0S0aa5amcfJoAZahmiF6DxAtQfQktDX2kT9UKiXYhKG8OgJtkGT0WGfplGyHVv/pRFu3TCz439dmowBMXJEuhhvP8eH777n+PccwgR1T38wi/+L1RfidlWoN338g7bZ9NLsUPPvgtobLQzAAGbAfag6rnzzv+O888jZqiej+pVqJ1fv3oMpr+zN0R7SZGMfDVIfovzKXozIDmJgBnI3FCKaXdjTEJDtJccgkll1AdEtmKU00xOMesBG9+P2RDtJYYNqT0FK8rvpdSI068W14KGaGcENuYFA9fSBtWXNTREe4mRKDSOXJtDklVwq1/S4PRg80mxOhqJdsYwrk9vHrI1RDsjmDR/uXnQqM4GZwQN0RqcETREa3BG0BCtwRlBQ7QGZwTBGWlmZHMNgjYZzr5zOPjCcKbJdz2GbCINA6cbNvJ+dhB2tFsQs5Fd1QM0RJt2jJtjPXN4tnwPM0WXUCxOLEJDtCmHnF2iVQgXtBxtmVyAhmfTjnOEaDusyxadn3hBI9GmHecI0Xb64+xwk8nUEG3acY4QbY5n2GbfL8u0nFSyAgkbnOs4N0gGECx/Cikj2IyDaEO06UZFspX2JQgD3/2wO0Rqf9ddYG6Ityvtsk8IrnUIZ/MTL2xU5zTDRkadk+DAWqTnr4AiaD94lpTpDShcuc1GBbFEPKsWcq7g9Q9bL4C5Xj7xgkZ1TjtWkmjVs/WgvvyqB6JlMEApKWSIKSpG4dIy9KBJqvV3eJljrER7Jr2FxdY8J/yRicVsJNq0Y5KdVltSbj5JNIngjoMopjNgGYJDMJxFTIxCSEQklurTg6WrxgvNpJLDsdntRNXJDttGok05TpZobdLk9wxmgSTVUmgHMJLJXn0GzCMkNTqeKYcBCIe3vIYj5OgEFdtItOlE9dxcSQzEhp6liOBcqS4JoG1S6MBeklbigKQfo0aKGDFN1lgQjxOPSBWCa5I0A/jfKb+XXX69FXRKo25MgRuJNpUwTeQyS5Koeq+QSFIR0iO08S7DzIhxAeePE4vn8RwCadHTl6O6FYuKmEsvXC2u23jscN8GIBxduoxCLmzmOjckSnUpw2pTbTAwMEtDR1VIXzt8Nk/kCebmnufXP3YbTndww94/gnAlJiAmOPN9sg7yGoPFkmjOX4i4iyfysiHa9GGgNqWcq05Eq743s/RCUI2oWWnYO/KFRVrtFh++5wOct/2rOH2UoriEGLfQnn01h48fIQuhz10zxcnw6Qh1bCnfA9YFXZpYaGvW4E4hKjeroKpgA6lmagQfiGp4H/AOtCiIhdLOZti2+3ywp9huf0Rr/s/I2l3UdtBuOeaPHyVDyVzERDEUyvsnabiCH23PBReSywUjXw88wcnWO/srNBusDyJJwokYLh19gA/QK46jWmCaoSqYHgcWEDlGW56mbc+wc+YporYwd4wLzztBQRelAN/mxFJgbtsFxDwvOezG0qz3nfQe2iHDkY25xDAxzIFJRbyGcNOCahBXqc68yCnynHxhCdXDvPwSpYhdYr4DbAEn38DJYcwcnexbnH/BlZD3mPEdpPcC2zuPsRhfICenxwV0Zt9AXmxNalPSjMJKA4OgecQYPtAirbYtw5D7kmAy6odpcK6imgdQjZgphhFaGa12h62zW2n5Dv/mX78VH5b4+EP/lcwf57b9/4wQXsDUsPi39PJvkXEFvV6LpcUOP/+uf0pn2yVoBofnd3PvgccAiFhSnzAyOBhGePbZp4ljD7RIRMNVkqwh2rTAREAcuDQY8MFjLjlegzmERT7wiw8Bh7n7njto+8MQn0NoJb+bXMTi/HksapHMO9eis6WNiiePBfMLyuFDJxA7hkVFNVIUxdiyXFi+y85X3GBR9owrLmmkMvi7wXQgrbJI/nwzUJRIcrgSI2gOLCFylBAO0QrHablFfDnPaeqIRQvV5LQVpzifg4+oN7rxfJa6V+PkInxp902aT98dPw1AUH+UQvzQjwKIJWJVnuX0ee1kGxwusz406defXhAwSw5VDTjAWw5EEEOdYaKItBDbTSx20nMgzoACEFxo4V2Gcx4xoyh65N0uOHDSJsScLVtOkPd6IEycWaqsMsG/2XC7yk8jV1pVY0tD5JOp9ui02smiSb/+9Fo+L01e/4ScZLkJuHLqSFzNtZBULVYkz23fXWH0p5lw6bMniTFHmY+Cjj+47hWXPA5A2H7x1RRjVWdaHlIdILPevnmqsQ2b9OtJXx6N4UoxI4ZUfi9KiVfOW2qpuSKVd6HKLc1JVguFhifNS48ENSk2aVJdS6JBB2F2QnmtzO/UbbRTtfCa9CefQkvPfXWQWXUXoVwha5TehZIwYzLppxj53QCt+VdX6xArB+JbedHkmjB9D2ijpK9UZjl5PvKrMrCUKgtpeV4DYo4ri5jVXGEra/gm4uOGxOga/jFr+ses1plMlJJG45aRkeZNq6smoSHahoSNeT9Za68aABiDZdrDTJPSrJI13DeYGZPX11aTCqMFn26ISL8XblzUldnJkUyGrq/fY9J9VrevQlWk8RnW/1pNC5/rqM3USn+gPzRsSkteRqdRprnOsH7fioz8rbXb2bKrV0NY6aKUxbSTLJXfRnq3SV5+G0grTD2mOrYhp7fu64ONSDSRug022jZrk5QhLSGZuOyRaSdZ8hNV5XdAwCzHfBeTiLNZtAi0/Ax5nqf1WVY5Nw2RavnLtLbBelGT9BOvsQnkW45VlzVauQdmGl+psXz5MnAF5hZRfwRrfZ8b7/gXLPWeYNv5XXxrgVznS+emK1ciSK0NprstTv7Fml5rxQZfPysIGeAwKVB3jBieoWg9ic19g6XsC9zwwR9jzxXPI7PfYev2BUzmERkse7G6YddgBKMDhXGvhA1ONCh92BiR9+27gRtu/hm09W3eufdt0HmaPPtr3vzjF/H2d/44XX0OcT3yolemXd5gDUaxEsk2CdGS46aLuBwR+MTH78V3nuPWO9+OtI7R0xfJZhaY296D7AitThelh3eOEDwzMzMEH8aMRBucLDZ4CxppDWgO0kOty9zcDL1eJLgZMr8db7vIu3O0wk6ueM21mHp27NiNRqW7tISZ9SeeG6wfG5xoAIJZQeQYN++/mWJxNx/90O+QFa+gHS/j4Xv+mE8f/DwfvfO3ee57Qifs4qKLf4B2Z5bOzAwi1Zq8BqeCDT4FNcyQ3/nt3+Xvnvse8ApCvJQH73sQl7+SpWIb2dwOgpxHpxPpdXv0ul3yojeyo7vBerGBiVZ3OgbQLTz9naMUFqCY5Td/7Q+JC3vQPDA3s4v5I0vsft3Lmb14C49/9auICEWMtDK/UiYN1ogNTLQKgpMUfkkto+VatLeez9HnocMeLAi9RWHPRZfhXcbxY0e55NJX4IPn209+k+7SUmOjnQZsYKKVa6kkLaoTEYJ4YszIF6HTmgERTIStW2d41atey5EXX+TJb36NdivD+4wT8/N0Wu2zXI+NgQ1MtBR7QkthZFotWw4YQq9rvPn6t3L06FG2bd/OoUOHePKb32DL3BwLSwuows4dO5mfnxwav8HasaGJpmZDy4GSp18pYkHUyP/7w89w4fkXkrVaLMzPk2WepV6XNFI15ufnS7I2qvNUsQncG8MQccx2ZoiqvOpVl7Fr9/m8cOh55hdPkJYKpeuqiDsNyU4PNiHRUoSduc4MGiNPP/VtFpcW0kJSTbvIpDlT8rRjUxGt8oWpGc47vvPtJ+nmPbbObcWJK9Ws1FZvNDhd2HCt6UT6geEAqvV29eB0ABqV2dktOBFiP0jJ6Jr4RrKdLmw4oq0V1SChkVxnBhtu1LlW412t5mejkV4vNTZdd25GkWcHG06inX1Ifyp/dD29k8FiwHpk7M2AhminAXWncJ1MQop/IeUAZePvJZ2MTac6Tz+WL1/W2kDDu4CZYFaFfRoTnmAToCHaKWJ4k7VDJMMMIj0KW0ItRyQdczO8b+h0SbdTj/R0JtAQbd2Q5OTFcCL08oIdOy4A2hgek0VUjhNZwqQgy6TcwxCxFQ9pPRm8FMR9adAQbZ0ws76j1znHti3bWVw8RsFRNDyHtp/ihn3/BGt9n+gOU/AiJvMgBec6KV4KNERbJ7xzBO8JwSNOOLEwD36JV17lyVtf4KYPXc/Mnq9z4WXz5K3vkvunUX8Io1u7y6naaTLh73MPzahzHTAzomkp1QpEPDPtLVx6+S7e+rZtvG1bhxPF4wRp8VM/+yN84v7f4qb33Yku7OCTB34PsVlGY/asH+c2wSo0Em0d8M7jyhGlk0CnNYOZ8cQ3vkToHEL937Fl2yySOaz1Iu+7/e0s2bM8/J/uxiRFvZ4Oepw+NEQ7aZTBg8Uj4slCGxCuuPJ1tLM2nWwXTs+jt7AT8l1YDJgZs7NzdHs5g3gem8tSa4i2KqT2zyFIuTgyvV/zhutQVf76G39F0W1x8Jf/Lx/95c/x0C99Blm8nFZxKZ+8/39QLGzn9lvvRqw6d2tzUa2x0VbB8pBVSaKlE32FWEQ6nVmOnXiBVquDjy8H3Uo3zvHIA7/Hjfv2ogt7+Ng9v4W3HXh2rZjfRl06LtsuvdEKefnZLsc5iyrOfv0bSC6NxW4XVbj+R/8B3ht/8fk/BTEii3T1RWZnMvIcUI+jhZDhrAW2efaK7taHgUairRHDEkbNaGUZ17z29czNbUvH1+RKUUAIAUcHejO053ZiMZKauRwAbDxhtSY0Em0iKvfD8lCaZtVhbOl0Gu8Cb7zuLXgX+PPPfRYR6HQCedFFNZZxcidF69/YqCRaMxhYMwaT4fVFks4Jaspjj36RXt7j9W+4jmuu/SGuuvqHEAs0Z4UnNKpzIqrTQOrSqE4a7Uu7tFe0x6Nf/DMuu/xKnnji6wTvcK4WzXqTo+lupwFJwqVZgieeeIw3v+X6dIBcGXB5s7kyxqEh2kQkz1k6rkvL91i+inIFRhlCWZJPrZW1aLfafPWxR3nd1VenVbTNEeFAozonYvkU0STJNNjcIuJY6i0hInz9sb8qk222yabxaIh2mpBCKCit0CLG6lyWMux8g4Zopx+y7K+1HvqwkdEQ7bRjeNVrQ7KEZjDwkqMhGTREa3CG0KjOU8bw9JIOBf5bacQ5eh7mxkYj0U4Jg5VqRlrRUUUrCj6NOKtNw26IdNOze+l0oSHaBEx2s5aE6Ttik//MieCcBwIijsIWUBYxibWwWadyPtx0oyHaREx2ziYoiKLlJpUU3C9DpIOJYP4EZMfwIc0ppOhYVqYzEB1z/42LhmgnjcnB+pw3ojuCZc8R29/i3bf9NLsvbqP+BF07RJSjmMTBbIE0RGuwIgRHAPM4ERa6iywsLtKLh3nZq5fIZ/6Cm+66Ht3yl3zvhT/DOs/R9U9ShGcwyZFyIWTC5iBbM+pcFwS1asucMNeZQbzj1Vfu5Efftg3mZrDOd1HvefdtP8kn7v0N9n/gZmxpO5+4+zM1J66yWfr65qjlaYYZmAlqDucCC90lVHO+/KU/YevOeXznML3YxVwXa3+HG+/8GQo5zEMP3YdJgUlaBbKZBgQN0daBFJDZMdOeIUal02rzuquvYueu8yi6bSzfxeKRbcTu9nKfwFKKj6blnlCS8h13unF1vsFGi6XWEO2kUZFDWVia59o3XkcWAo995QssnhA+9it/yMMf/hKfPvAl4ouX47uX8vF7fxNXbOfGvXfgrJX2dlavMYOLehTxjYLGRjtJ1B9/VCUWhpnDiUeYgzgHcQcaj/Kr9/4+++54L657ER+9+7/h4i68XQLlZmTbRKqz2QV1kqgUX1rkWIAFrv/RHyPaPF959HPgCpActS6LveN4b3jnMA14ZhHbglhWTlUtJ9m4DcQ2EkF8mtDs61wn0oGxykynw+WvvZqtc7swBbMAGjixsIj36RS9TtiNmKAFOBzgynNDJ29YGbdLfRoJNoqGaCeJtKdT6PW6PPH1xzBzdNozvPFNb+IHr3kTX3n0C+UOqLQ7KmrEY31ybdY9Uc1gYB1w5bylSNrXGWPOZ//0jwm+xXXXvZXLLruaK6/6e2zZeh5mHjNHWtZdD5a8udBItHWhUm+KmMPUaPmML37+c/zgNW/gO3/zJMfmjxK8gAPvTk/IvWlGI9HWif6IUQYrMaJGnvj6Y7ziB16VpJ13/eVCmx0N0U4R9UjbnVaGiPHdp57kyquuLvd7blarbBiN6jxJjC5ZrLYYi1QefVg4scAz3/12/+pGnjVEWweWUw106LS8Viuw1F0or9g8TtmV0BDtFGFYLSot1N1gjTwboCHaKWN5BLUGy9EMBhqcETQS7TTBiVu2tKdRnQM0RDsNqELCiwx8ZmZWjkgbQEO0U0a1gLESZiKOzbRydq1obLRTwCDsqKDl8m6RDDVQ6WGuV26r25zzm3U0RFsnpFz205mZ7TtqwROjT8dbh3kknEBc8rWlhZEr/9vIhGyIti6kxYlFjBw9dqR/bicSUXeEJZ4ibz3Ju/b9I3J3iOhOUMhxVJbKkKTLj8ceHES2McnWEG1dSKcOZ8HTzkIZfVuY2waXvz4g2x9l7y/9MDN7voHf9jTafo6ePAP+RcTlK9x345KtIdo60N/6W4ZCMDNm2jP8wOUX89Z/+Er2feCn6bm/4XjxTd5x0z8ml79h/53/ivfs+1kiS6vefSOSrSHaupBI0G516OWxfOV8/WtfYMfuHrn9LaGV0Ys5YcuL3HDbT9Jz3+KBA/sx6a5y73T/jUa2hmjrQnJdHDt+nLnOVrZv2cm1b3gTGj3HjoDXC7Hey6A4jzzPmZlzQC8tsl3V7TFwjWwcmjVEWxcSDZRWq8VV11xH3jP+8oufx9tOHrn/sxz8wGd56MN/woxdQzyxiwf/46+i3Z384h331c7rHH9nK/+v/m2UUWnjsF0nqsB7ZkbWarFwYp5QZIi8DJjF9xb5xD2/y95b/i2z/go+9dDvY90tiO2p3WH5PcdLvEqRTu9Mg2y79CaLzb7OsVhtrtJJIC+EH/7hv4/zjs//+R+hvks3HqPVsRRjQx1iHlHBWYazDmJ+zfOgw5LMpo5qI/s6p1ckv3RYOfynGbzmqh9kx47dzJ9YJJAR1Zib3Ur3RA+vnqiGWBvB48xq53VuvimqRnWORf18gOWkcOJAHN98/Gt4l5EXkWvfcB1vfOOP8M3HH2dHZw9qXTwR7ae1tJfljNbj3EEzGFgHtPSfqSp50QOMrzz6BQCuvvaHeO3rruWyK67GS5Z2DOsoydZq2I9eM70DgkaijUV1rt2khyr9KNspVprinOfLj36ey664kmeffoqi6BG1AGKVYuQOq9mAo760wadpXOfWSLSJ6IdzgXICnX78DCkJBtWO9SpUwveeepJXv+Y1HHvh78hj3g9XW5nxddfFaqhWtI3+m0Y0Em1FVFJkJXWV6GhAq9XCh8BffeVLvP4tP8bXvvrlRIsqNnL/1GJjbSqwZt/1o3ZMq+qUiMpKE70NVn+4gohnvrtIsVDgg+PLX/xT2nNz5ebiSuXVBxer2Vv1YMr1Acl02mkhsoj5xbNdjnMUdTUlK5lTGEJo0Y8c5LaAuYXBJSKYDhNmlC7LTjVwVZr6r6unm1jIs4jQmu2Ru+NntRDnNuqSZMyvI2c/2cjR1pNSCyxjyFoOK15furMoBXvpLZAdRv1aVhRsVqxMtCH0owbVyLfKXcd+X9Oaa5VeQ+lqXw7GqnJW/XhBWi8i4cRZyv4cxzLxMengsPJXWU60k360I5ev+XCVMdnU0wrSF31ng2xBWkdw2XQOmV9y9Ik2KtXGTyGlyEGjeztl7U+22kk1mstq6UfSjUKspjrP0qMOyhHU9fpfDIzP8RA3Ehd/levXkr76bi33Gk2/njKstTxgmOmyGLI2IdBxPVZaSi0gJ2cfjYbsWxPRxqSrFykJskE5zqxE2wJAQE4Ag1GnrSKrR8c8q12/lvTVd2u51zif1smWYa3lSTxZrgb7Mc+WFWUcAddONOeSHVWPwr0WB+1ouqHI3hXJbFAn+rMap0e8ycj9Uly46t4V0awAywFBTAiVHh/pSlaqERMdjKxGpHGtDhOx7DGUnd4UvJVTNTba92zQs6XuXV9+zzECbzh/G07TL3uZgTfBma81VE1CSSKiI+1l6j/Lcn5lLO/GSr4xBbcUuTuFKpV00mL1wMo69+su9fIMZ1zxalnfq57VCNGq68Skb8dJfxg7XFATA7FlZejfe+i5DRcgiAactsr1Uh4pHJnLiL0irVIgFcwE1CnqYnpJgUpE3OCBp6kYykZa3r5VYZYRUx3OHE491jMy1yobvXIZpEqqU6IWKf8yyqKWjV3dSzX9PSlsbL+D9wuUyO3UIeqxniO4dmqLqk5l51KnFPRQF3ESUVHKftFvWiGVoSK82jD5h1wRQvlgU/0pAtoTMtfG40EVsXQuqImm+rv0bqJY+V4AzpEmD+qTCP1yST9vE+vPT4iUk2palkE9LgacesSEVmhRxAIw1Bkqkehy1EVAy++gbyGU+Y+bJQ5Z3i4rKjj1vPfn92I9I7hALGL/QauAivLIpz+JunRwlroC9UX5IMpcxIY7slQPs3q6pWIqG1jUlxVzSHTsveFGLDeCeLSI+BAwDC0f9Cc/9XDK30WiFINGn5Q/STqYppxF3EBal40rVi5OLBx7b7gJyyFIRiwiIbj0cESJLvJIPX9yLCQpLy7lb6ZDcqAimZUdoDLMk3DweMsQDWX9fcq/ZwQJaFHgxRAUFSM65ZFf/2QinJQdLihR0oOX2rhjVOEbldSqSWJzuEJouzaag1fPe961F0/A4/qENTEisV//6ApUikT6oERiqlt/5ny5rpF7HvoVU0mN43E48xCFGJUsa6Vd2FIujRFNDWwFiBFdwSf/yyPEsuHVRaKkHk8pBawS41EQS6QiJhXhY8Z73rGXFi2Cy4g9JUgGKsRCybKMvqIsJYtKxFyEsuIP/+dHiC5irkBdQZTU40xiv9XFJOWvAacBiYlYPgbe/Y69ZLQIIRB7kSChzD+ShWxYEki6b3ql+t91739gzyXnJwlPTkE3PYQh6yrl79TjNAzV/93veF+qv6/yT0uLtIi0QpakWjV5JQq+bANRCh/5+KcfpnCpTUxiv+Nrqeb68syS1HYakFJi+Zjxvp+7CckdQQLOHBKFzGcsLS7RarUw05H2r56rUviCj3/6YxS+SN+5WHbCdB0C533rotQCBx64zyDpaicOzBFCRq+XE7J0lEyfn2KYFeVIDMwbuS/QYIiH6Ao+9siDSdKJ9skGUqqmwL/7uXfjNFXKx8Cc24L2FItGpzPL4kKX4DOiKu12mzzPB1KKSnIpziXiF8HQoJgzdFn+1idaRfIb3vlevHpcSbQq/6iRmc4MiwuLBB9QjbTabfK8qNmnBsT+fVUiXd9FvZZmRcEjn/pEKfGrurtSepf5/9x7E+H69d+KdQ2NkU5nhsXFMv8Y6bTbxLyo2VtpeXh1XHZ0StcVFCX5ooulxolDEh6Tvsa64Z3vwZemSqYtsqKN17S2wmI6TmjUwVJfgVI2KEZ63l3f7RNtNH8TY9v3dqUkB+9/wMq0JdLq0aiKD75vz1RDejPFSaUCkkqrBgcq1WBhMGDojwhNkh1mqTdRGp9Oqx0+Vd8ro/MwGIBUBmgyABQMvFTXpDyqv7WuRktpUjdynbm+TSTlA6iUy/LRa9mTa6ogqUbD4UuTQst6L89/kLbcx2RlhzNXfi7NhoHMGhocDpscqVXKWvfVoZU/V88hulhKs/IGNQPdlfm7flukMgigpogrjwgqdXA9/m79dO5+mcr6m6R1xEmlJ9vNSBLt1z7yawCEYctY+kai92mHz2jTJ6lHSZQ0Uhx6NEMPa+ThGcnoHTIVBxUZ2O9Wu8T6r2TIu37DiYGrlb3McXmj1IbHfVr3rfJa/jZirAOYDbk4nCTbTnCIgohL2zXH5F99rqvwIedpLd1AiIwbwQzKD4N7OKBvjVMR3YaqNppTVQYZ3BAjhXjol1VqXUsG19ULWpHNm6fcsIrFAeHr9wAIfc/1UP3KYW/5/WgvAxlbmVJRjd4qcVkVEZd64JBTdOT66tuRwUS9ySraSa3XDggzuJuN1EvKXmqlRpuIWoX7WVTD+b7EHeSfCN3vIkPlhCp2WkonQw1nDCzuVOnlLsHlI7jK0zeiirBS4q3kVuy7RKy6U01aU5bT+gNixGxAwHo7VzeUQT2r/2WgjvroL3ysJApYIoKUo7VK/EoasSEM+aKckyHHX5KINVL0/RnSX4W6llUKZQpE0sCkP3tQb7RaZQffDEu0Qb0Y+Hlk+D7DeQrLnuyoXKg6IPUHsnoCTNIAAAONSURBVLxg/d9qEnX4Ihv+0sZkvSyhjCm/1d5XYBmjbTbp+pI05UBwWH1Xl6Taj6Ye1hYDhHpGBn1DGEBLyVOXPQPrIJ2SWwU5MTOcK6Md1vKpTtPN8yIZmqV31myEkJXhPtQaZR+rpJ/U/fjL+/mo806EmgSpkgx63lgsc3RRPtthog9NSw2p3LooltrfdRVcSYX6/Wvp6twbUaUymnZ811sBI6bNKr/XlcKg5az2+/ISjcOypdw+eCzXRBw/0C9Vhavpl3RuZYF3KW5r1sro9Xq0WhlmisZ0XV7kBD/IRlzqDM57YlFMDMUpZSioSs2aGjEOXBbDz8VGvqw3TP1rGf3l5DHu+fYxrn8PEozpGhPTVZtfxp/VebLkWin9Kr+Pk7IiQ9esZQZwiGgiQrfbRURw3nHLzbeQZRndvMvBBw5yy75bOPDAAfbt38eBBw5w6/v38eDBj7J/360cPHiQ22+/rdz5Q7p+/y1457n/vvv5hTvu4N577kGjsm//Pu67736885glp/Cyh1BOlIsTfuInfoI8z2m326vX6JzCZGqtFX/wf/5gwh3WQ7DTiZPrrH2iiUipJtMNYhERJ3zkIx9h3/59hCzDMG7Zf0stK2HfvvS5WuXw4MEHh37/yEfuQZxQFDnvv+02Dhw4kDIOfnjVxYR2ExGcc4g4YhFPqnINXiKsg+NDY6/R5Tb12filpSUOPnAQYPB+8CAi0iePmZKFjJtvuRnTNFp5/223poyco4g5t9xycz+vgTq2ZbZIHSIOEcEHnzrDJnptFAxmp8oHnYWsP+rMQpYqLIJ3jlvffyveefbt34e4ZOBHHUiZqJG8yPuT8d55Hv54CvIxNzvHXR+6C9U0pdFut/v2RzVgGAcRh2qk3W7jnCeEDO/DpnltFCzzJnW7XXp5j1YrzdzfftvtBB+Sm0Ej9917H4ZRFJHgfTkYSPDOs3//ftS0T9z37H0PIsLxE8eZmZnhvvvux4lLtqCbTLAKqpGiiKjGvuQz003z2iiQA/cfWKazKnutKCJZFvquCecdznmKPF9VrFcujcpVkoWMVqtFt9tFzQhhQNCVVsgWMdJqZeR5QQi+P5rdLFitI57rOPjRZGYtk8391ZKaJlg1ajnRChoHbou622EcjJS+SgvQ6/WSGj6Jxgve98tQqfQG04cm9kaDM4JTsjZPZVPIqaRtMH1oJFqDM4KGaA3OCP4/adFdcI322MMAAAAASUVORK5CYII=;labelBorderColor=none;" vertex="1" parent="1">
          <mxGeometry x="-304.7" y="-1042.5" width="35.4" height="40" as="geometry" />
        </mxCell>
        <mxCell id="ZXn4HNvfn6RSKJ2BFfuO-55" style="edgeStyle=orthogonalEdgeStyle;rounded=1;orthogonalLoop=1;jettySize=auto;html=1;exitX=1;exitY=0.5;exitDx=0;exitDy=0;fontSize=1;entryX=0;entryY=0.5;entryDx=0;entryDy=0;fontColor=#D9D9D9;strokeColor=#DEDEDE;" edge="1" parent="1" source="ZXn4HNvfn6RSKJ2BFfuO-57" target="ZXn4HNvfn6RSKJ2BFfuO-59">
          <mxGeometry relative="1" as="geometry">
            <mxPoint x="-247.3" y="-1043.5" as="targetPoint" />
          </mxGeometry>
        </mxCell>
        <mxCell id="ZXn4HNvfn6RSKJ2BFfuO-56" style="edgeStyle=orthogonalEdgeStyle;rounded=1;orthogonalLoop=1;jettySize=auto;html=1;exitX=1;exitY=0.5;exitDx=0;exitDy=0;strokeColor=#DEDEDE;strokeWidth=1;fontSize=1;fontColor=#000000;" edge="1" parent="1" source="ZXn4HNvfn6RSKJ2BFfuO-57" target="ZXn4HNvfn6RSKJ2BFfuO-64">
          <mxGeometry relative="1" as="geometry" />
        </mxCell>
        <mxCell id="ZXn4HNvfn6RSKJ2BFfuO-57" value="" style="shape=image;verticalLabelPosition=bottom;labelBackgroundColor=default;verticalAlign=top;imageAspect=0;image=data:image/png,iVBORw0KGgoAAAANSUhEUgAAAJoAAACuCAYAAADOFBSsAAAgAElEQVR4nO2da7BkV3Xff2vvfbr73jtvjaQBSQiDJBCyJCAWNsjEqXLKVSQpP1KpVIiTVIGJFWDQY0ZIsiMwiomFXjNCgFBsTB6O7cQf7EpcFZOquPyowhiDEViAEBYGgSRbaDSa1310n7PXyod9Tvfpvt333rkzmpm+9/ynevp299lnP85/r7X22nuvLde/5d+b6m4anH4YgAw+CV1EjoN0y6/amG3DaKdrkfJyqd9hqvHsMwcACIW9jGgXn+XibFBIIkqMOW3vge+D+1vEHwJA4/movpKou4kigOBMEJPaTYyNQLigtgVl+9kux4aDiIAYhuL8IoUeZmbmBB+660acfw4AjRdy++3/E3FbUd1KCFuxIgJSo9b0kwwgIBEsnu1ybDiYgakiTjEOkbUf5xfu/Jf48F1+6YO3AHDXXQe4++6f4oMf/A1UXwd5GGhakeH7ndnin3YEMBA92+XYkHAYpkqW5ag9Q7tzCMcCngIALwu41vN49xyBVxNVwUGlOa1mq5mMz2NaEDaKDXCuQszjzKOmOANnHSRuAQQXZ0EcXiGaQ/FghpXEGibXdD+jcLYLsPngylf9s9Sk1zjRJWwAoqXRToOXAoZJRCWC86g4lC7mloCIui5GmygeFUNF0yCicnPY8LOZZqqVEm0S0aa5amcfJoAZahmiF6DxAtQfQktDX2kT9UKiXYhKG8OgJtkGT0WGfplGyHVv/pRFu3TCz439dmowBMXJEuhhvP8eH777n+PccwgR1T38wi/+L1RfidlWoN338g7bZ9NLsUPPvgtobLQzAAGbAfag6rnzzv+O888jZqiej+pVqJ1fv3oMpr+zN0R7SZGMfDVIfovzKXozIDmJgBnI3FCKaXdjTEJDtJccgkll1AdEtmKU00xOMesBG9+P2RDtJYYNqT0FK8rvpdSI068W14KGaGcENuYFA9fSBtWXNTREe4mRKDSOXJtDklVwq1/S4PRg80mxOhqJdsYwrk9vHrI1RDsjmDR/uXnQqM4GZwQN0RqcETREa3BG0BCtwRlBQ7QGZwTBGWlmZHMNgjYZzr5zOPjCcKbJdz2GbCINA6cbNvJ+dhB2tFsQs5Fd1QM0RJt2jJtjPXN4tnwPM0WXUCxOLEJDtCmHnF2iVQgXtBxtmVyAhmfTjnOEaDusyxadn3hBI9GmHecI0Xb64+xwk8nUEG3acY4QbY5n2GbfL8u0nFSyAgkbnOs4N0gGECx/Cikj2IyDaEO06UZFspX2JQgD3/2wO0Rqf9ddYG6Ityvtsk8IrnUIZ/MTL2xU5zTDRkadk+DAWqTnr4AiaD94lpTpDShcuc1GBbFEPKsWcq7g9Q9bL4C5Xj7xgkZ1TjtWkmjVs/WgvvyqB6JlMEApKWSIKSpG4dIy9KBJqvV3eJljrER7Jr2FxdY8J/yRicVsJNq0Y5KdVltSbj5JNIngjoMopjNgGYJDMJxFTIxCSEQklurTg6WrxgvNpJLDsdntRNXJDttGok05TpZobdLk9wxmgSTVUmgHMJLJXn0GzCMkNTqeKYcBCIe3vIYj5OgEFdtItOlE9dxcSQzEhp6liOBcqS4JoG1S6MBeklbigKQfo0aKGDFN1lgQjxOPSBWCa5I0A/jfKb+XXX69FXRKo25MgRuJNpUwTeQyS5Koeq+QSFIR0iO08S7DzIhxAeePE4vn8RwCadHTl6O6FYuKmEsvXC2u23jscN8GIBxduoxCLmzmOjckSnUpw2pTbTAwMEtDR1VIXzt8Nk/kCebmnufXP3YbTndww94/gnAlJiAmOPN9sg7yGoPFkmjOX4i4iyfysiHa9GGgNqWcq05Eq743s/RCUI2oWWnYO/KFRVrtFh++5wOct/2rOH2UoriEGLfQnn01h48fIQuhz10zxcnw6Qh1bCnfA9YFXZpYaGvW4E4hKjeroKpgA6lmagQfiGp4H/AOtCiIhdLOZti2+3ywp9huf0Rr/s/I2l3UdtBuOeaPHyVDyVzERDEUyvsnabiCH23PBReSywUjXw88wcnWO/srNBusDyJJwokYLh19gA/QK46jWmCaoSqYHgcWEDlGW56mbc+wc+YporYwd4wLzztBQRelAN/mxFJgbtsFxDwvOezG0qz3nfQe2iHDkY25xDAxzIFJRbyGcNOCahBXqc68yCnynHxhCdXDvPwSpYhdYr4DbAEn38DJYcwcnexbnH/BlZD3mPEdpPcC2zuPsRhfICenxwV0Zt9AXmxNalPSjMJKA4OgecQYPtAirbYtw5D7kmAy6odpcK6imgdQjZgphhFaGa12h62zW2n5Dv/mX78VH5b4+EP/lcwf57b9/4wQXsDUsPi39PJvkXEFvV6LpcUOP/+uf0pn2yVoBofnd3PvgccAiFhSnzAyOBhGePbZp4ljD7RIRMNVkqwh2rTAREAcuDQY8MFjLjlegzmERT7wiw8Bh7n7njto+8MQn0NoJb+bXMTi/HksapHMO9eis6WNiiePBfMLyuFDJxA7hkVFNVIUxdiyXFi+y85X3GBR9owrLmmkMvi7wXQgrbJI/nwzUJRIcrgSI2gOLCFylBAO0QrHablFfDnPaeqIRQvV5LQVpzifg4+oN7rxfJa6V+PkInxp902aT98dPw1AUH+UQvzQjwKIJWJVnuX0ee1kGxwusz406defXhAwSw5VDTjAWw5EEEOdYaKItBDbTSx20nMgzoACEFxo4V2Gcx4xoyh65N0uOHDSJsScLVtOkPd6IEycWaqsMsG/2XC7yk8jV1pVY0tD5JOp9ui02smiSb/+9Fo+L01e/4ScZLkJuHLqSFzNtZBULVYkz23fXWH0p5lw6bMniTFHmY+Cjj+47hWXPA5A2H7x1RRjVWdaHlIdILPevnmqsQ2b9OtJXx6N4UoxI4ZUfi9KiVfOW2qpuSKVd6HKLc1JVguFhifNS48ENSk2aVJdS6JBB2F2QnmtzO/UbbRTtfCa9CefQkvPfXWQWXUXoVwha5TehZIwYzLppxj53QCt+VdX6xArB+JbedHkmjB9D2ijpK9UZjl5PvKrMrCUKgtpeV4DYo4ri5jVXGEra/gm4uOGxOga/jFr+ses1plMlJJG45aRkeZNq6smoSHahoSNeT9Za68aABiDZdrDTJPSrJI13DeYGZPX11aTCqMFn26ISL8XblzUldnJkUyGrq/fY9J9VrevQlWk8RnW/1pNC5/rqM3USn+gPzRsSkteRqdRprnOsH7fioz8rbXb2bKrV0NY6aKUxbSTLJXfRnq3SV5+G0grTD2mOrYhp7fu64ONSDSRug022jZrk5QhLSGZuOyRaSdZ8hNV5XdAwCzHfBeTiLNZtAi0/Ax5nqf1WVY5Nw2RavnLtLbBelGT9BOvsQnkW45VlzVauQdmGl+psXz5MnAF5hZRfwRrfZ8b7/gXLPWeYNv5XXxrgVznS+emK1ciSK0NprstTv7Fml5rxQZfPysIGeAwKVB3jBieoWg9ic19g6XsC9zwwR9jzxXPI7PfYev2BUzmERkse7G6YddgBKMDhXGvhA1ONCh92BiR9+27gRtu/hm09W3eufdt0HmaPPtr3vzjF/H2d/44XX0OcT3yolemXd5gDUaxEsk2CdGS46aLuBwR+MTH78V3nuPWO9+OtI7R0xfJZhaY296D7AitThelh3eOEDwzMzMEH8aMRBucLDZ4CxppDWgO0kOty9zcDL1eJLgZMr8db7vIu3O0wk6ueM21mHp27NiNRqW7tISZ9SeeG6wfG5xoAIJZQeQYN++/mWJxNx/90O+QFa+gHS/j4Xv+mE8f/DwfvfO3ee57Qifs4qKLf4B2Z5bOzAwi1Zq8BqeCDT4FNcyQ3/nt3+Xvnvse8ApCvJQH73sQl7+SpWIb2dwOgpxHpxPpdXv0ul3yojeyo7vBerGBiVZ3OgbQLTz9naMUFqCY5Td/7Q+JC3vQPDA3s4v5I0vsft3Lmb14C49/9auICEWMtDK/UiYN1ogNTLQKgpMUfkkto+VatLeez9HnocMeLAi9RWHPRZfhXcbxY0e55NJX4IPn209+k+7SUmOjnQZsYKKVa6kkLaoTEYJ4YszIF6HTmgERTIStW2d41atey5EXX+TJb36NdivD+4wT8/N0Wu2zXI+NgQ1MtBR7QkthZFotWw4YQq9rvPn6t3L06FG2bd/OoUOHePKb32DL3BwLSwuows4dO5mfnxwav8HasaGJpmZDy4GSp18pYkHUyP/7w89w4fkXkrVaLMzPk2WepV6XNFI15ufnS7I2qvNUsQncG8MQccx2ZoiqvOpVl7Fr9/m8cOh55hdPkJYKpeuqiDsNyU4PNiHRUoSduc4MGiNPP/VtFpcW0kJSTbvIpDlT8rRjUxGt8oWpGc47vvPtJ+nmPbbObcWJK9Ws1FZvNDhd2HCt6UT6geEAqvV29eB0ABqV2dktOBFiP0jJ6Jr4RrKdLmw4oq0V1SChkVxnBhtu1LlW412t5mejkV4vNTZdd25GkWcHG06inX1Ifyp/dD29k8FiwHpk7M2AhminAXWncJ1MQop/IeUAZePvJZ2MTac6Tz+WL1/W2kDDu4CZYFaFfRoTnmAToCHaKWJ4k7VDJMMMIj0KW0ItRyQdczO8b+h0SbdTj/R0JtAQbd2Q5OTFcCL08oIdOy4A2hgek0VUjhNZwqQgy6TcwxCxFQ9pPRm8FMR9adAQbZ0ws76j1znHti3bWVw8RsFRNDyHtp/ihn3/BGt9n+gOU/AiJvMgBec6KV4KNERbJ7xzBO8JwSNOOLEwD36JV17lyVtf4KYPXc/Mnq9z4WXz5K3vkvunUX8Io1u7y6naaTLh73MPzahzHTAzomkp1QpEPDPtLVx6+S7e+rZtvG1bhxPF4wRp8VM/+yN84v7f4qb33Yku7OCTB34PsVlGY/asH+c2wSo0Em0d8M7jyhGlk0CnNYOZ8cQ3vkToHEL937Fl2yySOaz1Iu+7/e0s2bM8/J/uxiRFvZ4Oepw+NEQ7aZTBg8Uj4slCGxCuuPJ1tLM2nWwXTs+jt7AT8l1YDJgZs7NzdHs5g3gem8tSa4i2KqT2zyFIuTgyvV/zhutQVf76G39F0W1x8Jf/Lx/95c/x0C99Blm8nFZxKZ+8/39QLGzn9lvvRqw6d2tzUa2x0VbB8pBVSaKlE32FWEQ6nVmOnXiBVquDjy8H3Uo3zvHIA7/Hjfv2ogt7+Ng9v4W3HXh2rZjfRl06LtsuvdEKefnZLsc5iyrOfv0bSC6NxW4XVbj+R/8B3ht/8fk/BTEii3T1RWZnMvIcUI+jhZDhrAW2efaK7taHgUairRHDEkbNaGUZ17z29czNbUvH1+RKUUAIAUcHejO053ZiMZKauRwAbDxhtSY0Em0iKvfD8lCaZtVhbOl0Gu8Cb7zuLXgX+PPPfRYR6HQCedFFNZZxcidF69/YqCRaMxhYMwaT4fVFks4Jaspjj36RXt7j9W+4jmuu/SGuuvqHEAs0Z4UnNKpzIqrTQOrSqE4a7Uu7tFe0x6Nf/DMuu/xKnnji6wTvcK4WzXqTo+lupwFJwqVZgieeeIw3v+X6dIBcGXB5s7kyxqEh2kQkz1k6rkvL91i+inIFRhlCWZJPrZW1aLfafPWxR3nd1VenVbTNEeFAozonYvkU0STJNNjcIuJY6i0hInz9sb8qk222yabxaIh2mpBCKCit0CLG6lyWMux8g4Zopx+y7K+1HvqwkdEQ7bRjeNVrQ7KEZjDwkqMhGTREa3CG0KjOU8bw9JIOBf5bacQ5eh7mxkYj0U4Jg5VqRlrRUUUrCj6NOKtNw26IdNOze+l0oSHaBEx2s5aE6Ttik//MieCcBwIijsIWUBYxibWwWadyPtx0oyHaREx2ziYoiKLlJpUU3C9DpIOJYP4EZMfwIc0ppOhYVqYzEB1z/42LhmgnjcnB+pw3ojuCZc8R29/i3bf9NLsvbqP+BF07RJSjmMTBbIE0RGuwIgRHAPM4ERa6iywsLtKLh3nZq5fIZ/6Cm+66Ht3yl3zvhT/DOs/R9U9ShGcwyZFyIWTC5iBbM+pcFwS1asucMNeZQbzj1Vfu5Efftg3mZrDOd1HvefdtP8kn7v0N9n/gZmxpO5+4+zM1J66yWfr65qjlaYYZmAlqDucCC90lVHO+/KU/YevOeXznML3YxVwXa3+HG+/8GQo5zEMP3YdJgUlaBbKZBgQN0daBFJDZMdOeIUal02rzuquvYueu8yi6bSzfxeKRbcTu9nKfwFKKj6blnlCS8h13unF1vsFGi6XWEO2kUZFDWVia59o3XkcWAo995QssnhA+9it/yMMf/hKfPvAl4ouX47uX8vF7fxNXbOfGvXfgrJX2dlavMYOLehTxjYLGRjtJ1B9/VCUWhpnDiUeYgzgHcQcaj/Kr9/4+++54L657ER+9+7/h4i68XQLlZmTbRKqz2QV1kqgUX1rkWIAFrv/RHyPaPF959HPgCpActS6LveN4b3jnMA14ZhHbglhWTlUtJ9m4DcQ2EkF8mtDs61wn0oGxykynw+WvvZqtc7swBbMAGjixsIj36RS9TtiNmKAFOBzgynNDJ29YGbdLfRoJNoqGaCeJtKdT6PW6PPH1xzBzdNozvPFNb+IHr3kTX3n0C+UOqLQ7KmrEY31ybdY9Uc1gYB1w5bylSNrXGWPOZ//0jwm+xXXXvZXLLruaK6/6e2zZeh5mHjNHWtZdD5a8udBItHWhUm+KmMPUaPmML37+c/zgNW/gO3/zJMfmjxK8gAPvTk/IvWlGI9HWif6IUQYrMaJGnvj6Y7ziB16VpJ13/eVCmx0N0U4R9UjbnVaGiPHdp57kyquuLvd7blarbBiN6jxJjC5ZrLYYi1QefVg4scAz3/12/+pGnjVEWweWUw106LS8Viuw1F0or9g8TtmV0BDtFGFYLSot1N1gjTwboCHaKWN5BLUGy9EMBhqcETQS7TTBiVu2tKdRnQM0RDsNqELCiwx8ZmZWjkgbQEO0U0a1gLESZiKOzbRydq1obLRTwCDsqKDl8m6RDDVQ6WGuV26r25zzm3U0RFsnpFz205mZ7TtqwROjT8dbh3kknEBc8rWlhZEr/9vIhGyIti6kxYlFjBw9dqR/bicSUXeEJZ4ibz3Ju/b9I3J3iOhOUMhxVJbKkKTLj8ceHES2McnWEG1dSKcOZ8HTzkIZfVuY2waXvz4g2x9l7y/9MDN7voHf9jTafo6ePAP+RcTlK9x345KtIdo60N/6W4ZCMDNm2jP8wOUX89Z/+Er2feCn6bm/4XjxTd5x0z8ml79h/53/ivfs+1kiS6vefSOSrSHaupBI0G516OWxfOV8/WtfYMfuHrn9LaGV0Ys5YcuL3HDbT9Jz3+KBA/sx6a5y73T/jUa2hmjrQnJdHDt+nLnOVrZv2cm1b3gTGj3HjoDXC7Hey6A4jzzPmZlzQC8tsl3V7TFwjWwcmjVEWxcSDZRWq8VV11xH3jP+8oufx9tOHrn/sxz8wGd56MN/woxdQzyxiwf/46+i3Z384h331c7rHH9nK/+v/m2UUWnjsF0nqsB7ZkbWarFwYp5QZIi8DJjF9xb5xD2/y95b/i2z/go+9dDvY90tiO2p3WH5PcdLvEqRTu9Mg2y79CaLzb7OsVhtrtJJIC+EH/7hv4/zjs//+R+hvks3HqPVsRRjQx1iHlHBWYazDmJ+zfOgw5LMpo5qI/s6p1ckv3RYOfynGbzmqh9kx47dzJ9YJJAR1Zib3Ur3RA+vnqiGWBvB48xq53VuvimqRnWORf18gOWkcOJAHN98/Gt4l5EXkWvfcB1vfOOP8M3HH2dHZw9qXTwR7ae1tJfljNbj3EEzGFgHtPSfqSp50QOMrzz6BQCuvvaHeO3rruWyK67GS5Z2DOsoydZq2I9eM70DgkaijUV1rt2khyr9KNspVprinOfLj36ey664kmeffoqi6BG1AGKVYuQOq9mAo760wadpXOfWSLSJ6IdzgXICnX78DCkJBtWO9SpUwveeepJXv+Y1HHvh78hj3g9XW5nxddfFaqhWtI3+m0Y0Em1FVFJkJXWV6GhAq9XCh8BffeVLvP4tP8bXvvrlRIsqNnL/1GJjbSqwZt/1o3ZMq+qUiMpKE70NVn+4gohnvrtIsVDgg+PLX/xT2nNz5ebiSuXVBxer2Vv1YMr1Acl02mkhsoj5xbNdjnMUdTUlK5lTGEJo0Y8c5LaAuYXBJSKYDhNmlC7LTjVwVZr6r6unm1jIs4jQmu2Ru+NntRDnNuqSZMyvI2c/2cjR1pNSCyxjyFoOK15furMoBXvpLZAdRv1aVhRsVqxMtCH0owbVyLfKXcd+X9Oaa5VeQ+lqXw7GqnJW/XhBWi8i4cRZyv4cxzLxMengsPJXWU60k360I5ev+XCVMdnU0wrSF31ng2xBWkdw2XQOmV9y9Ik2KtXGTyGlyEGjeztl7U+22kk1mstq6UfSjUKspjrP0qMOyhHU9fpfDIzP8RA3Ehd/levXkr76bi33Gk2/njKstTxgmOmyGLI2IdBxPVZaSi0gJ2cfjYbsWxPRxqSrFykJskE5zqxE2wJAQE4Ag1GnrSKrR8c8q12/lvTVd2u51zif1smWYa3lSTxZrgb7Mc+WFWUcAddONOeSHVWPwr0WB+1ouqHI3hXJbFAn+rMap0e8ycj9Uly46t4V0awAywFBTAiVHh/pSlaqERMdjKxGpHGtDhOx7DGUnd4UvJVTNTba92zQs6XuXV9+zzECbzh/G07TL3uZgTfBma81VE1CSSKiI+1l6j/Lcn5lLO/GSr4xBbcUuTuFKpV00mL1wMo69+su9fIMZ1zxalnfq57VCNGq68Skb8dJfxg7XFATA7FlZejfe+i5DRcgiAactsr1Uh4pHJnLiL0irVIgFcwE1CnqYnpJgUpE3OCBp6kYykZa3r5VYZYRUx3OHE491jMy1yobvXIZpEqqU6IWKf8yyqKWjV3dSzX9PSlsbL+D9wuUyO3UIeqxniO4dmqLqk5l51KnFPRQF3ESUVHKftFvWiGVoSK82jD5h1wRQvlgU/0pAtoTMtfG40EVsXQuqImm+rv0bqJY+V4AzpEmD+qTCP1yST9vE+vPT4iUk2palkE9LgacesSEVmhRxAIw1Bkqkehy1EVAy++gbyGU+Y+bJQ5Z3i4rKjj1vPfn92I9I7hALGL/QauAivLIpz+JunRwlroC9UX5IMpcxIY7slQPs3q6pWIqG1jUlxVzSHTsveFGLDeCeLSI+BAwDC0f9Cc/9XDK30WiFINGn5Q/STqYppxF3EBal40rVi5OLBx7b7gJyyFIRiwiIbj0cESJLvJIPX9yLCQpLy7lb6ZDcqAimZUdoDLMk3DweMsQDWX9fcq/ZwQJaFHgxRAUFSM65ZFf/2QinJQdLihR0oOX2rhjVOEbldSqSWJzuEJouzaag1fPe961F0/A4/qENTEisV//6ApUikT6oERiqlt/5ny5rpF7HvoVU0mN43E48xCFGJUsa6Vd2FIujRFNDWwFiBFdwSf/yyPEsuHVRaKkHk8pBawS41EQS6QiJhXhY8Z73rGXFi2Cy4g9JUgGKsRCybKMvqIsJYtKxFyEsuIP/+dHiC5irkBdQZTU40xiv9XFJOWvAacBiYlYPgbe/Y69ZLQIIRB7kSChzD+ShWxYEki6b3ql+t91739gzyXnJwlPTkE3PYQh6yrl79TjNAzV/93veF+qv6/yT0uLtIi0QpakWjV5JQq+bANRCh/5+KcfpnCpTUxiv+Nrqeb68syS1HYakFJi+Zjxvp+7CckdQQLOHBKFzGcsLS7RarUw05H2r56rUviCj3/6YxS+SN+5WHbCdB0C533rotQCBx64zyDpaicOzBFCRq+XE7J0lEyfn2KYFeVIDMwbuS/QYIiH6Ao+9siDSdKJ9skGUqqmwL/7uXfjNFXKx8Cc24L2FItGpzPL4kKX4DOiKu12mzzPB1KKSnIpziXiF8HQoJgzdFn+1idaRfIb3vlevHpcSbQq/6iRmc4MiwuLBB9QjbTabfK8qNmnBsT+fVUiXd9FvZZmRcEjn/pEKfGrurtSepf5/9x7E+H69d+KdQ2NkU5nhsXFMv8Y6bTbxLyo2VtpeXh1XHZ0StcVFCX5ooulxolDEh6Tvsa64Z3vwZemSqYtsqKN17S2wmI6TmjUwVJfgVI2KEZ63l3f7RNtNH8TY9v3dqUkB+9/wMq0JdLq0aiKD75vz1RDejPFSaUCkkqrBgcq1WBhMGDojwhNkh1mqTdRGp9Oqx0+Vd8ro/MwGIBUBmgyABQMvFTXpDyqv7WuRktpUjdynbm+TSTlA6iUy/LRa9mTa6ogqUbD4UuTQst6L89/kLbcx2RlhzNXfi7NhoHMGhocDpscqVXKWvfVoZU/V88hulhKs/IGNQPdlfm7flukMgigpogrjwgqdXA9/m79dO5+mcr6m6R1xEmlJ9vNSBLt1z7yawCEYctY+kai92mHz2jTJ6lHSZQ0Uhx6NEMPa+ThGcnoHTIVBxUZ2O9Wu8T6r2TIu37DiYGrlb3McXmj1IbHfVr3rfJa/jZirAOYDbk4nCTbTnCIgohL2zXH5F99rqvwIedpLd1AiIwbwQzKD4N7OKBvjVMR3YaqNppTVQYZ3BAjhXjol1VqXUsG19ULWpHNm6fcsIrFAeHr9wAIfc/1UP3KYW/5/WgvAxlbmVJRjd4qcVkVEZd64JBTdOT66tuRwUS9ySraSa3XDggzuJuN1EvKXmqlRpuIWoX7WVTD+b7EHeSfCN3vIkPlhCp2WkonQw1nDCzuVOnlLsHlI7jK0zeiirBS4q3kVuy7RKy6U01aU5bT+gNixGxAwHo7VzeUQT2r/2WgjvroL3ysJApYIoKUo7VK/EoasSEM+aKckyHHX5KINVL0/RnSX4W6llUKZQpE0sCkP3tQb7RaZQffDEu0Qb0Y+Hlk+D7DeQrLnuyoXKg6IPUHsnoCTNIAAAONSURBVLxg/d9qEnX4Ihv+0sZkvSyhjCm/1d5XYBmjbTbp+pI05UBwWH1Xl6Taj6Ye1hYDhHpGBn1DGEBLyVOXPQPrIJ2SWwU5MTOcK6Md1vKpTtPN8yIZmqV31myEkJXhPtQaZR+rpJ/U/fjL+/mo806EmgSpkgx63lgsc3RRPtthog9NSw2p3LooltrfdRVcSYX6/Wvp6twbUaUymnZ811sBI6bNKr/XlcKg5az2+/ISjcOypdw+eCzXRBw/0C9Vhavpl3RuZYF3KW5r1sro9Xq0WhlmisZ0XV7kBD/IRlzqDM57YlFMDMUpZSioSs2aGjEOXBbDz8VGvqw3TP1rGf3l5DHu+fYxrn8PEozpGhPTVZtfxp/VebLkWin9Kr+Pk7IiQ9esZQZwiGgiQrfbRURw3nHLzbeQZRndvMvBBw5yy75bOPDAAfbt38eBBw5w6/v38eDBj7J/360cPHiQ22+/rdz5Q7p+/y1457n/vvv5hTvu4N577kGjsm//Pu67736885glp/Cyh1BOlIsTfuInfoI8z2m326vX6JzCZGqtFX/wf/5gwh3WQ7DTiZPrrH2iiUipJtMNYhERJ3zkIx9h3/59hCzDMG7Zf0stK2HfvvS5WuXw4MEHh37/yEfuQZxQFDnvv+02Dhw4kDIOfnjVxYR2ExGcc4g4YhFPqnINXiKsg+NDY6/R5Tb12filpSUOPnAQYPB+8CAi0iePmZKFjJtvuRnTNFp5/223poyco4g5t9xycz+vgTq2ZbZIHSIOEcEHnzrDJnptFAxmp8oHnYWsP+rMQpYqLIJ3jlvffyveefbt34e4ZOBHHUiZqJG8yPuT8d55Hv54CvIxNzvHXR+6C9U0pdFut/v2RzVgGAcRh2qk3W7jnCeEDO/DpnltFCzzJnW7XXp5j1YrzdzfftvtBB+Sm0Ej9917H4ZRFJHgfTkYSPDOs3//ftS0T9z37H0PIsLxE8eZmZnhvvvux4lLtqCbTLAKqpGiiKjGvuQz003z2iiQA/cfWKazKnutKCJZFvquCecdznmKPF9VrFcujcpVkoWMVqtFt9tFzQhhQNCVVsgWMdJqZeR5QQi+P5rdLFitI57rOPjRZGYtk8391ZKaJlg1ajnRChoHbou622EcjJS+SgvQ6/WSGj6Jxgve98tQqfQG04cm9kaDM4JTsjZPZVPIqaRtMH1oJFqDM4KGaA3OCP4/adFdcI322MMAAAAASUVORK5CYII=;labelBorderColor=none;" vertex="1" parent="1">
          <mxGeometry x="-302.7" y="-1040.5" width="35.4" height="40" as="geometry" />
        </mxCell>
        <mxCell id="ZXn4HNvfn6RSKJ2BFfuO-58" value="&lt;font style=&quot;font-size: 1px;&quot;&gt;state&lt;/font&gt;" style="text;html=1;align=center;verticalAlign=middle;resizable=0;points=[];autosize=1;strokeColor=none;fillColor=none;fontSize=1;shadow=1;labelBorderColor=none;" vertex="1" parent="1">
          <mxGeometry x="-310.00000000000006" y="-1004.5" width="50" height="30" as="geometry" />
        </mxCell>
        <mxCell id="ZXn4HNvfn6RSKJ2BFfuO-59" value="agent" style="rounded=1;whiteSpace=wrap;html=1;shadow=1;labelBorderColor=none;fontSize=1;strokeColor=none;fillColor=#f8cecc;" vertex="1" parent="1">
          <mxGeometry x="-219.3" y="-1058.5" width="60" height="30" as="geometry" />
        </mxCell>
        <mxCell id="ZXn4HNvfn6RSKJ2BFfuO-60" style="edgeStyle=orthogonalEdgeStyle;rounded=1;orthogonalLoop=1;jettySize=auto;html=1;exitX=0.5;exitY=1;exitDx=0;exitDy=0;strokeColor=#DEDEDE;strokeWidth=1;fontSize=1;fontColor=#000000;" edge="1" parent="1" source="ZXn4HNvfn6RSKJ2BFfuO-61" target="ZXn4HNvfn6RSKJ2BFfuO-59">
          <mxGeometry relative="1" as="geometry" />
        </mxCell>
        <mxCell id="ZXn4HNvfn6RSKJ2BFfuO-61" value="&lt;font color=&quot;#000000&quot;&gt;teacher&lt;/font&gt;" style="rounded=1;whiteSpace=wrap;html=1;shadow=1;labelBorderColor=none;fontSize=1;strokeColor=none;fillColor=#dae8fc;" vertex="1" parent="1">
          <mxGeometry x="-219.3" y="-1139.5" width="60" height="20" as="geometry" />
        </mxCell>
        <mxCell id="ZXn4HNvfn6RSKJ2BFfuO-62" value="b &amp;gt; 0" style="text;html=1;align=center;verticalAlign=middle;resizable=0;points=[];autosize=1;strokeColor=none;fillColor=none;fontSize=1;fontColor=#000000;" vertex="1" parent="1">
          <mxGeometry x="-231.3" y="-1099.5" width="50" height="30" as="geometry" />
        </mxCell>
        <mxCell id="ZXn4HNvfn6RSKJ2BFfuO-63" style="edgeStyle=orthogonalEdgeStyle;rounded=1;orthogonalLoop=1;jettySize=auto;html=1;exitX=1;exitY=0.5;exitDx=0;exitDy=0;strokeColor=#DEDEDE;strokeWidth=1;fontSize=1;fontColor=#000000;" edge="1" parent="1" source="ZXn4HNvfn6RSKJ2BFfuO-64" target="ZXn4HNvfn6RSKJ2BFfuO-67">
          <mxGeometry relative="1" as="geometry" />
        </mxCell>
        <mxCell id="ZXn4HNvfn6RSKJ2BFfuO-64" value="Action-BYOL" style="rounded=1;whiteSpace=wrap;html=1;shadow=1;labelBorderColor=none;fontSize=1;strokeColor=none;fillColor=#f8cecc;" vertex="1" parent="1">
          <mxGeometry x="-219.3" y="-1008.5" width="60" height="30" as="geometry" />
        </mxCell>
        <mxCell id="ZXn4HNvfn6RSKJ2BFfuO-65" style="edgeStyle=orthogonalEdgeStyle;rounded=1;orthogonalLoop=1;jettySize=auto;html=1;exitX=0.5;exitY=0;exitDx=0;exitDy=0;strokeColor=#DEDEDE;strokeWidth=1;fontSize=1;fontColor=#000000;" edge="1" parent="1" source="ZXn4HNvfn6RSKJ2BFfuO-67">
          <mxGeometry relative="1" as="geometry">
            <mxPoint x="-83.30000000000001" y="-1029.5" as="targetPoint" />
          </mxGeometry>
        </mxCell>
        <mxCell id="ZXn4HNvfn6RSKJ2BFfuO-66" style="edgeStyle=orthogonalEdgeStyle;rounded=1;orthogonalLoop=1;jettySize=auto;html=1;exitX=1;exitY=0.5;exitDx=0;exitDy=0;entryX=1;entryY=0.5;entryDx=0;entryDy=0;strokeColor=#DEDEDE;strokeWidth=1;fontSize=1;fontColor=#000000;" edge="1" parent="1" source="ZXn4HNvfn6RSKJ2BFfuO-67" target="ZXn4HNvfn6RSKJ2BFfuO-71">
          <mxGeometry relative="1" as="geometry" />
        </mxCell>
        <mxCell id="ZXn4HNvfn6RSKJ2BFfuO-67" value="feature" style="rounded=1;whiteSpace=wrap;html=1;shadow=1;labelBorderColor=none;fontSize=1;strokeColor=none;fillColor=#ffe6cc;" vertex="1" parent="1">
          <mxGeometry x="-123.30000000000001" y="-1003" width="80" height="19" as="geometry" />
        </mxCell>
        <mxCell id="ZXn4HNvfn6RSKJ2BFfuO-68" style="edgeStyle=orthogonalEdgeStyle;rounded=1;orthogonalLoop=1;jettySize=auto;html=1;exitX=0.5;exitY=0;exitDx=0;exitDy=0;entryX=0.5;entryY=1;entryDx=0;entryDy=0;strokeColor=#DEDEDE;strokeWidth=1;fontSize=1;fontColor=#000000;" edge="1" parent="1" source="ZXn4HNvfn6RSKJ2BFfuO-69" target="ZXn4HNvfn6RSKJ2BFfuO-71">
          <mxGeometry relative="1" as="geometry" />
        </mxCell>
        <mxCell id="ZXn4HNvfn6RSKJ2BFfuO-69" value="buffer" style="ellipse;whiteSpace=wrap;html=1;shadow=1;labelBorderColor=none;fontSize=1;fillColor=#fff2cc;strokeColor=none;" vertex="1" parent="1">
          <mxGeometry x="-112.30000000000001" y="-1059.5" width="60" height="30" as="geometry" />
        </mxCell>
        <mxCell id="ZXn4HNvfn6RSKJ2BFfuO-70" style="edgeStyle=orthogonalEdgeStyle;rounded=1;orthogonalLoop=1;jettySize=auto;html=1;exitX=0.5;exitY=0;exitDx=0;exitDy=0;entryX=1;entryY=0.5;entryDx=0;entryDy=0;strokeColor=#DEDEDE;strokeWidth=1;fontSize=1;fontColor=#000000;" edge="1" parent="1" source="ZXn4HNvfn6RSKJ2BFfuO-71" target="ZXn4HNvfn6RSKJ2BFfuO-61">
          <mxGeometry relative="1" as="geometry" />
        </mxCell>
        <mxCell id="ZXn4HNvfn6RSKJ2BFfuO-71" value="distance" style="rounded=1;whiteSpace=wrap;html=1;shadow=1;labelBorderColor=none;fontSize=1;fontColor=#ffffff;fillColor=#1ba1e2;strokeColor=none;" vertex="1" parent="1">
          <mxGeometry x="-110.30000000000001" y="-1095.5" width="56" height="20" as="geometry" />
        </mxCell>
        <mxCell id="ZXn4HNvfn6RSKJ2BFfuO-72" value="d&lt;sub&gt;s&lt;/sub&gt;&amp;nbsp;&lt;span style=&quot;font-size: 0.833333px;&quot;&gt;&amp;gt; c&lt;/span&gt;" style="text;html=1;align=center;verticalAlign=middle;resizable=0;points=[];autosize=1;strokeColor=none;fillColor=none;fontSize=1;fontColor=#000000;" vertex="1" parent="1">
          <mxGeometry x="-137.3" y="-1154.5" width="60" height="30" as="geometry" />
        </mxCell>
        <mxCell id="ZXn4HNvfn6RSKJ2BFfuO-73" value="uncertainty based" style="text;html=1;align=center;verticalAlign=middle;resizable=0;points=[];autosize=1;strokeColor=none;fillColor=none;" vertex="1" parent="1">
          <mxGeometry x="-770" y="-960" width="120" height="30" as="geometry" />
        </mxCell>
        <mxCell id="ZXn4HNvfn6RSKJ2BFfuO-74" value="novelty based" style="text;html=1;align=center;verticalAlign=middle;resizable=0;points=[];autosize=1;strokeColor=none;fillColor=none;" vertex="1" parent="1">
          <mxGeometry x="-501" y="-960" width="100" height="30" as="geometry" />
        </mxCell>
        <mxCell id="ZXn4HNvfn6RSKJ2BFfuO-75" value="our method" style="text;html=1;align=center;verticalAlign=middle;resizable=0;points=[];autosize=1;strokeColor=none;fillColor=none;" vertex="1" parent="1">
          <mxGeometry x="-203.3" y="-960" width="80" height="30" as="geometry" />
        </mxCell>
      </root>
    </mxGraphModel>
  </diagram>
</mxfile>
